<svg id="Layer_1" data-name="Layer 1" xmlns="http://www.w3.org/2000/svg" viewBox="0 0 1340.74 729.84"><defs><style>.cls-1{fill:#db4536;}.cls-14,.cls-2{fill:#4285f4;}.cls-3,.cls-8{fill:none;}.cls-3,.cls-9{stroke:#f4b400;stroke-miterlimit:10;}.cls-3{stroke-width:8px;}.cls-13,.cls-4,.cls-9{fill:#f4b400;}.cls-5{fill:#126099;}.cls-6{fill:#4398d1;}.cls-7{fill:#c44639;}.cls-9{stroke-width:4px;}.cls-10{fill:#da4635;}.cls-11{fill:#f1b31c;}.cls-12{fill:#547dbe;}.cls-13,.cls-14{fill-rule:evenodd;}</style></defs><path class="cls-1" d="M343.55,155.51h0c0,5,4.47,9.11,10,9.11a10.3,10.3,0,0,0,7.81-3.45,10.34,10.34,0,0,0,7.82,3.45c5.29,0,9.63-3.78,10-8.54a10.13,10.13,0,0,0,5.23-8.66,9.78,9.78,0,0,0-3-6.95,9.76,9.76,0,0,0,3-6.94c0-4.63-3.39-8.55-8-9.83a7.21,7.21,0,0,0,.22-1.74c0-4.39-3.89-7.95-8.68-7.95a9,9,0,0,0-6.51,2.7,9,9,0,0,0-6.5-2.7c-4.79,0-8.68,3.56-8.68,7.95a7.21,7.21,0,0,0,.22,1.74c-4.64,1.28-8,5.2-8,9.83a9.5,9.5,0,0,0,2.28,6.16,10.75,10.75,0,0,0-2.28,6.57A11.15,11.15,0,0,0,343.55,155.51Zm6-27.91h.06a2.16,2.16,0,0,0,1.84-3.31l0-.07,0,0-.1-.14h0a3.19,3.19,0,0,1-.79-2.07c0-2,1.95-3.62,4.35-3.62s4.34,1.62,4.34,3.62a2.17,2.17,0,0,0,4.33,0c0-2,1.95-3.62,4.34-3.62s4.35,1.62,4.35,3.62a3,3,0,0,1-.33,1.36,12.34,12.34,0,0,0-3.55.89,2.16,2.16,0,1,0,1.68,4,7.75,7.75,0,0,1,3-.6h.12c3.81,0,6.9,2.67,6.9,5.93a5.78,5.78,0,0,1-3.34,5,2.17,2.17,0,0,0,0,3.83,5.78,5.78,0,0,1,3.34,5,5.55,5.55,0,0,1-1.91,4.07,9.73,9.73,0,0,0-5.69-4.59,2.16,2.16,0,1,0-1.3,4.13,4.92,4.92,0,0,1,3.69,4.49c0,2.63-2.53,4.77-5.65,4.77s-5.64-2.14-5.64-4.77V141.63c0-2.63,2.53-4.78,5.64-4.78a2.17,2.17,0,1,0,0-4.33,10.6,10.6,0,0,0-5.64,1.61v-2.77a2.17,2.17,0,0,0-4.33,0v12a10.66,10.66,0,0,0-2.39-1.11,2.16,2.16,0,1,0-1.3,4.13,4.92,4.92,0,0,1,3.69,4.49v4.63c0,2.63-2.53,4.77-5.65,4.77s-5.64-2.14-5.64-4.77a4.39,4.39,0,0,1,1.35-3.1,2.17,2.17,0,0,0-3.06-3.07,9.18,9.18,0,0,0-1.33,1.68,6.58,6.58,0,0,1-2.17-4.77c0-3.21,2.52-6,6.12-6.86a2.15,2.15,0,0,0,1.63-2.59,2.17,2.17,0,0,0-2.6-1.63,13.42,13.42,0,0,0-4,1.62,5.19,5.19,0,0,1-1.18-3.27C342.67,130.27,345.76,127.62,349.56,127.6Z" transform="translate(-250.26 -69.85)"/><path class="cls-2" d="M363.87,84.68,377,104.92l25.34,38.92,16.23,24.94.33.5a4.84,4.84,0,0,1,.59,1.52,3.25,3.25,0,0,1-.62,2.21c-.92,1.15-1.82,1.22-3.35,1.22H308c-.59,0-1.18,0-1.77,0a3.14,3.14,0,0,1-3.14-2.88c.05.39,0-.17,0-.21,0-.87-.14.31,0-.56a3.3,3.3,0,0,1,.55-1.29l.08-.11c4.72-7.58,9.75-15,14.62-22.47l25.33-38.9c5-7.64,9.72-15.49,14.94-23a3.19,3.19,0,0,1,1.24-1.13,3.11,3.11,0,0,1,3.94,1A3.12,3.12,0,0,0,368,85.77a3.07,3.07,0,0,0,1.09-4.15,9.31,9.31,0,0,0-15.55,0c-.36.53-.7,1.07-1,1.61l-7.3,11.2-25.13,38.62-20,30.77c-.5.77-1,1.54-1.51,2.32a9.29,9.29,0,0,0,2.52,12.54c2.9,2.07,6.73,1.62,10.1,1.62H411.75c3.72,0,7.51.4,10.6-2.19a9.29,9.29,0,0,0,1.76-12c-.51-.8-1-1.59-1.56-2.39l-8-12.34L389,112.1,370.11,83.16l-1-1.54C367,78.36,361.73,81.4,363.87,84.68Z" transform="translate(-250.26 -69.85)"/><path class="cls-2" d="M383.74,103.13l12.49-15.74-2.14.89h30.79c3.9,0,3.9-6.07,0-6.07H402.63c-2.82,0-5.69-.15-8.51,0-1.76.1-2.4,1.18-3.36,2.39l-3.9,4.92-7.4,9.32a3.13,3.13,0,0,0,0,4.29c1.05,1.05,3.26,1.29,4.28,0Z" transform="translate(-250.26 -69.85)"/><path class="cls-2" d="M415.5,156.89,428,141.15l-2.14.89h30.78c3.91,0,3.91-6.06,0-6.06H434.39c-2.82,0-5.69-.16-8.51,0-1.76.09-2.41,1.18-3.36,2.38l-3.91,4.92-7.4,9.32a3.14,3.14,0,0,0,0,4.29c1.06,1.06,3.27,1.29,4.29,0Z" transform="translate(-250.26 -69.85)"/><path class="cls-2" d="M312.16,150.76l-6.25-7.87-4.26-5.37c-.65-.81-1.25-1.75-2-2.5-1-1.05-2.47-.89-3.8-.89H266.74c-3.9,0-3.91,6.07,0,6.07h30.78l-2.14-.89,12.49,15.74c1,1.28,3.22,1.06,4.29,0a3.12,3.12,0,0,0,0-4.29Z" transform="translate(-250.26 -69.85)"/><path class="cls-2" d="M319.67,137.17l-12.49-15.74c-1-1.28-3.22-1.06-4.28,0a3.1,3.1,0,0,0,0,4.29l12.48,15.74c1,1.28,3.23,1.06,4.29,0a3.11,3.11,0,0,0,0-4.29Z" transform="translate(-250.26 -69.85)"/><path class="cls-2" d="M328.36,123.77,315.88,108c-1-1.28-3.23-1.06-4.29,0a3.11,3.11,0,0,0,0,4.29l12.49,15.74c1,1.28,3.22,1.06,4.28,0a3.1,3.1,0,0,0,0-4.29Z" transform="translate(-250.26 -69.85)"/><path class="cls-2" d="M405.38,138.82l12.49-15.74a3.12,3.12,0,0,0,0-4.28c-1.05-1.06-3.26-1.29-4.29,0L401.1,134.54a3.12,3.12,0,0,0,0,4.28c1,1.06,3.26,1.29,4.28,0Z" transform="translate(-250.26 -69.85)"/><path class="cls-2" d="M394.75,125.72l18.65-23.51,2.62-3.3a3.13,3.13,0,0,0,0-4.28c-1.06-1.06-3.27-1.29-4.29,0l-18.65,23.51-2.62,3.29a3.13,3.13,0,0,0,0,4.29c1.06,1.06,3.26,1.29,4.29,0Z" transform="translate(-250.26 -69.85)"/><path class="cls-2" d="M341,104.34l-6.25-7.87-4.26-5.37a29.76,29.76,0,0,0-2-2.5c-1-1-2.47-.89-3.8-.89H295.56c-3.9,0-3.91,6.06,0,6.06h30.78l-2.14-.88,12.49,15.74c1,1.28,3.22,1.06,4.29,0a3.12,3.12,0,0,0,0-4.29Z" transform="translate(-250.26 -69.85)"/><circle class="cls-3" cx="38.02" cy="21.18" r="5.52"/><circle class="cls-3" cx="9.52" cy="67.9" r="5.52"/><circle class="cls-3" cx="213.22" cy="69.3" r="5.52"/><circle class="cls-3" cx="181.92" cy="15.57" r="5.52"/><path class="cls-2" d="M358.3,177.26v40.1c0,3.9,6.07,3.91,6.07,0v-40.1c0-3.9-6.07-3.9-6.07,0Z" transform="translate(-250.26 -69.85)"/><path class="cls-2" d="M331.81,177.26v18.12c0,3.9,6.06,3.91,6.06,0V177.26c0-3.9-6.06-3.9-6.06,0Z" transform="translate(-250.26 -69.85)"/><circle class="cls-3" cx="111.37" cy="154.33" r="5.52"/><path class="cls-2" d="M381.3,177.26v18.12c0,3.9,6.06,3.91,6.06,0V177.26c0-3.9-6.06-3.9-6.06,0Z" transform="translate(-250.26 -69.85)"/><path class="cls-2" d="M314.5,178.73v35.13c0,3.9,6.06,3.91,6.06,0V178.73c0-3.9-6.06-3.91-6.06,0Z" transform="translate(-250.26 -69.85)"/><path class="cls-2" d="M406.45,178.73v35.13c0,3.9,6.06,3.91,6.06,0V178.73c0-3.9-6.06-3.91-6.06,0Z" transform="translate(-250.26 -69.85)"/><path class="cls-4" d="M718.57,73H579.37a2.39,2.39,0,0,0-2.4,2.4h0v48h4.8V77.8h134.4v52.8h-84v4.8h86.4A2.4,2.4,0,0,0,721,133h0V75.4a2.4,2.4,0,0,0-2.4-2.4Z" transform="translate(-250.26 -69.85)"/><path class="cls-2" d="M579.37,217h24a2.4,2.4,0,0,0,2.4-2.4h0V194.49a11,11,0,0,0-4.29-8.69h18.17a11,11,0,0,0-4.28,8.69V214.6a2.39,2.39,0,0,0,2.4,2.4h24a2.4,2.4,0,0,0,2.4-2.4h0V194.49a11.06,11.06,0,0,0-6-9.81,12,12,0,0,0-10.77-20.33V115.26l22-11.44a7.74,7.74,0,1,0-5.95-14.3l-.2.08L623.79,99.7A11.84,11.84,0,0,0,625,94.6a12,12,0,1,0-21.54,7.2h-.1A16.49,16.49,0,0,0,588,112.45l-6.41,22.09a7.69,7.69,0,1,0,14.44,5.29l2.51-8v34.73A12,12,0,0,0,583,184.68a11.05,11.05,0,0,0-6,9.81V214.6a2.39,2.39,0,0,0,2.4,2.4Zm60-4.8h-19.2V194.49a6.29,6.29,0,0,1,6.29-6.29h6.62a6.3,6.3,0,0,1,6.29,6.29ZM637,176.11a7.2,7.2,0,1,1-7.2-7.2A7.2,7.2,0,0,1,637,176.11ZM605.77,94.6a7.2,7.2,0,1,1,7.2,7.2A7.2,7.2,0,0,1,605.77,94.6Zm-14.26,43.69a2.88,2.88,0,0,1-3.69,1.72,1.69,1.69,0,0,1-.31-.13,2.94,2.94,0,0,1-1.34-3.81l6.4-22.08a11.6,11.6,0,0,1,10.76-7.39h17a2.36,2.36,0,0,0,1.11-.27L645.28,94a3,3,0,0,1,3.78,1.4,2.92,2.92,0,0,1,.12,2.35,3.07,3.07,0,0,1-1.81,1.77l-23.51,12.2a2.4,2.4,0,0,0-1.29,2.13v52.77A11.85,11.85,0,0,0,618.83,181h-3.46V140.2h-4.8V181H602.3a12,12,0,0,0,1.06-4.8h0v-60a2.4,2.4,0,0,0-4.69-.72Zm-.14,30.62a7.2,7.2,0,1,1-7.2,7.2A7.2,7.2,0,0,1,591.37,168.91Zm-9.6,25.58a6.29,6.29,0,0,1,6.29-6.29h6.62a6.3,6.3,0,0,1,6.29,6.29V212.2h-19.2Z" transform="translate(-250.26 -69.85)"/><path class="cls-2" d="M653.77,194.49V214.6a2.39,2.39,0,0,0,2.4,2.4h24a2.4,2.4,0,0,0,2.4-2.4h0V194.49a11.06,11.06,0,0,0-6-9.81,12,12,0,1,0-17-.22l.22.22A11.05,11.05,0,0,0,653.77,194.49Zm14.4-25.58a7.2,7.2,0,1,1-7.2,7.2A7.2,7.2,0,0,1,668.17,168.91Zm-9.6,25.58a6.29,6.29,0,0,1,6.29-6.29h6.62a6.3,6.3,0,0,1,6.29,6.29V212.2h-19.2Z" transform="translate(-250.26 -69.85)"/><path class="cls-2" d="M714.94,184.68a12,12,0,1,0-17-.22l.22.22a11.05,11.05,0,0,0-6,9.81V214.6a2.39,2.39,0,0,0,2.4,2.4h24a2.4,2.4,0,0,0,2.4-2.4h0V194.49A11.06,11.06,0,0,0,714.94,184.68Zm-8.37-15.77a7.2,7.2,0,1,1-7.2,7.2A7.2,7.2,0,0,1,706.57,168.91Zm9.6,43.29H697V194.49a6.29,6.29,0,0,1,6.29-6.29h6.62a6.3,6.3,0,0,1,6.29,6.29Z" transform="translate(-250.26 -69.85)"/><path class="cls-1" d="M683.59,86.39l1.85,3.2,4.42,7.65,5.34,9.25,4.57,7.92c.72,1.24,1.45,2.48,2.16,3.74a3.55,3.55,0,0,1,.2.39l-.23-.54a3.24,3.24,0,0,1,.22.81l-.08-.6a3.14,3.14,0,0,1,0,.81l.08-.59a3.7,3.7,0,0,1-.23.85l.23-.54c-.08.18-.18.34-.27.51-.23.38.36-.41.11-.14l-.18.2-.19.18c-.28.25.47-.32.17-.14a6,6,0,0,1-.56.3l.54-.23a3.41,3.41,0,0,1-.82.21l.6-.08a11.46,11.46,0,0,1-1.31,0H668.83c-1.46,0-2.92,0-4.37,0l-.44,0,.6.08a3.41,3.41,0,0,1-.82-.21l.54.23c-.18-.08-.35-.18-.52-.27-.39-.23.4.36.13.11l-.19-.18-.18-.2c-.25-.27.32.47.14.17a3.5,3.5,0,0,1-.29-.54l.22.54a3.7,3.7,0,0,1-.23-.85l.08.59a3.14,3.14,0,0,1,0-.81l-.08.6a3.24,3.24,0,0,1,.22-.81l-.22.54a11.33,11.33,0,0,1,.65-1.18l1.37-2.38,4.58-7.93,5.47-9.47,4.59-8c.67-1.16,1.3-2.36,2-3.49.11-.15.24-.15-.18.23a1.59,1.59,0,0,0,.13-.13c.07-.08.47-.41.1-.13s0,0,.14-.08l.39-.19-.53.23a3.27,3.27,0,0,1,.74-.21l-.6.08a3.78,3.78,0,0,1,1,0l-.6-.08a3.35,3.35,0,0,1,.75.21l-.54-.23.39.19.22.15c.28.18-.38-.35-.21-.16s.22.21.33.32-.34-.49-.15-.2l.15.25a2.25,2.25,0,0,0,3.89-2.27,5.54,5.54,0,0,0-3.22-2.51,5.72,5.72,0,0,0-4,.41,5.64,5.64,0,0,0-2.32,2.32l-2,3.47-3.69,6.39-4.4,7.63-4.18,7.24-3,5.22a8.94,8.94,0,0,0-1.67,4.29,5.55,5.55,0,0,0,1.48,3.78,5.41,5.41,0,0,0,3.76,1.71c.28,0,.57,0,.85,0h36a5.44,5.44,0,0,0,4.74-8.23l-.56-1-2.7-4.68-4-7-4.45-7.71-3.88-6.72-2.37-4.1-.32-.56a2.25,2.25,0,0,0-3.89,2.27Z" transform="translate(-250.26 -69.85)"/><path class="cls-5" d="M905.74,187.69l-3.64-3.22a18.35,18.35,0,0,1-13.77,6.45H887v4.85h1.37a23.49,23.49,0,0,0,17.41-8.08Zm0,0" transform="translate(-250.26 -69.85)"/><path class="cls-6" d="M973.41,187.18l-4.8-.7c.27-1.85.58-3.72.91-5.6l4.77.84c-.32,1.84-.62,3.66-.88,5.46Zm0,0" transform="translate(-250.26 -69.85)"/><path class="cls-6" d="M971.77,207.9l-4.84,0a151.26,151.26,0,0,1,1-16.48l4.81.56a149.11,149.11,0,0,0-1,16Zm0,0" transform="translate(-250.26 -69.85)"/><path class="cls-7" d="M964.5,152.15a26.66,26.66,0,1,1,26.66-26.65,26.65,26.65,0,0,1-26.66,26.65Zm0-48.46a21.81,21.81,0,1,0,21.81,21.81,21.8,21.8,0,0,0-21.81-21.81Zm0,0" transform="translate(-250.26 -69.85)"/><path class="cls-4" d="M891.81,159.42a9.7,9.7,0,1,0,9.69-9.69,9.69,9.69,0,0,0-9.69,9.69Zm14.54,0a4.85,4.85,0,1,1-4.85-4.84,4.85,4.85,0,0,1,4.85,4.84Zm0,0" transform="translate(-250.26 -69.85)"/><path class="cls-4" d="M901.5,169.84a10.42,10.42,0,1,1,10.42-10.42A10.43,10.43,0,0,1,901.5,169.84Zm0-19.38a9,9,0,1,0,9,9A9,9,0,0,0,901.5,150.46Zm0,14.54a5.58,5.58,0,1,1,5.58-5.58A5.58,5.58,0,0,1,901.5,165Zm0-9.7a4.12,4.12,0,1,0,4.12,4.12A4.13,4.13,0,0,0,901.5,155.3Z" transform="translate(-250.26 -69.85)"/><path class="cls-2" d="M872.42,186.08h12.12v17a17,17,0,0,0,17,17H979a2.42,2.42,0,0,0,2.43-2.42V209a154.56,154.56,0,0,1,4.17-34.48l-4.73-1.08A160.71,160.71,0,0,0,976.62,209v6.17H901.5A12.11,12.11,0,0,1,889.39,203v-7.33a23.55,23.55,0,0,0,16.35-8l-3.64-3.22a18.44,18.44,0,0,1-12.71,6.39v-7.21a2.42,2.42,0,0,0-2.43-2.42H875.72c2.23-7.16,7.81-24.9,11.55-35.54a4.05,4.05,0,0,0,.12-.5,46.11,46.11,0,0,1,31.8-38l-1.45-4.62a51,51,0,0,0-35.14,41.78c-4.77,13.65-12.41,38.36-12.49,38.62a2.42,2.42,0,0,0,2.31,3.14Zm0,0" transform="translate(-250.26 -69.85)"/><rect class="cls-8" x="619.74" y="4.76" width="145.39" height="145.39"/><path class="cls-4" d="M974.29,181.71l-4.77-.84c-.33,1.89-.64,3.76-.91,5.61l4.8.7c.26-1.8.56-3.62.88-5.47Zm0,0" transform="translate(-250.26 -69.85)"/><path class="cls-4" d="M974,188l-6.23-.91.1-.72c.27-1.83.58-3.72.91-5.63l.13-.71,6.21,1.1-.13.71c-.32,1.81-.62,3.64-.88,5.44Zm-4.58-2.14,3.36.49c.2-1.34.42-2.7.65-4l-3.34-.59C969.87,183.11,969.64,184.5,969.44,185.86Z" transform="translate(-250.26 -69.85)"/><path class="cls-4" d="M966.93,207.87l4.84,0a149.28,149.28,0,0,1,1-16L968,191.4a150.92,150.92,0,0,0-1,16.47Zm0,0" transform="translate(-250.26 -69.85)"/><path class="cls-4" d="M972.49,208.64l-6.3,0v-.73a152.4,152.4,0,0,1,1-16.55l.08-.72,6.26.73-.09.72a150.07,150.07,0,0,0-1,15.87Zm-4.83-1.5,3.39,0c.07-4.86.38-9.76.92-14.58l-3.36-.39C968.05,197.14,967.73,202.16,967.66,207.14Z" transform="translate(-250.26 -69.85)"/><path class="cls-1" d="M964.5,137.61a12.12,12.12,0,1,0-12.11-12.11,12.12,12.12,0,0,0,12.11,12.11Zm0-19.38a7.27,7.27,0,1,1-7.27,7.27,7.26,7.26,0,0,1,7.27-7.27Zm0,0" transform="translate(-250.26 -69.85)"/><path class="cls-1" d="M964.5,152.15a26.66,26.66,0,1,0-26.65-26.65,26.65,26.65,0,0,0,26.65,26.65Zm0-48.46a21.81,21.81,0,1,1-21.8,21.81,21.8,21.8,0,0,1,21.8-21.81Zm0,0" transform="translate(-250.26 -69.85)"/><path class="cls-1" d="M929.91,108c-.32.64-.63,1.29-.92,1.95-.48,1.1-.9,2.24-1.29,3.39h-9.24a4.85,4.85,0,0,0-4.84,4.85v14.54a4.85,4.85,0,0,0,4.84,4.85h9.25a38.19,38.19,0,0,0,2.2,5.34l-6.53,6.53a4.85,4.85,0,0,0,0,6.85l10.28,10.28a4.86,4.86,0,0,0,6.86,0l6.52-6.53c.65.33,1.3.63,2,.92a35.35,35.35,0,0,0,3.39,1.29v9.24a4.85,4.85,0,0,0,4.85,4.84h14.54a4.84,4.84,0,0,0,4.84-4.84v-9.25a37.14,37.14,0,0,0,5.35-2.2l6.52,6.53a4.86,4.86,0,0,0,6.86,0l10.28-10.28a4.86,4.86,0,0,0,0-6.86L999.1,143a38.31,38.31,0,0,0,2.2-5.35h9.24a4.85,4.85,0,0,0,4.85-4.84V118.23a4.85,4.85,0,0,0-4.85-4.85h-9.24a38.19,38.19,0,0,0-2.2-5.34l6.53-6.53a4.85,4.85,0,0,0,0-6.85L995.35,84.37a4.86,4.86,0,0,0-6.86,0L982,90.92a37.24,37.24,0,0,0-5.35-2.22V79.46a4.85,4.85,0,0,0-4.85-4.85H957.23a4.85,4.85,0,0,0-4.84,4.85V88.7q-1.74.57-3.39,1.29c-.66.28-1.32.59-2,.91l-6.52-6.53a4.86,4.86,0,0,0-6.86,0L923.38,94.66a4.85,4.85,0,0,0,0,6.85Zm7.18-20.24,7.8,7.8a2.42,2.42,0,0,0,2.91.39c1-.57,2.06-1.09,3.13-1.56a34.29,34.29,0,0,1,4.53-1.6,2.41,2.41,0,0,0,1.77-2.33v-11h14.54v11a2.42,2.42,0,0,0,1.78,2.33A33.68,33.68,0,0,1,981.21,96a2.42,2.42,0,0,0,2.91-.39l7.8-7.8,10.28,10.28-7.8,7.8a2.42,2.42,0,0,0-.39,2.91,34.14,34.14,0,0,1,3.15,7.66,2.42,2.42,0,0,0,2.33,1.78h11v14.53h-11a2.43,2.43,0,0,0-2.33,1.78,33.68,33.68,0,0,1-3.15,7.66,2.42,2.42,0,0,0,.39,2.91l7.8,7.8-10.28,10.28-7.8-7.79a2.42,2.42,0,0,0-2.91-.39,33.49,33.49,0,0,1-7.66,3.15,2.42,2.42,0,0,0-1.77,2.34v11H957.23v-11a2.42,2.42,0,0,0-1.77-2.34,32.91,32.91,0,0,1-4.53-1.6A30.41,30.41,0,0,1,947.8,155a2.41,2.41,0,0,0-2.91.39l-7.8,7.8-10.28-10.28,7.8-7.79a2.41,2.41,0,0,0,.39-2.9,34.21,34.21,0,0,1-3.15-7.67,2.41,2.41,0,0,0-2.34-1.78h-11V118.23h11a2.42,2.42,0,0,0,2.33-1.78,34.15,34.15,0,0,1,1.6-4.52,32.75,32.75,0,0,1,1.56-3.14,2.42,2.42,0,0,0-.39-2.91l-7.8-7.8Zm0,0" transform="translate(-250.26 -69.85)"/><path class="cls-2" d="M1234.05,113.2a38.1,38.1,0,0,1-14.47,7.44,3.08,3.08,0,0,0,.79,6.06,3.19,3.19,0,0,0,.8-.1A44.35,44.35,0,0,0,1238,118a3.08,3.08,0,0,0-3.91-4.77Z" transform="translate(-250.26 -69.85)"/><path class="cls-2" d="M1298.75,125.78a9.27,9.27,0,0,0-9.26,9.26v1.54a26.25,26.25,0,0,1-21.76,25.83,14.72,14.72,0,0,0,2.56-8.32v-2.15a14.87,14.87,0,0,0-29.74,0v2.15a14.84,14.84,0,0,0,2.43,8.14,26.27,26.27,0,0,1-20.77-25.65V135a9.26,9.26,0,1,0-18.51,0v1.54a44.35,44.35,0,0,0,3.73,17.91h-21V123.42a3.08,3.08,0,0,0-2.24-3,38.75,38.75,0,0,1-28-37.08V81.84a3.09,3.09,0,1,1,6.17,0v1.54a32.43,32.43,0,0,0,32.39,32.39h14.85A32.43,32.43,0,0,0,1242,83.38V81.84a3.09,3.09,0,1,1,6.17,0v1.54a38.36,38.36,0,0,1-2.54,13.76,3.08,3.08,0,1,0,5.76,2.21,44.55,44.55,0,0,0,2.95-16V81.84a9.26,9.26,0,1,0-18.51,0v1.54a26.26,26.26,0,0,1-21.76,25.83,14.79,14.79,0,0,0,2.55-8.32V98.74a14.87,14.87,0,1,0-29.73,0v2.15a14.76,14.76,0,0,0,2.43,8.14,26.28,26.28,0,0,1-20.78-25.65V81.84a9.26,9.26,0,1,0-18.51,0v1.54a44.3,44.3,0,0,0,9.21,27.15,45.12,45.12,0,0,0,21,15.15v31.89a3.09,3.09,0,0,0,3.09,3.09h.56v50.11a3.09,3.09,0,1,0,6.17,0V160.66h20.65c.68,1.05,1.4,2.07,2.17,3.07.2.27.41.53.62.79v46.25a3.09,3.09,0,1,0,6.17,0V170.83a45.34,45.34,0,0,0,14.21,8.06v31.88a3.09,3.09,0,1,0,6.17,0V176.62a3.09,3.09,0,0,0-2.24-3,38.74,38.74,0,0,1-28-37.08V135a3.09,3.09,0,1,1,6.17,0v1.54A32.43,32.43,0,0,0,1248.43,169h14.84a32.43,32.43,0,0,0,32.39-32.39V135a3.09,3.09,0,1,1,6.17,0v1.54a38.62,38.62,0,0,1-28.62,37.26,3.08,3.08,0,0,0-2.29,3v24.39a3.09,3.09,0,1,0,6.17,0V179.12A44.79,44.79,0,0,0,1308,136.58V135A9.26,9.26,0,0,0,1298.75,125.78Zm-105.67-27a8.7,8.7,0,0,1,17.4,0v2.15a8.7,8.7,0,0,1-17.4,0Zm53.64,53.2a8.7,8.7,0,1,1,17.4,0v2.15a8.7,8.7,0,1,1-17.4,0Z" transform="translate(-250.26 -69.85)"/><path class="cls-2" d="M1201.78,171.29a3.08,3.08,0,0,0-3.08,3.09v36.39a3.09,3.09,0,1,0,6.17,0V174.38A3.09,3.09,0,0,0,1201.78,171.29Z" transform="translate(-250.26 -69.85)"/><path class="cls-9" d="M1263.81,88.3,1232,72.43c-1.53-.76-3.09-.77-3.47,0s.56,2,2.1,2.76l31.83,15.87c1.54.77,3.09.77,3.47,0S1265.35,89.07,1263.81,88.3Z" transform="translate(-250.26 -69.85)"/><polygon class="cls-1" points="993.11 36.71 994.22 39.94 990.62 39.05 993.11 36.71"/><path class="cls-1" d="M1241.58,107.06l1,2.82.14.4L1245,108l-3.16-.78-.44-.11.82,3.1,2.17-2,.31-.29a1.86,1.86,0,0,0,0-2.62,1.86,1.86,0,0,0-1.31-.54,2,2,0,0,0-1.31.54l-2.17,2-.31.29a1.86,1.86,0,0,0,.81,3.09l3.16.78.44.11a1.89,1.89,0,0,0,1.8-.48,1.83,1.83,0,0,0,.48-1.8l-1-2.82-.14-.4a2,2,0,0,0-.85-1.11,1.9,1.9,0,0,0-1.42-.19,1.94,1.94,0,0,0-1.11.85A1.89,1.89,0,0,0,1241.58,107.06Z" transform="translate(-250.26 -69.85)"/><polygon class="cls-1" points="1023.29 137.74 1025.14 140.61 1021.43 140.61 1023.29 137.74"/><path class="cls-1" d="M1272,208.53l1.62,2.5.23.37,1.6-2.79h-3.7l1.6,2.79,1.61-2.5.24-.37a1.86,1.86,0,0,0-.67-2.53,1.89,1.89,0,0,0-2.53.66l-1.62,2.5-.23.37a1.85,1.85,0,0,0,1.6,2.78h3.7a1.87,1.87,0,0,0,1.6-.91,1.84,1.84,0,0,0,0-1.87l-1.62-2.5-.23-.37a2,2,0,0,0-1.11-.85,1.9,1.9,0,0,0-1.42.19,1.82,1.82,0,0,0-.85,1.11A1.85,1.85,0,0,0,1272,208.53Z" transform="translate(-250.26 -69.85)"/><path class="cls-10" d="M358,679.23a10.12,10.12,0,1,0-10.12-10.12A10.13,10.13,0,0,0,358,679.23Zm0-15.18a5.06,5.06,0,1,1-5.06,5.06A5.07,5.07,0,0,1,358,664.05Z" transform="translate(-250.26 -69.85)"/><path class="cls-10" d="M358,679.68a10.57,10.57,0,1,1,10.57-10.57A10.58,10.58,0,0,1,358,679.68Zm0-20.25a9.68,9.68,0,1,0,9.68,9.68A9.69,9.69,0,0,0,358,659.43Zm0,15.19a5.51,5.51,0,1,1,5.51-5.51A5.51,5.51,0,0,1,358,674.62Zm0-10.13a4.62,4.62,0,1,0,4.62,4.62A4.63,4.63,0,0,0,358,664.49Z" transform="translate(-250.26 -69.85)"/><path class="cls-10" d="M312.05,768.2a10.13,10.13,0,1,0-10.12-10.12A10.13,10.13,0,0,0,312.05,768.2Zm0-15.18a5.06,5.06,0,1,1-5.06,5.06A5.06,5.06,0,0,1,312.05,753Z" transform="translate(-250.26 -69.85)"/><path class="cls-10" d="M312.05,768.64a10.57,10.57,0,1,1,10.56-10.56A10.58,10.58,0,0,1,312.05,768.64Zm0-20.24a9.68,9.68,0,1,0,9.67,9.68A9.69,9.69,0,0,0,312.05,748.4Zm0,15.18a5.51,5.51,0,1,1,5.5-5.5A5.51,5.51,0,0,1,312.05,763.58Zm0-10.12a4.62,4.62,0,1,0,4.61,4.62A4.62,4.62,0,0,0,312.05,753.46Z" transform="translate(-250.26 -69.85)"/><path class="cls-10" d="M403.68,748a10.13,10.13,0,1,0,10.12,10.13A10.13,10.13,0,0,0,403.68,748Zm0,15.19a5.06,5.06,0,1,1,5.06-5.06A5.07,5.07,0,0,1,403.68,763.14Z" transform="translate(-250.26 -69.85)"/><path class="cls-10" d="M403.68,768.64a10.57,10.57,0,1,1,10.57-10.56A10.58,10.58,0,0,1,403.68,768.64Zm0-20.24a9.68,9.68,0,1,0,9.68,9.68A9.69,9.69,0,0,0,403.68,748.4Zm0,15.18a5.51,5.51,0,1,1,5.51-5.5A5.51,5.51,0,0,1,403.68,763.58Zm0-10.12a4.62,4.62,0,1,0,4.62,4.62A4.62,4.62,0,0,0,403.68,753.46Z" transform="translate(-250.26 -69.85)"/><path class="cls-10" d="M404.71,793.48l.75,0h.07a27.82,27.82,0,0,0,23-40.31l.05,0L383.5,665.52a27,27,0,0,0-1.53-3l-.25-.47h0a27.83,27.83,0,0,0-47.37,0l-.08,0L287.81,752a27.81,27.81,0,0,0,22.39,41.44h.07l.75,0h1.15v.06H403.8v-.06h.91Zm-102.78-7.43v-5.16a2.68,2.68,0,0,1,2.78-2.57h14.68a2.68,2.68,0,0,1,2.78,2.57v5.16A22.92,22.92,0,0,1,301.93,786.05Zm28.5-105.61a27.89,27.89,0,0,0,25.73,24h.07l.76,0h.17l.85,0,.85,0H359l.75,0h.07a27.9,27.9,0,0,0,25.72-23.91l31.14,60.51a27.83,27.83,0,0,0-28.49,47.73H327.5A27.83,27.83,0,0,0,299.16,741Zm37.71,16.65a23,23,0,0,1-20.25,0v-5.16a2.68,2.68,0,0,1,2.78-2.57h14.68a2.69,2.69,0,0,1,2.79,2.57Zm25.42,89v-5.16a2.68,2.68,0,0,1,2.78-2.57H411a2.68,2.68,0,0,1,2.78,2.57v5.16A22.92,22.92,0,0,1,393.56,786.05Zm25.31-3.42v-1.74a7.75,7.75,0,0,0-7.85-7.63H396.34a7.75,7.75,0,0,0-7.84,7.63v1.74a22.78,22.78,0,1,1,30.37,0ZM358,653.93a22.79,22.79,0,0,1,19.73,11.41l1,2a22.74,22.74,0,0,1-5.56,26.35v-1.73a7.76,7.76,0,0,0-7.85-7.64H350.67a7.75,7.75,0,0,0-7.84,7.63v1.74A22.76,22.76,0,0,1,358,653.93ZM289.27,765.67a22.78,22.78,0,1,1,38,17v-1.74a7.75,7.75,0,0,0-7.84-7.63H304.71a7.75,7.75,0,0,0-7.85,7.63v1.74A22.76,22.76,0,0,1,289.27,765.67Z" transform="translate(-250.26 -69.85)"/><path class="cls-10" d="M404.25,794H311.72v0l-.54,0H311l-.77,0h-.07a28.28,28.28,0,0,1-22.75-42.11l46.63-90.32.11.06a28.26,28.26,0,0,1,47.69,0l.07,0,.45.87a29.17,29.17,0,0,1,1.54,3l45.27,88-.06,0A27.81,27.81,0,0,1,432,765.67a28.34,28.34,0,0,1-26.4,28.22h-.07l-.77,0h-.47Zm-91.64-.89h90.75v-.05h1.33l.74,0h.07a27.45,27.45,0,0,0,25.57-27.33,27.06,27.06,0,0,0-2.94-12.34l-.2-.39.05,0-44.88-87.2a27.27,27.27,0,0,0-1.51-3l-.06-.1h0l-.22-.35a27.37,27.37,0,0,0-46.61,0l-.22.35-.05,0L288.2,752.2a27.39,27.39,0,0,0,22,40.8h.07l.74,0h1.57Zm77.08-3.85H326l1.22-.82a27.38,27.38,0,0,0-27.88-47l-1.25.65L330.68,679l.19,1.4A27.45,27.45,0,0,0,356.19,704h.07l.74,0h.18c.55,0,1.11,0,1.67,0H359l.74,0h.07a27.48,27.48,0,0,0,25.31-23.52l.19-1.39,32.44,63-1.26-.67a27.38,27.38,0,0,0-28,47Zm-60.79-.89h57.93a28.28,28.28,0,0,1,28.87-48.3L385.8,682a28.4,28.4,0,0,1-25.91,22.95h-.07l-.77,0h-.17c-.58,0-1.16,0-1.73,0H357l-.76,0h-.08a28.36,28.36,0,0,1-25.93-23.07l-30,58.15a28.28,28.28,0,0,1,28.73,48.37Zm74.78.49a23.16,23.16,0,0,1-10.32-2.41l-.25-.12v-5.44a3.13,3.13,0,0,1,3.23-3H411a3.13,3.13,0,0,1,3.23,3v5.44l-.25.12A23.13,23.13,0,0,1,403.68,788.86ZM394,785.77a22.35,22.35,0,0,0,19.36,0v-4.88a2.24,2.24,0,0,0-2.34-2.12H396.34a2.24,2.24,0,0,0-2.34,2.12Zm-81.95,3.09a23.13,23.13,0,0,1-10.32-2.41l-.25-.12v-5.44a3.13,3.13,0,0,1,3.23-3h14.68a3.12,3.12,0,0,1,3.22,3v5.44l-.24.12A23.16,23.16,0,0,1,312.05,788.86Zm-9.68-3.09a22.33,22.33,0,0,0,19.35,0v-4.88a2.23,2.23,0,0,0-2.33-2.12H304.71a2.24,2.24,0,0,0-2.34,2.12Zm86.57-2.15-.74-.66a23.22,23.22,0,1,1,31,0l-.74.66v-2.73a7.31,7.31,0,0,0-7.4-7.19H396.34a7.31,7.31,0,0,0-7.4,7.19Zm7.4-10.81H411a8.2,8.2,0,0,1,8.29,8.08v.71a22.33,22.33,0,1,0-31.26,0v-.71A8.2,8.2,0,0,1,396.34,772.81Zm-99,10.81-.74-.66a23.22,23.22,0,1,1,31,0l-.74.66v-2.73a7.31,7.31,0,0,0-7.4-7.19H304.71a7.31,7.31,0,0,0-7.4,7.19Zm7.4-10.81h14.68a8.2,8.2,0,0,1,8.29,8.08v.71a22.33,22.33,0,1,0-31.26,0v-.71A8.2,8.2,0,0,1,304.71,772.81ZM358,699.9a23.17,23.17,0,0,1-10.32-2.42l-.24-.12v-5.43a3.12,3.12,0,0,1,3.22-3h14.68a3.13,3.13,0,0,1,3.23,3v5.43l-.25.12A23.14,23.14,0,0,1,358,699.9Zm-9.67-3.09a22.4,22.4,0,0,0,19.35,0v-4.88a2.24,2.24,0,0,0-2.34-2.13H350.67a2.23,2.23,0,0,0-2.33,2.13Zm-5.07-2.15-.74-.67a23.21,23.21,0,1,1,35.6-28.87l1,2a22.94,22.94,0,0,1,2.08,9.59A23.25,23.25,0,0,1,373.49,694l-.74.67v-2.73a7.3,7.3,0,0,0-7.4-7.19H350.67a7.3,7.3,0,0,0-7.4,7.18Zm7.4-10.81h14.68a8.19,8.19,0,0,1,8.29,8.08v.7a22.28,22.28,0,0,0,4.71-25.13l-1-2a22.32,22.32,0,1,0-35,27.08v-.71A8.19,8.19,0,0,1,350.67,683.85Z" transform="translate(-250.26 -69.85)"/><path class="cls-11" d="M726.17,686.71h0l-9.77-1.39a2.51,2.51,0,0,1-1.15-4.49l7.9-5.93a2.51,2.51,0,0,0,.5-3.51h0l-9-12a2.52,2.52,0,0,0-3.52-.51l-7.89,5.92a2.51,2.51,0,0,1-3.52-.48,2.48,2.48,0,0,1-.48-1.9l1.39-9.75a2.51,2.51,0,0,0-2.12-2.84h0l-14.9-2.13a2.52,2.52,0,0,0-2.85,2.13h0l-1.39,9.77a2.51,2.51,0,0,1-2.84,2.13,2.48,2.48,0,0,1-1.66-1l-5.91-7.89a2.52,2.52,0,0,0-3.52-.51L657.85,658a49,49,0,0,0-10.27,0,47.72,47.72,0,0,0-42.06,42.78c-.07.71-.1,1.42-.13,2.12h-.75a2.51,2.51,0,0,0-2.46,2l-1.74,8.25-6.94-4.79a2.52,2.52,0,0,0-3.21.29l-7.53,7.53a2.52,2.52,0,0,0-.29,3.2l4.76,6.94L579,728a2.52,2.52,0,0,0-2,2.46v10a2.51,2.51,0,0,0,2,2.46l8.26,1.74-4.76,6.93a2.5,2.5,0,0,0,.29,3.2l7.53,7.53a2.5,2.5,0,0,0,3.2.29l6.94-4.79,1.74,8.26a2.52,2.52,0,0,0,2.45,2h10a2.53,2.53,0,0,0,2.46-2l1.73-8.25,6.94,4.75a2.5,2.5,0,0,0,3.2-.29l3.9-3.88v7.15a10,10,0,0,0,5,8.65v6.42h5v-5H663v5h5v-6.42a10,10,0,0,0,5-8.65V755.7a12.31,12.31,0,0,1,5.81-10.25,49.93,49.93,0,0,0,5.91-4.52l-3.35-3.74a44.1,44.1,0,0,1-5.29,4,17.28,17.28,0,0,0-8.1,14.46v9.94a5,5,0,0,1-5,5H643a5,5,0,0,1-5-5V755.49a16.89,16.89,0,0,0-8-14.18,42.55,42.55,0,0,1,22.49-78.58l-.1.27a2.52,2.52,0,0,0,.48,1.86l5.92,7.89a2.51,2.51,0,0,1-2.36,4l-9.77-1.39a2.51,2.51,0,0,0-2.84,2.13h0l-2.13,14.91a2.51,2.51,0,0,0,2.13,2.84h0l9.76,1.4a2.51,2.51,0,0,1,1.18,4.5l-7.9,5.92a2.51,2.51,0,0,0-.5,3.51h0l9,12.05a2.51,2.51,0,0,0,3.5.5l7.89-5.92a2.51,2.51,0,0,1,4,2.38l-1.39,9.77a2.51,2.51,0,0,0,2.13,2.84l14.91,2.13.34,0a2.52,2.52,0,0,0,2.49-2.15l1.39-9.77a2.52,2.52,0,0,1,2.84-2.14,2.56,2.56,0,0,1,1.66,1l5.92,7.89a2.51,2.51,0,0,0,3.51.51l12.05-9a2.51,2.51,0,0,0,.51-3.51h0l-5.92-7.89a2.51,2.51,0,0,1,2.36-4l9.77,1.39a2.51,2.51,0,0,0,2.84-2.12h0l2.13-14.92A2.52,2.52,0,0,0,726.17,686.71ZM623,742.43a47,47,0,0,0,4.29,3.13,12.18,12.18,0,0,1,5,6.43l-5.38,5.37-5.22-3.6a5,5,0,0,0-7,1.3,4.9,4.9,0,0,0-.76,1.79l-1.32,6.27h-6l-1.31-6.25a5,5,0,0,0-5.94-3.89,5.08,5.08,0,0,0-1.82.78l-5.23,3.59-4.58-4.57,3.6-5.21a5,5,0,0,0-1.29-7,5,5,0,0,0-1.81-.78L582,738.48v-6l6.25-1.32a5,5,0,0,0,3.88-5.94,4.94,4.94,0,0,0-.77-1.81l-3.61-5.23,4.58-4.56,5.22,3.6a5,5,0,0,0,7-1.29,5.26,5.26,0,0,0,.78-1.82l.43-2.09a47.74,47.74,0,0,0,2,8.52A15.06,15.06,0,1,0,623,742.42Zm-3.9-3.53a10,10,0,1,1-9.41-13.43h.09a47.41,47.41,0,0,0,9.32,13.41Zm102.47-37.64-7.28-1a7.53,7.53,0,0,0-7.09,12l4.42,5.88-8,6-4.42-5.88a7.54,7.54,0,0,0-13.49,3.43l-1,7.29-9.93-1.42,1-7.28a7.54,7.54,0,0,0-12-7.09l-5.88,4.42-6-8,5.88-4.42a7.54,7.54,0,0,0-3.45-13.48l-7.28-1,1.42-9.93,7.28,1a7.54,7.54,0,0,0,7.09-12l-4.42-5.89,8-6,4.42,5.89a7.53,7.53,0,0,0,13.46-3.47l1-7.28,9.94,1.42-1,7.29a7.53,7.53,0,0,0,12,7.09l5.89-4.42,6,8-5.88,4.42a7.53,7.53,0,0,0,3.45,13.48l7.28,1Z" transform="translate(-250.26 -69.85)"/><path class="cls-11" d="M685,670.89A20.09,20.09,0,1,0,705.05,691h0A20.08,20.08,0,0,0,685,670.89ZM685,706A15.07,15.07,0,1,1,700,691h0A15.07,15.07,0,0,1,685,706Z" transform="translate(-250.26 -69.85)"/><path class="cls-11" d="M703.22,740.53h12.55a2.51,2.51,0,0,1,2.51,2.51h0a2.51,2.51,0,0,1-2.51,2.51H703.22A2.52,2.52,0,0,1,700.7,743h0A2.51,2.51,0,0,1,703.22,740.53Z" transform="translate(-250.26 -69.85)"/><path class="cls-11" d="M698.19,755.59h0a2.52,2.52,0,0,1,3.54-.32l11.2,9.34a2.51,2.51,0,0,1,.33,3.53h0a2.52,2.52,0,0,1-3.54.33l-11.21-9.34A2.52,2.52,0,0,1,698.19,755.59Z" transform="translate(-250.26 -69.85)"/><path class="cls-11" d="M688.15,760.61h0a2.51,2.51,0,0,1,2.51,2.51v12.56a2.51,2.51,0,0,1-2.51,2.51h0a2.51,2.51,0,0,1-2.51-2.51V763.12A2.51,2.51,0,0,1,688.15,760.61Z" transform="translate(-250.26 -69.85)"/><rect class="cls-11" x="579.88" y="687.8" width="20.7" height="5.02" rx="2.51" transform="translate(-400.1 93.96) rotate(-14.04)"/><path class="cls-11" d="M585.21,662.69h0a2.52,2.52,0,0,1,3.5-.58l13.49,9.64a2.5,2.5,0,0,1,.58,3.5h0a2.5,2.5,0,0,1-3.5.58l-13.49-9.64A2.5,2.5,0,0,1,585.21,662.69Z" transform="translate(-250.26 -69.85)"/><path class="cls-11" d="M607.69,647.63h0a2.51,2.51,0,0,1,3.06,1.81l3.89,15.22a2.51,2.51,0,0,1-1.81,3.05h0a2.52,2.52,0,0,1-3.06-1.81l-3.89-15.22A2.51,2.51,0,0,1,607.69,647.63Z" transform="translate(-250.26 -69.85)"/><polyline class="cls-11" points="424.08 710.84 417.8 710.84 412.78 710.84 392.69 710.84 387.67 710.84 381.39 710.84"/><path class="cls-11" d="M655.44,796.21l-12.15-16.74L640.85,783h24.3l-2.44-3.54-12.15,16.74c-1.88,2.59,3,5,4.89,2.37l12.15-16.73c1.11-1.53-.32-3.53-2.44-3.53H640.85c-2.12,0-3.55,2-2.44,3.53l12.15,16.73C652.44,801.16,657.32,798.8,655.44,796.21Z" transform="translate(-250.26 -69.85)"/><path class="cls-2" d="M1581.26,201.67a13.48,13.48,0,0,0-12.87-10.28c-1.24,0-2.49,0-3.79,0V164.48c0-2.49-.94-3.41-3.45-3.41h-21c-2.53,0-3.44.91-3.45,3.4v26.8h-23.29v-1.71c0-11.24,0-22.48,0-33.72a21.62,21.62,0,0,0-14-20.47,5,5,0,0,1-1.57-1q-7.9-7.5-15.81-15a6.71,6.71,0,0,0-1.14-.73c.47-.44.67-.55.87-.57l22.71-2.75c9.22-1.11,18.45-2.17,27.66-3.39,2.46-.34,4.69-.59,6.34,1.72.28.38.87.71.88,1.07.08,2.78,0,5.57,0,8.45a16.69,16.69,0,0,1-1.75,0,3.46,3.46,0,0,0-3.82,2.32c-1.5,3.23-3.16,6.38-4.74,9.57-.83,1.68-.69,2.58.61,3.9,1.8,1.83,3.63,3.64,5.45,5.45s3.38,3.4,5.1,5.06a2.24,2.24,0,0,0,3,.46,3.85,3.85,0,0,0,1.5-2.32,3.44,3.44,0,0,0-1.07-2.32c-2.72-2.84-5.51-5.6-8.32-8.35a1.22,1.22,0,0,1-.28-1.73c1-1.87,1.94-3.76,2.84-5.68a1.44,1.44,0,0,1,1.54-.95q10.83,0,21.66,0a1.43,1.43,0,0,1,1.52,1c.89,1.87,1.79,3.74,2.79,5.55a1.37,1.37,0,0,1-.37,2c-2.74,2.68-5.44,5.4-8.15,8.13-1.47,1.48-1.6,3.08-.39,4.26s2.73,1,4.17-.38q5-5,10-10.06c1.39-1.39,1.53-2.25.67-4-1.42-2.87-3-5.66-4.25-8.61-1-2.48-2.58-3.7-5.29-3.25a3.14,3.14,0,0,1-.76-.05c0-2.55,0-5,0-7.49a2.32,2.32,0,0,1,1-2c5.75-4.85,8.24-11,6.76-18.45s-6.19-12.34-13.51-14.6c-.93-.28-1.9-.47-2.85-.7h-4.34a5,5,0,0,1-.75.24,18.49,18.49,0,0,0-13.12,8.67,2.14,2.14,0,0,1-2,1.12q-32.22.65-64.44,1.33a9.63,9.63,0,0,1-2.14-.19,19,19,0,1,0-6.17,37.4,3.39,3.39,0,0,1,2.06.95c3.77,4.73,7.46,9.52,11.12,14.33a1.7,1.7,0,0,1,.16,1.5,23.47,23.47,0,0,0-2.68,11.32c0,11.06,0,22.12,0,33.18v1.69h-1.63c-4.1,0-8.21-.05-12.32,0a13.54,13.54,0,1,0,.88,27.07h110.63c.36,0,.72,0,1.08,0A13.56,13.56,0,0,0,1581.26,201.67Zm-25.67-78.55c-.39,0-.69,0-1,0h-9.67V117a19.26,19.26,0,0,0,10.67,0Zm-5.37-37.87a13.54,13.54,0,1,1-13.5,13.52A13.58,13.58,0,0,1,1550.22,85.25Zm-8,81.34h16.89V191.4h-16.18a6.54,6.54,0,0,1-.71,0ZM1508,155.69a16.25,16.25,0,1,1-16.24-16.28A16.33,16.33,0,0,1,1508,155.69Zm-.08,14.68V191.3h-32.38v-21C1486.34,179.73,1497.1,179.78,1507.93,170.37Zm23.7-75.1a19.45,19.45,0,0,0,1.23,11.13l-52.15,6.35a19.54,19.54,0,0,0-5-16.3ZM1462,123.07a13.45,13.45,0,0,1-13.55-13,13.54,13.54,0,0,1,27.06-1C1475.74,117.91,1468.35,123.42,1462,123.07Zm5.24,4.77a19.59,19.59,0,0,0,9.37-6.2l13,12.4a22.75,22.75,0,0,0-12.91,6ZM1568.37,213c-.36,0-.72,0-1.08,0H1457.37a8.67,8.67,0,0,1-6.62-2.52,7.9,7.9,0,0,1-1.61-8.77,7.82,7.82,0,0,1,7.58-4.93q27,0,54,0h57a8.11,8.11,0,1,1,.65,16.2Z" transform="translate(-250.26 -69.85)"/><path class="cls-4" d="M1491.76,144.83a10.83,10.83,0,1,0,10.83,10.85A10.84,10.84,0,0,0,1491.76,144.83Zm0,16.23a5.41,5.41,0,1,1,5.38-5.44A5.45,5.45,0,0,1,1491.79,161.06Z" transform="translate(-250.26 -69.85)"/><path class="cls-4" d="M1550.25,90.67a8.12,8.12,0,1,0,8.12,8.09A8.13,8.13,0,0,0,1550.25,90.67Zm0,10.81a2.7,2.7,0,1,1,0-5.39,2.7,2.7,0,1,1,0,5.39Z" transform="translate(-250.26 -69.85)"/><path class="cls-4" d="M1461.93,101.5a8.12,8.12,0,1,0,8.16,8A8.15,8.15,0,0,0,1461.93,101.5Zm0,10.82a2.7,2.7,0,1,1,.19-5.4,2.7,2.7,0,0,1-.19,5.4Z" transform="translate(-250.26 -69.85)"/><path class="cls-1" d="M1457.72,204.51l.28.43a.92.92,0,0,1-.77,1.41h-.55a.91.91,0,0,1-.76-1.41l.27-.43A.92.92,0,0,1,1457.72,204.51Z" transform="translate(-250.26 -69.85)"/><path class="cls-1" d="M1456,205.49c.08.13.16.26.25.38s.1.35,0-.13a1.11,1.11,0,0,1,0-.65c-.06.19,0,.12.1-.2-.11.17-.06.11.13-.17a1.13,1.13,0,0,1,.53-.3c-.34.1.41,0,.16,0a1.68,1.68,0,0,0-.5,0c.34.07.41.07.21,0a1,1,0,0,1,.53.3c.2.28.24.34.14.17.12.32.15.39.1.2a1.11,1.11,0,0,1,0,.65c-.15.3-.18.36-.08.18a1.3,1.3,0,0,0,.1-.15c0-.08.11-.15.15-.23l0,0a1,1,0,0,1-.4.41c-.32.12-.38.15-.19.09a1,1,0,0,1-.65,0c.2.06.13,0-.19-.09a1.05,1.05,0,0,1-.4-.41,2.16,2.16,0,0,0,1.16.9,2,2,0,0,0,1.5-.2,2,2,0,0,0,.7-2.66,3,3,0,0,0-2.54-1.37,2.92,2.92,0,0,0-2.37,1.42,3.32,3.32,0,0,0-.66,1.74,2.88,2.88,0,0,0,1.31,2.52,3.56,3.56,0,0,0,4.1-.37,2.94,2.94,0,0,0,.76-2.77,4.32,4.32,0,0,0-.6-1.17,1.94,1.94,0,1,0-3.36,2Z" transform="translate(-250.26 -69.85)"/><path class="cls-1" d="M1475.86,204.51l.28.43a.91.91,0,0,1-.76,1.41h-.56a.91.91,0,0,1-.76-1.41l.28-.43A.91.91,0,0,1,1475.86,204.51Z" transform="translate(-250.26 -69.85)"/><path class="cls-1" d="M1474.19,205.49l.24.38c.1.15.1.35,0-.13a1.11,1.11,0,0,1,0-.65c-.05.19,0,.12.1-.2-.11.17-.06.11.13-.17a1.13,1.13,0,0,1,.53-.3c-.34.1.41,0,.16,0a1.68,1.68,0,0,0-.5,0c.34.07.41.07.22,0a1.13,1.13,0,0,1,.53.3c.19.28.23.34.13.17.12.32.15.39.1.2a1.11,1.11,0,0,1,0,.65c-.15.3-.17.36-.07.18a1.3,1.3,0,0,1,.1-.15l.15-.23,0,0a.93.93,0,0,1-.4.41c-.32.12-.38.15-.19.09a1,1,0,0,1-.64,0c.19.06.12,0-.19-.09a.93.93,0,0,1-.4-.41,2.09,2.09,0,0,0,1.16.9,2,2,0,0,0,1.49-.2,2,2,0,0,0,.7-2.66,3,3,0,0,0-2.54-1.37,2.92,2.92,0,0,0-2.37,1.42,3.32,3.32,0,0,0-.66,1.74,2.91,2.91,0,0,0,1.31,2.52,3.56,3.56,0,0,0,4.1-.37,2.92,2.92,0,0,0,.76-2.77,4.06,4.06,0,0,0-.6-1.17,2,2,0,0,0-2.66-.7A2,2,0,0,0,1474.19,205.49Z" transform="translate(-250.26 -69.85)"/><path class="cls-1" d="M1495,204.51l.28.43a.92.92,0,0,1-.77,1.41h-.55a.92.92,0,0,1-.77-1.41l.28-.43A.92.92,0,0,1,1495,204.51Z" transform="translate(-250.26 -69.85)"/><path class="cls-1" d="M1493.3,205.49c.08.13.16.26.25.38s.1.35,0-.13a1.19,1.19,0,0,1,0-.65c0,.19,0,.12.1-.2-.1.17-.06.11.14-.17a1.08,1.08,0,0,1,.53-.3c-.34.1.4,0,.15,0a1.61,1.61,0,0,0-.49,0c.34.07.41.07.21,0a1.08,1.08,0,0,1,.53.3c.2.28.24.34.13.17.12.32.16.39.11.2a1.11,1.11,0,0,1,0,.65c-.14.3-.17.36-.07.18a1.3,1.3,0,0,0,.1-.15l.15-.23,0,0a1.05,1.05,0,0,1-.4.41c-.32.12-.38.15-.19.09a1,1,0,0,1-.65,0c.19.06.13,0-.19-.09a1.05,1.05,0,0,1-.4-.41,2.16,2.16,0,0,0,1.16.9,2,2,0,0,0,1.5-.2,2,2,0,0,0,.7-2.66,3,3,0,0,0-2.54-1.37,3,3,0,0,0-2.38,1.42,3.4,3.4,0,0,0-.65,1.74,2.88,2.88,0,0,0,1.31,2.52,3.56,3.56,0,0,0,4.1-.37,2.92,2.92,0,0,0,.75-2.77,4.29,4.29,0,0,0-.59-1.17,1.94,1.94,0,1,0-3.36,2Z" transform="translate(-250.26 -69.85)"/><path class="cls-1" d="M1513.12,204.51l.28.43a.91.91,0,0,1-.76,1.41h-.56a.91.91,0,0,1-.76-1.41l.27-.43A.92.92,0,0,1,1513.12,204.51Z" transform="translate(-250.26 -69.85)"/><path class="cls-1" d="M1511.44,205.49l.25.38c.1.15.1.35,0-.13a1.11,1.11,0,0,1,0-.65c-.06.19,0,.12.1-.2-.11.17-.06.11.13-.17a1.13,1.13,0,0,1,.53-.3c-.34.1.41,0,.16,0a1.68,1.68,0,0,0-.5,0c.34.07.41.07.21,0a1,1,0,0,1,.53.3c.2.28.24.34.14.17.12.32.15.39.1.2a1.11,1.11,0,0,1,0,.65c-.15.3-.17.36-.07.18l.09-.15c.05-.08.11-.15.15-.23l0,0a1,1,0,0,1-.4.41c-.32.12-.38.15-.19.09a1,1,0,0,1-.65,0c.2.06.13,0-.19-.09a1.05,1.05,0,0,1-.4-.41,2.16,2.16,0,0,0,1.16.9,2,2,0,0,0,1.5-.2,2,2,0,0,0,.7-2.66,3,3,0,0,0-2.54-1.37,2.92,2.92,0,0,0-2.37,1.42,3.32,3.32,0,0,0-.66,1.74,2.88,2.88,0,0,0,1.31,2.52,3.56,3.56,0,0,0,4.1-.37,2.94,2.94,0,0,0,.76-2.77,4.32,4.32,0,0,0-.6-1.17,1.94,1.94,0,1,0-3.36,2Z" transform="translate(-250.26 -69.85)"/><path class="cls-1" d="M1513.12,204.51l.28.43a.91.91,0,0,1-.76,1.41h-.56a.91.91,0,0,1-.76-1.41l.27-.43A.92.92,0,0,1,1513.12,204.51Z" transform="translate(-250.26 -69.85)"/><path class="cls-1" d="M1511.44,205.49l.25.38c.1.15.1.35,0-.13a1.11,1.11,0,0,1,0-.65c-.06.19,0,.12.1-.2-.11.17-.06.11.13-.17a1.13,1.13,0,0,1,.53-.3c-.34.1.41,0,.16,0a1.68,1.68,0,0,0-.5,0c.34.07.41.07.21,0a1,1,0,0,1,.53.3c.2.28.24.34.14.17.12.32.15.39.1.2a1.11,1.11,0,0,1,0,.65c-.15.3-.17.36-.07.18l.09-.15c.05-.08.11-.15.15-.23l0,0a1,1,0,0,1-.4.41c-.32.12-.38.15-.19.09a1,1,0,0,1-.65,0c.2.06.13,0-.19-.09a1.05,1.05,0,0,1-.4-.41,2.16,2.16,0,0,0,1.16.9,2,2,0,0,0,1.5-.2,2,2,0,0,0,.7-2.66,3,3,0,0,0-2.54-1.37,2.92,2.92,0,0,0-2.37,1.42,3.32,3.32,0,0,0-.66,1.74,2.88,2.88,0,0,0,1.31,2.52,3.56,3.56,0,0,0,4.1-.37,2.94,2.94,0,0,0,.76-2.77,4.32,4.32,0,0,0-.6-1.17,1.94,1.94,0,1,0-3.36,2Z" transform="translate(-250.26 -69.85)"/><path class="cls-1" d="M1531.26,204.51l.28.43a.91.91,0,0,1-.76,1.41h-.56a.91.91,0,0,1-.76-1.41l.28-.43A.91.91,0,0,1,1531.26,204.51Z" transform="translate(-250.26 -69.85)"/><path class="cls-1" d="M1529.59,205.49l.24.38c.1.15.1.35,0-.13a1.11,1.11,0,0,1,0-.65c0,.19,0,.12.1-.2-.1.17-.06.11.13-.17a1.11,1.11,0,0,1,.54-.3c-.35.1.4,0,.15,0a1.68,1.68,0,0,0-.5,0c.34.07.41.07.22,0a1.13,1.13,0,0,1,.53.3c.19.28.24.34.13.17.12.32.15.39.1.2a1.11,1.11,0,0,1,0,.65c-.15.3-.17.36-.07.18a1.3,1.3,0,0,1,.1-.15l.15-.23,0,0a1,1,0,0,1-.41.41c-.31.12-.38.15-.19.09a1,1,0,0,1-.64,0c.19.06.13,0-.19-.09a1,1,0,0,1-.4-.41,2.16,2.16,0,0,0,1.16.9,2,2,0,0,0,1.5-.2,2,2,0,0,0,.69-2.66,2.86,2.86,0,0,0-4.91.05,3.32,3.32,0,0,0-.66,1.74,2.93,2.93,0,0,0,1.31,2.52,3.56,3.56,0,0,0,4.1-.37,2.9,2.9,0,0,0,.76-2.77,4.06,4.06,0,0,0-.6-1.17,2,2,0,0,0-2.66-.7A2,2,0,0,0,1529.59,205.49Z" transform="translate(-250.26 -69.85)"/><path class="cls-1" d="M1550.38,204.51l.28.43a.92.92,0,0,1-.77,1.41h-.55a.92.92,0,0,1-.77-1.41l.28-.43A.92.92,0,0,1,1550.38,204.51Z" transform="translate(-250.26 -69.85)"/><path class="cls-1" d="M1548.7,205.49c.08.13.16.26.25.38s.1.35,0-.13a1.11,1.11,0,0,1,0-.65c-.05.19,0,.12.11-.2-.11.17-.07.11.13-.17a1.08,1.08,0,0,1,.53-.3c-.34.1.41,0,.16,0a1.68,1.68,0,0,0-.5,0c.34.07.41.07.21,0a1.08,1.08,0,0,1,.53.3c.2.28.24.34.14.17.12.32.15.39.1.2a1.19,1.19,0,0,1,0,.65c-.15.3-.18.36-.08.18a1.3,1.3,0,0,0,.1-.15l.15-.23,0,0a1.05,1.05,0,0,1-.4.41c-.32.12-.38.15-.19.09a1,1,0,0,1-.65,0c.19.06.13,0-.19-.09a1.05,1.05,0,0,1-.4-.41,2.16,2.16,0,0,0,1.16.9,2,2,0,0,0,1.5-.2,2,2,0,0,0,.7-2.66,3,3,0,0,0-2.54-1.37,3,3,0,0,0-2.38,1.42,3.4,3.4,0,0,0-.65,1.74,2.88,2.88,0,0,0,1.31,2.52,3.56,3.56,0,0,0,4.1-.37,2.92,2.92,0,0,0,.75-2.77,4.29,4.29,0,0,0-.59-1.17,1.94,1.94,0,1,0-3.36,2Z" transform="translate(-250.26 -69.85)"/><polygon class="cls-1" points="1300.32 104.25 1305.2 111.74 1295.45 111.74 1300.32 104.25"/><path class="cls-1" d="M1548.91,175.09l4.87,7.49,1.68-2.93h-9.75l1.68,2.93,4.88-7.49c1.36-2.1-2-4.05-3.36-2l-4.87,7.49a2,2,0,0,0,1.67,2.92h9.75a2,2,0,0,0,1.68-2.92l-4.87-7.49C1550.91,171,1547.54,173,1548.91,175.09Z" transform="translate(-250.26 -69.85)"/><path class="cls-1" d="M1568.52,204.51l.28.43a.91.91,0,0,1-.76,1.41h-.56a.91.91,0,0,1-.76-1.41l.27-.43A.92.92,0,0,1,1568.52,204.51Z" transform="translate(-250.26 -69.85)"/><path class="cls-1" d="M1566.84,205.49l.25.38c.1.15.1.35,0-.13a1.11,1.11,0,0,1,0-.65c-.06.19,0,.12.1-.2-.11.17-.06.11.13-.17a1.13,1.13,0,0,1,.53-.3c-.34.1.41,0,.16,0a1.68,1.68,0,0,0-.5,0c.34.07.41.07.21,0a1.11,1.11,0,0,1,.54.3c.19.28.23.34.13.17.12.32.15.39.1.2a1.11,1.11,0,0,1,0,.65c-.15.3-.17.36-.07.18l.09-.15c0-.08.11-.15.15-.23l0,0a1,1,0,0,1-.4.41c-.32.12-.38.15-.19.09a1,1,0,0,1-.64,0c.19.06.12,0-.2-.09a1.05,1.05,0,0,1-.4-.41,2.15,2.15,0,0,0,1.17.9,2,2,0,0,0,1.49-.2,2,2,0,0,0,.7-2.66,3,3,0,0,0-2.54-1.37,2.92,2.92,0,0,0-2.37,1.42,3.32,3.32,0,0,0-.66,1.74,2.91,2.91,0,0,0,1.31,2.52,3.56,3.56,0,0,0,4.1-.37,2.92,2.92,0,0,0,.76-2.77,4.06,4.06,0,0,0-.6-1.17,1.94,1.94,0,1,0-3.36,2Z" transform="translate(-250.26 -69.85)"/><path class="cls-12" d="M394.5,457a3.08,3.08,0,0,0-3.08,3.08V473.8h-75V379.5h75v14.14a3.08,3.08,0,1,0,6.15,0V360.36a3.07,3.07,0,0,0-3.07-3.07H313.35a3.07,3.07,0,0,0-3.08,3.07h0V504.81a3.08,3.08,0,0,0,3.08,3.08H394.5a3.08,3.08,0,0,0,3.07-3.08V460.1A3.08,3.08,0,0,0,394.5,457Zm-3.08-93.6v9.93h-75v-9.93Zm-75,138.31v-21.8h75v21.8Z" transform="translate(-250.26 -69.85)"/><path class="cls-11" d="M369.16,433.85a3.07,3.07,0,0,0-3.94-1.82h0l-2,.73a15.22,15.22,0,0,0-.94-1.33l1.35-1.63a3.07,3.07,0,1,0-4.53-4.15l-.19.23-1.34,1.63a13.27,13.27,0,0,0-1.48-.69l.36-2.07a3.07,3.07,0,0,0-6-1.2l0,.16-.36,2.07a15,15,0,0,0-1.63.15l-.72-2a3.08,3.08,0,1,0-5.77,2.13l.72,2a15,15,0,0,0-1.32.93l-1.63-1.35a3.08,3.08,0,0,0-3.91,4.72l1.63,1.34a14.16,14.16,0,0,0-.69,1.48l-2.07-.36a3.08,3.08,0,0,0-1,6.07l2.07.35a14.73,14.73,0,0,0,.15,1.63l-2,.72a3.08,3.08,0,0,0,2.13,5.78l2-.73a15,15,0,0,0,.93,1.32l-1.35,1.63a3.08,3.08,0,0,0,4.73,3.94l1.34-1.63a15.34,15.34,0,0,0,1.48.69l-.36,2.07a3.07,3.07,0,0,0,6.06,1l.36-2.07a15,15,0,0,0,1.63-.15l.72,2a3.08,3.08,0,0,0,5.78-2.12h0l-.73-2a15.22,15.22,0,0,0,1.33-.94l1.63,1.35a3.08,3.08,0,0,0,3.93-4.73l-1.63-1.35a15.27,15.27,0,0,0,.68-1.48l2.07.36a3.08,3.08,0,0,0,1-6.06l-2.07-.36a15,15,0,0,0-.15-1.63l2-.73a3.07,3.07,0,0,0,1.82-4Zm-9.9,8.35h0A8.8,8.8,0,1,1,352.07,432h0A8.8,8.8,0,0,1,359.26,442.2Z" transform="translate(-250.26 -69.85)"/><path class="cls-11" d="M415.92,423.55h-3.41a18.77,18.77,0,0,0-.87-3.29l2.95-1.7a3.08,3.08,0,0,0-3.08-5.33l-3,1.71a18.69,18.69,0,0,0-2.39-2.4l1.71-3a3.08,3.08,0,0,0-5.33-3.06l-1.7,2.95a18.45,18.45,0,0,0-3.26-.87v-3.43a3.08,3.08,0,0,0-6.15,0v3.42a18.48,18.48,0,0,0-3.26.88l-1.73-2.95a3.07,3.07,0,1,0-5.32,3.07l1.71,3a18.76,18.76,0,0,0-2.4,2.4l-2.95-1.71a3.08,3.08,0,1,0-3.08,5.33l3,1.71a18.43,18.43,0,0,0-.87,3.28h-3.41a3.08,3.08,0,1,0,0,6.15h3.41a18.66,18.66,0,0,0,.87,3.28l-3,1.71a3.07,3.07,0,0,0,2.94,5.4l.14-.08,2.95-1.71a19.43,19.43,0,0,0,2.4,2.4l-1.71,3a3.07,3.07,0,1,0,5.32,3.07h0l1.71-3a18.48,18.48,0,0,0,3.26.88v3.42a3.08,3.08,0,0,0,6.15,0v-3.43a18.48,18.48,0,0,0,3.26-.88l1.7,3a3.08,3.08,0,0,0,5.35-3.06l-1.71-3a18.76,18.76,0,0,0,2.4-2.4l3,1.71a3.07,3.07,0,0,0,3.21-5.24l-.14-.08L411.64,433a18.46,18.46,0,0,0,.88-3.28h3.41a3.08,3.08,0,0,0,0-6.15Zm-9.29,3.07h0a12.14,12.14,0,1,1-12.14-12.15A12.14,12.14,0,0,1,406.63,426.62Z" transform="translate(-250.26 -69.85)"/><polygon class="cls-10" points="105.06 416.66 110.17 424.56 99.95 424.56 105.06 416.66"/><path class="cls-10" d="M354,487.25l5.11,7.9,1.27-2.2H350.21l1.27,2.2,5.11-7.9c1-1.59-1.51-3.06-2.53-1.48l-5.12,7.9a1.48,1.48,0,0,0,1.27,2.21h10.23a1.48,1.48,0,0,0,1.27-2.21l-5.11-7.9C355.57,484.19,353,485.66,354,487.25Z" transform="translate(-250.26 -69.85)"/><path class="cls-13" d="M1526.36,721.53c7.71-3.5,8.88-30.14,4.31-38-5.94-10.23-34.25-8.19-43.18-.86-1,3.65-.91,10.23-.88,15.49h28.05v2.46h-28s-12.49.08-12.49.08c-21.52,0-21.08,46.74,7.34,46.74,0,0,1-10.37,2.85-15.55,5.65-16,29.33-4.6,42-10.37ZM1497,694.36a5.86,5.86,0,1,1,5.85-5.85h0A5.85,5.85,0,0,1,1497,694.36Z" transform="translate(-250.26 -69.85)"/><path class="cls-14" d="M1544.4,699.46s-.75,10.37-2.56,15.55c-5.64,16-29.32,4.6-42,10.37-7.74,3.49-8.89,30.14-4.31,38,5.93,10.25,34.21,8.19,43.15.85,1-3.61.93-10.22.87-15.47h-28v-2.49h28s13.8,0,13.8,0c19.86,0,21.64-46.77-8.94-46.77Zm-16.22,52.07a5.85,5.85,0,1,1-5.85,5.85h0a5.86,5.86,0,0,1,5.84-5.85h0Z" transform="translate(-250.26 -69.85)"/><rect class="cls-8" x="1208.72" y="606.66" width="103.76" height="96.9"/><path class="cls-1" d="M1512.66,790.81a68.66,68.66,0,1,1,48.55-20.11A68.25,68.25,0,0,1,1512.66,790.81Zm0-127.65a59,59,0,1,0,59,59A59.05,59.05,0,0,0,1512.66,663.16Z" transform="translate(-250.26 -69.85)"/><path class="cls-4" d="M632.23,456.48l-3-21-15,18Zm0,0" transform="translate(-250.26 -69.85)"/><path class="cls-4" d="M633.11,457.39,612.85,454l16.89-20.26ZM615.67,453l15.67,2.61-2.61-18.28Z" transform="translate(-250.26 -69.85)"/><path class="cls-4" d="M614.26,453.49l-15-18-3,21Zm0,0" transform="translate(-250.26 -69.85)"/><path class="cls-4" d="M595.41,457.39l3.38-23.64L615.67,454Zm4.38-20.09-2.61,18.28L612.85,453Z" transform="translate(-250.26 -69.85)"/><path class="cls-4" d="M665.17,462.47h29.94a3,3,0,0,0,3-3v-6H662.17v6a3,3,0,0,0,3,3Zm0,0" transform="translate(-250.26 -69.85)"/><path class="cls-4" d="M695.11,463.22H665.17a3.75,3.75,0,0,1-3.75-3.74v-6.74h37.43v6.74A3.75,3.75,0,0,1,695.11,463.22Zm-32.19-9v5.24a2.24,2.24,0,0,0,2.25,2.24h29.94a2.24,2.24,0,0,0,2.24-2.24v-5.24Z" transform="translate(-250.26 -69.85)"/><path class="cls-2" d="M749,450.5h-3V375.64a15,15,0,0,0-15-15H629.23a15,15,0,0,0-15,15,24,24,0,0,0-24,23.95,3,3,0,0,0,3,3v9a21,21,0,0,0,41.92,0v-9a3,3,0,0,0,3-3,24,24,0,0,0-18-23.17v-.78a9,9,0,0,1,9-9H731a9,9,0,0,1,9,9V450.5H654.65a27,27,0,0,0-25.42-18H599.29a27,27,0,0,0-26.95,27v47.91a3,3,0,0,0,3,3h77.85a3,3,0,0,0,3-3V474.45H743a9,9,0,0,0,9-9v-12a3,3,0,0,0-3-3ZM629.23,411.57a15,15,0,0,1-29.94,0l0-10a72.83,72.83,0,0,0,19.43-6.2c.37-.2.72-.41,1-.62a25.09,25.09,0,0,0,9.48,6.68Zm2.65-15.51a20.15,20.15,0,0,1-9.14-7.11,3,3,0,0,0-2.19-1.32h-.3a3,3,0,0,0-2.12.88,10.55,10.55,0,0,1-2.35,1.67A71.93,71.93,0,0,1,596.66,396a18,18,0,0,1,17.6-14.37,13.89,13.89,0,0,1,2.58.21,18,18,0,0,1,15,14.22Zm63.23,60.42v3H665.17v-3Zm-66.42-3.62-8.78-1.47,7.31-8.78Zm-5.85-14.34-8.58,10.29-8.58-10.29Zm-21.54,4.1,7.32,8.77-8.78,1.47Zm-23,16.86a21,21,0,0,1,17.46-20.64l-2.46,17.22a3,3,0,0,0,3,3.42,4,4,0,0,0,.49,0L611.27,457v47.37h-18V465.47h-6v38.92h-9Zm71.86,44.91h-9V465.47h-6v38.92h-18V457l14.47,2.42a4.21,4.21,0,0,0,.5,0,3,3,0,0,0,2.26-1,3,3,0,0,0,.7-2.39l-2.46-17.25a21,21,0,0,1,16.81,15.41,21.71,21.71,0,0,1,.65,5.26ZM746,465.47a3,3,0,0,1-3,3H656.18v-9a25.17,25.17,0,0,0-.19-3h3.19v3a6,6,0,0,0,6,6h29.94a6,6,0,0,0,6-6v-3H746Zm0,0" transform="translate(-250.26 -69.85)"/><rect class="cls-1" x="396.94" y="308.78" width="11.98" height="5.99" rx="2.99"/><rect class="cls-1" x="414.9" y="308.78" width="59.89" height="5.99" rx="2.99"/><rect class="cls-1" x="396.94" y="320.76" width="32.94" height="5.99" rx="2.99"/><rect class="cls-1" x="435.86" y="320.76" width="23.95" height="5.99" rx="2.99"/><rect class="cls-1" x="465.81" y="320.76" width="8.98" height="5.99" rx="2.99"/><rect class="cls-1" x="396.94" y="332.73" width="17.97" height="5.99" rx="2.99"/><rect class="cls-1" x="420.89" y="332.73" width="53.9" height="5.99" rx="2.99"/><rect class="cls-1" x="396.94" y="344.71" width="77.85" height="5.99" rx="2.99"/><rect class="cls-1" x="396.94" y="356.69" width="77.85" height="5.99" rx="2.99"/><path class="cls-1" d="M919.21,378.37a11.17,11.17,0,1,0,11.18,11.17A11.18,11.18,0,0,0,919.21,378.37Zm0,16.76a5.58,5.58,0,1,1,0-11.15v0a5.59,5.59,0,0,1,0,11.18Z" transform="translate(-250.26 -69.85)"/><path class="cls-1" d="M951.16,400.71A11.17,11.17,0,1,0,940,389.54,11.17,11.17,0,0,0,951.16,400.71Zm0-16.76a5.59,5.59,0,1,1-5.58,5.59,5.59,5.59,0,0,1,5.58-5.59Z" transform="translate(-250.26 -69.85)"/><path class="cls-2" d="M972.05,378.6h0c-1.85-6.81-7.15-12.62-17.82-12.62H938v-6.14H932.4v6H916.23c-7.54,0-15.48,3.46-17.88,12.62l-.18,0-.46,30.69h0v0l0,.12c0,.08,0,.16,0,.24.94,12.08,10,16.52,18.5,16.52h38c12.09,0,17.32-7.53,18.38-15.45Zm-4.86,28.7c0,4.86-1.7,13-13,13H916.23c-4.86,0-13-1.71-13-13l0-22.68c0-11.33,8.16-13,13-13h38c11.34,0,13,8.16,13,13Z" transform="translate(-250.26 -69.85)"/><path class="cls-1" d="M951.16,408.31H919.21a2.79,2.79,0,0,0,0,5.58h31.95a2.79,2.79,0,1,0,0-5.58Z" transform="translate(-250.26 -69.85)"/><path class="cls-2" d="M989.23,462.57V441.71a10.77,10.77,0,1,0-13.3-12.77l-7.45,1.46H901.9l-7.46-1.46a10.84,10.84,0,1,0-13.35,12.8V462.6a10.84,10.84,0,0,0-8,10.41V478a2.8,2.8,0,0,0,5.59,0v-5a5.25,5.25,0,0,1,10.5,0v5a2.79,2.79,0,0,0,5.58,0v-5a10.84,10.84,0,0,0-8-10.42V441.71a10.79,10.79,0,0,0,7.48-7.15l4.67.92v34.46A36,36,0,0,0,902,484.6v.25a36.29,36.29,0,0,0,66.18,0l.14-.3a35.93,35.93,0,0,0,3.21-14.61V435.48l4.67-.92a10.81,10.81,0,0,0,7.48,7.15v20.86a10.84,10.84,0,0,0-8,10.42v5a2.79,2.79,0,0,0,5.58,0v-5a5.25,5.25,0,1,1,10.5,0v5a2.8,2.8,0,0,0,5.59,0v-5A10.84,10.84,0,0,0,989.23,462.57Zm-105.34-26a5.25,5.25,0,1,1,5.25-5.25A5.25,5.25,0,0,1,883.89,436.54Zm51.3,64.15a30.75,30.75,0,0,1-26-14.27h51.89A30.72,30.72,0,0,1,935.19,500.69ZM965.91,470a31,31,0,0,1-2,10.89H906.45a31,31,0,0,1-2-10.89V436h61.5Zm20.58-33.43-.06-.08a3.72,3.72,0,1,1,.09.08Z" transform="translate(-250.26 -69.85)"/><line class="cls-8" x1="687.72" y1="289.97" x2="682.13" y2="289.97"/><path class="cls-2" d="M933.38,349.08l7.46,11.53,1.81-3.15H927.73l1.81,3.15L937,349.08c1.47-2.27-2.16-4.37-3.62-2.11l-7.45,11.52a2.1,2.1,0,0,0,1.8,3.15h14.92a2.1,2.1,0,0,0,1.8-3.15L937,347C935.54,344.71,931.91,346.81,933.38,349.08Z" transform="translate(-250.26 -69.85)"/><polygon class="cls-1" points="684.55 328.86 686.65 332.11 682.45 332.11 684.55 328.86"/><path class="cls-1" d="M933,399.78l2.1,3.24,1.81-3.16h-4.19l1.8,3.16,2.1-3.24a2.1,2.1,0,0,0-3.62-2.12l-2.09,3.24a2.11,2.11,0,0,0,1.81,3.15h4.19a2.11,2.11,0,0,0,1.81-3.15l-2.1-3.24a2.1,2.1,0,0,0-3.62,2.12Z" transform="translate(-250.26 -69.85)"/><path class="cls-4" d="M937.05,446.35l10.7,16.54a2.66,2.66,0,0,1-2.24,4.11h-21.4a2.66,2.66,0,0,1-2.23-4.11l10.69-16.54A2.66,2.66,0,0,1,937.05,446.35Z" transform="translate(-250.26 -69.85)"/><path class="cls-4" d="M935.24,447.41l7.56,11.67a40.17,40.17,0,0,1,3.09,4.78c.65,1.46-1.65,1-2.52,1H926.71c-.88,0-3.53.5-3-1s1.95-3,2.8-4.32l5.5-8.51c.25-.37,2.49-4.69,3.25-3.69,1.62,2.11,5.26,0,3.62-2.12s-4.09-3-6.44-1.61a6.7,6.7,0,0,0-2.15,2.37l-4.95,7.66-4.84,7.49a5.67,5.67,0,0,0-1.13,3.28,4.82,4.82,0,0,0,4.54,4.6c5.53.38,11.2,0,16.73,0,2,0,4.38.36,6.3-.21a4.83,4.83,0,0,0,3.2-5.77,8.65,8.65,0,0,0-1.24-2.32l-10-15.5C937.4,443,933.77,445.13,935.24,447.41Z" transform="translate(-250.26 -69.85)"/><path class="cls-2" d="M893.28,390.44l9-10.22-4.47-1.85v31.68l4.47-1.85-6.47-7.37c-.82-.94-1.71-1.85-2.48-2.82a6,6,0,0,1,0-7.57,2.7,2.7,0,0,0,0-3.71,2.65,2.65,0,0,0-3.7,0,11.38,11.38,0,0,0-2.26,11.14,16.85,16.85,0,0,0,3.62,5.37l7.61,8.66c1.53,1.75,4.47.32,4.47-1.85V378.37c0-2.16-2.94-3.6-4.47-1.85l-9,10.21C887.36,389.26,891.05,393,893.28,390.44Z" transform="translate(-250.26 -69.85)"/><path class="cls-2" d="M980.92,386.73l-9-10.21c-1.54-1.75-4.47-.32-4.47,1.85v31.68c0,2.16,2.93,3.6,4.47,1.85l7.61-8.66a17.24,17.24,0,0,0,3.52-5.13,11.36,11.36,0,0,0-2.16-11.38,2.66,2.66,0,0,0-3.71,0,2.69,2.69,0,0,0,0,3.71,6,6,0,0,1,0,7.55c-.78,1-1.67,1.9-2.49,2.84l-6.48,7.37,4.47,1.85V378.37l-4.47,1.85,9,10.22C979.44,393,983.13,389.26,980.92,386.73Z" transform="translate(-250.26 -69.85)"/><path class="cls-1" d="M1242,452.64c-13.1-.09-26.19,0-39.28-.06-1,0-2-.1-3.59-.18,1.79-2.61,3.17-4.77,4.72-6.8a12.24,12.24,0,0,1,3.23-3.3c4.27-2.48,6.51-7.8,4-11.94-1.9-3.13-2.12-6.22-2.25-9.6a21.51,21.51,0,0,0-30-19.09c-9.28,4-13.51,11.49-13.28,21.52a9,9,0,0,1-1.59,5.95c-2.82,3.88-2,9.63,2.15,12.07,2.77,1.65,4.3,3.87,5.83,6.39.91,1.5,2.1,2.84,3.6,4.84l-3.83.19c-12.93.66-21.65,9.67-21.71,22.57,0,8.64,0,17.27,0,25.91,0,3.31,1,4.32,4.37,4.32q28.21,0,56.44,0c3.3,0,4.33-1.05,4.35-4.36,0-5.92,0-11.83,0-17.75V477.5c9.46,0,18.47.05,27.48,0,5.77,0,10.39-3.28,12.11-8.29C1257.71,460.66,1251.66,452.7,1242,452.64Zm-70.21-27.81c-.6-7.21,1.54-12.76,7.33-16.36a14.46,14.46,0,0,1,16.43.16c5.63,3.67,7.71,9.09,7.11,15.92-5.75.18-11.15-.52-16.14-3.09-1-.53-1.5-2-2.36-3s-1.88-2.69-2.83-2.68c-1.15,0-2.69,1.22-3.37,2.34-1.54,2.54-2.54,5.41-6.18,6.74Zm3.07,8.94c0-1.73,0-1.73,6-7.88,3.3,1.26,6.19,2.62,9.22,3.48s6.07,1.15,9.12,1.7c1.91,8-.75,14.65-7,17.46a12.51,12.51,0,0,1-15-4.17C1174.82,441.11,1174.85,437.45,1174.9,433.77Zm18.39,21.64c0,3.88-2.25,6.41-5.84,6.49-3.81.08-6.08-2.31-6.27-6.49Zm37.25,15.85h-10.07c-2.33,0-4.66,0-7,0-3.48,0-4.54,1.06-4.56,4.5,0,6.3,0,12.6,0,18.9V499h-37.2V483.93h-6.08V499h-9.38v-12c0-4.37-.09-8.73,0-13.09a15.6,15.6,0,0,1,16-15.18c.57,0,1.13.07,1.7.14a2.82,2.82,0,0,1,1.7,1.46c2.36,4.92,6.18,7.76,11.64,7.73s9.06-2.85,11.42-7.63a2.87,2.87,0,0,1,1.9-1.54c6.2-.12,12.39-.07,18.61-.07h11.27Zm12.76-.06c-2,.1-4,0-6.31,0V458.92c2.32,0,4.53-.16,6.71,0a6.24,6.24,0,0,1,5.62,6.34,6.09,6.09,0,0,1-6,5.88Z" transform="translate(-250.26 -69.85)"/><path class="cls-2" d="M1299,366.53c0-6.21-3.8-10-10-10.06q-47.43,0-94.83,0c-6.19,0-9.94,3.75-10,10-.08,8.53,0,17.07,0,25.6a12.23,12.23,0,0,0,.16,1.47h6V367.16c0-3.38,1-4.43,4.27-4.43q47,0,94,0c3.31,0,4.16.85,4.16,4.17q0,45.51,0,91c0,3.14-.83,3.94-4,4-7.75.05-15.51,0-23.27,0h-3.49v6.23h15.4c0,6.31,0,12.2-.07,18.09,0,.62-.86,1.37-1.5,1.8-3.81,2.57-5.45,6.48-4.31,10.51a9.25,9.25,0,0,0,17.77.4c1.34-4.16-.2-8.14-4.1-10.83-.65-.45-1.58-1.17-1.59-1.78-.12-6-.07-11.95-.07-18.14H1289c6.14-.08,10-3.84,10-10Q1299,412.35,1299,366.53Zm-15.74,129.59c-.18,1.21-1.34,2.28-2.06,3.42l-1.33.06c-.82-1.07-2.08-2-2.35-3.23-.42-1.84.75-3.11,2.74-3.2S1283.52,494.21,1283.24,496.12Z" transform="translate(-250.26 -69.85)"/><path class="cls-2" d="M1280.52,384.21c-.45-9.49.94-8.95-9.23-9.27v-5.63c11.06-2.3,16.94,3.05,15,14.92Z" transform="translate(-250.26 -69.85)"/><path class="cls-2" d="M1258.87,374.91v-6h5.74v6Z" transform="translate(-250.26 -69.85)"/><path class="cls-4" d="M1239.89,392.39l21.67,33.5,3.11,4.79,3.4-5.92h-49.55l3.4,5.93,21.67-33.5,3.11-4.8c2.76-4.27-4.06-8.22-6.81-4l-21.67,33.5-3.11,4.8c-1.64,2.55.52,5.93,3.41,5.93h49.55c2.89,0,5-3.38,3.41-5.93l-21.68-33.49-3.1-4.79C1244,384.17,1237.12,388.12,1239.89,392.39Z" transform="translate(-250.26 -69.85)"/><path class="cls-2" d="M997.92,683a72.08,72.08,0,0,0-31.8-28.27,73,73,0,0,0-44-5c-28.94,5.75-52.26,30-56.64,59.25a77.12,77.12,0,0,0-.89,11.15,72,72,0,0,0,13.25,41.56,73,73,0,0,0,34.28,26.06,69.93,69.93,0,0,0,24.27,4.17,4,4,0,0,0,1.92,0A71.79,71.79,0,0,0,997.92,683Zm-85.67,27.58c0,2.4-3.58,2.38-3.69,0C908.67,708.17,912.25,708.15,912.25,710.55ZM935.41,725c.12-2.37,3.7-2.4,3.7,0S935.53,727.36,935.41,725Zm56.43,28.7a64.82,64.82,0,0,1-27.22,24.65V748.11l22.31-22.31,3.11-3.1a7.9,7.9,0,1,0-5.17-8.46,4.86,4.86,0,0,0,0,2,9.6,9.6,0,0,0,.31,1.31L962.8,739.94c-1.29,1.3-2.62,2.56-3.87,3.88a5.33,5.33,0,0,0-1.35,4.06v32.66a4,4,0,0,0,.07.69,65.24,65.24,0,0,1-16.86,3.51V732a8.07,8.07,0,0,0,4.36-7,7.87,7.87,0,0,0-15.67-1,4.91,4.91,0,0,0,0,2,8.22,8.22,0,0,0,4.26,6v52.84a62.72,62.72,0,0,1-10.21-1.24c-.52-.1-1-.22-1.54-.33V753.88c0-1.79.25-3.6-1.06-5-.89-1-1.9-1.91-2.85-2.85l-13.59-13.6-10.15-10.14a3.37,3.37,0,0,0-.58-.48,7.59,7.59,0,0,0,.19-1.65,7.87,7.87,0,0,0-15.67-1,4.86,4.86,0,0,0,0,2,8,8,0,0,0,7.78,6.89,7.62,7.62,0,0,0,3.32-.76l23.32,23.32,2.23,2.23v28.42a65.56,65.56,0,0,1-42.59-51.36,64.9,64.9,0,0,1,34.54-67.44V703.5a8.27,8.27,0,0,0-4.26,6,4.86,4.86,0,0,0,0,2,8,8,0,0,0,7.79,6.88,7.87,7.87,0,0,0,3.52-14.92v-44.2l.06,0a66,66,0,0,1,17.89-3.8v23.87c0,2.88-.76,6.94,1.39,9.18,3.26,3.42,6.69,6.69,10,10l8.47,8.46a8.76,8.76,0,0,0-.81,2.49,4.86,4.86,0,0,0,0,2,7.87,7.87,0,1,0,7.79-8.89,7.06,7.06,0,0,0-1.3.11l-18.52-18.52V655.38A64.56,64.56,0,0,1,986.52,679C1003.85,699.89,1005.88,730.52,991.84,753.68Zm-1-38.43c.12-2.38,3.7-2.4,3.7,0S990.92,717.63,990.8,715.25Zm-102.89,4.86c0,2.41-3.57,2.38-3.69,0C884.34,717.74,887.91,717.71,887.91,720.11Zm72.68-9.56c0,2.4-3.58,2.38-3.69,0C957,708.17,960.59,708.15,960.59,710.55Z" transform="translate(-250.26 -69.85)"/><path class="cls-2" d="M1587.11,479.26h0a1.29,1.29,0,0,1-1.29-1.29V387.24a11.67,11.67,0,0,0-11.67-11.66h-13a1.3,1.3,0,0,1-1.3-1.3V356.14a11.67,11.67,0,0,0-11.66-11.67h-70a11.67,11.67,0,0,0-11.66,11.67v18.14a1.3,1.3,0,0,1-1.3,1.3h-13a11.66,11.66,0,0,0-11.66,11.66V478a1.3,1.3,0,0,1-1.3,1.29h0a3.89,3.89,0,0,0-3.89,3.89v5.19A11.67,11.67,0,0,0,1447.14,500h132.2A11.66,11.66,0,0,0,1591,488.34v-5.19A3.89,3.89,0,0,0,1587.11,479.26Zm-108.87-23.33h70a11.66,11.66,0,0,0,11.66-11.66V392.43a1.3,1.3,0,0,1,1.3-1.3H1569a1.3,1.3,0,0,1,1.29,1.3v70a1.3,1.3,0,0,1-1.29,1.3H1457.51a1.3,1.3,0,0,1-1.3-1.3v-70a1.3,1.3,0,0,1,1.3-1.3h7.77a1.3,1.3,0,0,1,1.3,1.3v51.84A11.66,11.66,0,0,0,1478.24,455.93Zm-5.18-85.54h80.35a1.3,1.3,0,0,1,1.3,1.3v72.58a6.48,6.48,0,0,1-6.48,6.48h-70a6.48,6.48,0,0,1-6.48-6.48V371.69A1.3,1.3,0,0,1,1473.06,370.39Zm5.18-20.73h70a6.48,6.48,0,0,1,6.48,6.48v7.77a1.3,1.3,0,0,1-1.3,1.3h-80.35a1.3,1.3,0,0,1-1.3-1.3v-7.77A6.48,6.48,0,0,1,1478.24,349.66Zm-32.4,37.58a6.48,6.48,0,0,1,6.48-6.48h13a1.3,1.3,0,0,1,1.3,1.3v2.59a1.3,1.3,0,0,1-1.3,1.3h-10.37a3.89,3.89,0,0,0-3.88,3.89V465a3.88,3.88,0,0,0,3.88,3.88h116.65a3.89,3.89,0,0,0,3.89-3.88V389.84a3.89,3.89,0,0,0-3.89-3.89h-10.37a1.3,1.3,0,0,1-1.3-1.3v-2.59a1.3,1.3,0,0,1,1.3-1.3h13a6.48,6.48,0,0,1,6.48,6.48V478a1.29,1.29,0,0,1-1.29,1.29h-42.77a2.6,2.6,0,0,0-1.84.76l-4,4.05a1.32,1.32,0,0,1-.92.38H1496.7a1.3,1.3,0,0,1-.91-.38l-4-4.05a2.59,2.59,0,0,0-1.83-.76h-42.77a1.3,1.3,0,0,1-1.3-1.29Zm140,101.1a6.49,6.49,0,0,1-6.48,6.48h-132.2a6.48,6.48,0,0,1-6.48-6.48v-2.6a1.29,1.29,0,0,1,1.29-1.29h46.35a1.25,1.25,0,0,1,.91.38l4,4a2.57,2.57,0,0,0,1.83.76h36.29a2.56,2.56,0,0,0,1.83-.76l4-4a1.26,1.26,0,0,1,.92-.38h46.34a1.3,1.3,0,0,1,1.3,1.29Z" transform="translate(-250.26 -69.85)"/><rect class="cls-1" x="1229.28" y="357.57" width="67.39" height="5.18"/><rect class="cls-1" x="1229.28" y="367.93" width="62.21" height="5.18"/><rect class="cls-1" x="1244.83" y="347.2" width="51.84" height="5.18"/><path class="cls-4" d="M1501.31,403.57l3.11-4.14-7.6-5.71,7.6-5.7-3.11-4.15-10.37,7.78a2.6,2.6,0,0,0-.51,3.63,2.51,2.51,0,0,0,.51.52Z" transform="translate(-250.26 -69.85)"/><path class="cls-4" d="M1525.16,403.57l10.37-7.77a2.6,2.6,0,0,0,.52-3.63,2.56,2.56,0,0,0-.52-.52l-10.37-7.78-3.11,4.15,7.6,5.7-7.6,5.71Z" transform="translate(-250.26 -69.85)"/><rect class="cls-4" x="1499.28" y="391.13" width="27.92" height="5.18" transform="translate(335.29 1582.56) rotate(-68.19)"/><polygon class="cls-10" points="1237.01 347.07 1240.13 351.9 1233.89 351.9 1237.01 347.07"/><path class="cls-10" d="M1487,417.11l2.72,4.21.4.61.31-.54h-6.24l.32.54,2.72-4.21.4-.61c.25-.39-.38-.76-.63-.37l-2.72,4.21-.4.62a.37.37,0,0,0,.31.55h6.24a.37.37,0,0,0,.32-.55l-2.73-4.21-.39-.62C1487.33,416.35,1486.7,416.72,1487,417.11Z" transform="translate(-250.26 -69.85)"/><polygon class="cls-2" points="1262.93 402.51 1267.91 410.2 1257.95 410.2 1262.93 402.51"/><path class="cls-2" d="M1511.94,473.1l4.36,6.74.62,1,1.26-2.2h-10l1.26,2.2,4.36-6.74.62-1a1.47,1.47,0,0,0-.52-2,1.49,1.49,0,0,0-2,.53l-4.36,6.74-.62.95a1.47,1.47,0,0,0,1.25,2.2h10a1.47,1.47,0,0,0,1.25-2.2l-4.36-6.74-.62-.95a1.45,1.45,0,1,0-2.51,1.47Z" transform="translate(-250.26 -69.85)"/><path class="cls-2" d="M1161.2,789a17,17,0,0,1-14.72-25.48l64.57-112a16.79,16.79,0,0,1,14.7-8.5h0a16.79,16.79,0,0,1,14.71,8.49h0l64.7,111.91a17,17,0,0,1-14.69,25.49L1161.2,789Zm64.56-138.74h0a9.7,9.7,0,0,0-8.46,4.89l-64.55,112a9.76,9.76,0,0,0,8.45,14.64h0l129.26-.08a9.77,9.77,0,0,0,8.45-14.65l-64.7-111.91A9.67,9.67,0,0,0,1225.76,650.23Z" transform="translate(-250.26 -69.85)"/><path class="cls-2" d="M1162.89,789a18,18,0,0,1-15.59-27l44.1-76.47a18,18,0,0,1,14.47-9h0a17.48,17.48,0,0,1,17.81,13.13c1.78,6.77,4.79,11.51,9,14.1,2.93,1.82,6,2.32,8.9,2.81,3.78.63,8,1.34,10.31,5.41,2.38,4.29.44,8.5-1.28,12.21a27.49,27.49,0,0,0-2.51,7c-1.29,7.61,3.46,16.75,14.11,27.15a17.27,17.27,0,0,1,4.68,8.07,19.24,19.24,0,0,1-.64,12.14,16.25,16.25,0,0,1-7.56,8.73,15.36,15.36,0,0,1-7.51,1.6l-88.25.05Zm44-105.24h-.59a10.57,10.57,0,0,0-8.65,5.36l-44.11,76.49a10.75,10.75,0,0,0,9.32,16.13h0l88.37-.05h.08a8.2,8.2,0,0,0,4-.82,9.11,9.11,0,0,0,4.14-5,11.91,11.91,0,0,0,.33-7.62,10,10,0,0,0-2.72-4.7c-6.74-6.59-11.48-12.94-14-18.89a25.6,25.6,0,0,1-2.13-14.64,34.81,34.81,0,0,1,3.08-8.86c1.32-2.85,2.09-4.65,1.51-5.68s-2-1.25-5.17-1.78a29.86,29.86,0,0,1-11.53-3.8c-5.79-3.59-9.87-9.8-12.13-18.4A10.24,10.24,0,0,0,1206.9,683.73Z" transform="translate(-250.26 -69.85)"/><path class="cls-2" d="M1162.44,789.22a18,18,0,0,1-15.59-27l25.86-44.86a17.8,17.8,0,0,1,15.58-9h0a17.83,17.83,0,0,1,15.58,9h0a26.44,26.44,0,0,1,1.9,4.4c.8,2.27,1.33,3.78,3.25,5.15a7.21,7.21,0,0,0,4.33,1.13c2.08.11,5,.25,7.2,2.83,2.71,3.07,1.92,6.51,1.28,9.25a16.17,16.17,0,0,0-.44,7.26c.5,2.58,1.43,3.67,3,5.48a25.78,25.78,0,0,1,5.74,10l0,.14c1.18,3.72,3.38,10.67-.36,17.14a17.78,17.78,0,0,1-15.57,9l-51.79,0Zm25.87-73.61h0A10.67,10.67,0,0,0,1179,721l-25.86,44.86a10.75,10.75,0,0,0,9.32,16.13h0l51.79,0a10.64,10.64,0,0,0,9.32-5.39c2.14-3.71.69-8.3-.27-11.34l0-.14a18.74,18.74,0,0,0-4.33-7.51,17.25,17.25,0,0,1-4.6-8.81,23.47,23.47,0,0,1,.5-10.26c.36-1.56.57-2.6.33-2.88s-.6-.3-2.15-.38a14,14,0,0,1-8.16-2.48c-3.76-2.69-4.92-6-5.86-8.62a19.1,19.1,0,0,0-1.34-3.18A10.73,10.73,0,0,0,1188.31,715.61Z" transform="translate(-250.26 -69.85)"/></svg>