<?xml version="1.0" encoding="utf-8"?>
<!-- Generator: Adobe Illustrator 24.1.1, SVG Export Plug-In . SVG Version: 6.00 Build 0)  -->
<svg version="1.1" id="Layer_1" xmlns="http://www.w3.org/2000/svg" xmlns:xlink="http://www.w3.org/1999/xlink" x="0px" y="0px"
	 viewBox="0 0 2000 2000" style="enable-background:new 0 0 2000 2000;" xml:space="preserve">
<style type="text/css">
	.st0{fill:#FFFFFF;}
</style>
<g id="Layer_1-2">
	<path class="st0" d="M510.4,1370.7c-46.5,0-88.2-24-111.4-64.3c-23.3-39.7-23.3-88.9-0.1-128.7L888,329.4
		c22.8-40,65.4-64.7,111.4-64.4h0.1c46.5,0,88.2,24,111.4,64.3l0,0L1601,1177c35.6,61.5,14.6,140.2-46.9,175.8
		c-19.6,11.3-41.8,17.3-64.4,17.3L510.4,1370.7L510.4,1370.7z M999.5,319.8L999.5,319.8c-26.5-0.1-51,14-64.1,37l-489,848.2
		c-20.4,35.3-8.4,80.5,27,101c11.3,6.5,24,9.9,37,9.9l0,0l979.2-0.6c40.9,0,74-33.2,73.9-74.1c0-13-3.4-25.7-9.9-36.9l-490.1-847.7
		C1050.4,333.7,1025.9,319.6,999.5,319.8z"/>
	<path class="st0" d="M523.2,1370.7c-49.2,0-93.3-25.4-118-68.1s-24.7-93.6-0.1-136.3L739.2,587c22.8-39.6,64-65.1,109.6-67.9l0,0
		c62-3.8,118.8,38,134.9,99.4c13.5,51.3,36.3,87.2,67.9,106.8c22.2,13.8,45.2,17.6,67.4,21.3c28.6,4.8,61,10.2,78.1,41
		c18,32.5,3.3,64.4-9.7,92.5c-7.8,16.8-15.8,34.1-19,53.2c-9.8,57.7,26.2,126.9,106.9,205.7c17.2,16.7,29.4,37.9,35.4,61.1
		c8.3,32.2,6.6,64.1-4.8,92c-4.7,11.6-19.1,46.8-57.3,66.1c-17.6,8.8-37.2,13-56.9,12.1L523.2,1370.7L523.2,1370.7z M856.6,573.5
		c-1.5,0-3,0-4.5,0.1l0,0c-27.3,1.5-52,16.8-65.5,40.6l-334.1,579.4c-22.5,38.9-9.2,88.8,29.8,111.3c12.4,7.2,26.5,10.9,40.8,10.9
		h0.1l669.4-0.4h0.6c7.6,0.3,19-0.4,30.4-6.2c20-10.1,28-29.6,31.4-37.9c7-17.3,7.9-36.7,2.5-57.7c-3.5-13.5-10.6-25.8-20.6-35.6
		c-51.1-49.9-87-98-106.5-143.1c-16.7-38.4-22.1-75.7-16.1-110.9c4.5-26.3,14.9-48.9,23.3-67.1c10-21.6,15.9-35.2,11.5-43
		c-3.9-7-14.9-9.5-39.2-13.5c-24.9-4.2-55.9-9.3-87.3-28.8c-43.9-27.2-74.8-74.2-91.9-139.4C921.6,597.6,890.9,573.5,856.6,573.5z"
		/>
	<path class="st0" d="M519.8,1372.6c-49.2,0-93.3-25.4-118-68.1s-24.7-93.6-0.1-136.3l195.9-339.8c24.6-42.7,68.7-68.2,118-68.2h0.1
		c49.2,0,93.3,25.4,118,68.1l0,0c6.8,11.7,10.8,23.2,14.4,33.3c6.1,17.2,10.1,28.6,24.6,39c10.5,7.5,20.3,8,32.8,8.6
		c15.8,0.8,37.5,1.9,54.6,21.4c20.5,23.3,14.5,49.3,9.7,70.1c-3.8,16.4-7.6,33.3-3.4,55c3.8,19.5,10.9,27.8,22.6,41.5
		c13.7,15.9,30.7,35.8,43.5,76l0.3,1.1c8.9,28.2,25.6,80.8-2.7,129.8c-24.6,42.7-68.7,68.2-118,68.2L519.8,1372.6z M715.8,815
		L715.8,815c-29.2-0.2-56.2,15.4-70.6,40.8l-195.9,339.8c-22.5,38.9-9.2,88.8,29.8,111.3c12.4,7.2,26.5,10.9,40.8,10.9h0.1
		l392.3-0.2c29.2,0.2,56.2-15.4,70.6-40.8c16.2-28.1,5.2-62.9-2.1-85.9l-0.3-1.1c-9.4-29.6-20.8-42.9-32.8-56.9
		c-13.3-15.4-28.3-32.9-34.8-66.7c-6.4-33.1-0.5-58.9,3.8-77.7c2.7-11.8,4.3-19.7,2.5-21.8c-1.5-1.8-4.6-2.3-16.3-2.9
		c-16.2-0.8-38.3-2-61.8-18.8c-28.5-20.4-37.3-45.3-44.4-65.3c-3.1-8.6-5.9-16.8-10.2-24.1C771.9,830.4,744.9,814.9,715.8,815z"/>
	<path class="st0" d="M519.5,1600.7c0,35.4-16.2,54.6-50.4,54.6c-32.4,0-49.2-19.2-49.2-52.8v-5.4h31.2v7.5c0,15,6.6,20.7,17.1,20.7
		c11.7,0,18.3-5.7,18.3-25.8v-38.4c-5.7,12-15.9,18.6-30.6,18.6c-24.3,0-36.6-17.1-36.6-48v-38.4c0-33.6,17.7-52.8,50.1-52.8
		s50.1,19.2,50.1,52.8V1600.7z M486.5,1529v-37.8c0-15-6.6-20.4-17.1-20.4s-17.1,5.4-17.1,20.4v37.8c0,15,6.6,20.7,17.1,20.7
		S486.5,1544,486.5,1529z"/>
	<path class="st0" d="M532.4,1622.9c3.6,0.3,7.8,0.3,11.4,0.3c10.5,0,18.9-3.9,18.9-20.1V1443h33v157.7c0,42-22.5,52.8-47.4,52.8
		c-5.3,0.1-10.6-0.1-15.9-0.6V1622.9z"/>
	<path class="st0" d="M724.9,1652.9h-33.3l-5.7-38.1h-40.5l-5.7,38.1h-30.3L643,1443h48.3L724.9,1652.9z M649.6,1586.3h31.8
		l-15.9-106.2L649.6,1586.3z"/>
	<path class="st0" d="M835.5,1574.6v27.9c0,33.6-16.8,52.8-49.2,52.8s-49.2-19.2-49.2-52.8v-109.1c0-33.6,16.8-52.8,49.2-52.8
		s49.2,19.2,49.2,52.8v20.4h-31.2v-22.5c0-15-6.6-20.7-17.1-20.7s-17.1,5.7-17.1,20.7v113.3c0,15,6.6,20.4,17.1,20.4
		s17.1-5.4,17.1-20.4v-30L835.5,1574.6z"/>
	<path class="st0" d="M852.9,1493.3c0-33.6,17.7-52.8,50.1-52.8s50.1,19.2,50.1,52.8v109.1c0,33.6-17.7,52.8-50.1,52.8
		s-50.1-19.2-50.1-52.8V1493.3z M885.9,1604.6c0,15,6.6,20.7,17.1,20.7s17.1-5.7,17.1-20.7v-113.3c0-15-6.6-20.7-17.1-20.7
		s-17.1,5.7-17.1,20.7V1604.6z"/>
	<path class="st0" d="M974.4,1443h52.2c33,0,49.2,18.3,49.2,51.9V1601c0,33.6-16.2,51.9-49.2,51.9h-52.2V1443z M1007.3,1473v149.9
		h18.6c10.5,0,16.8-5.4,16.8-20.4v-109.1c0-15-6.3-20.4-16.8-20.4H1007.3z"/>
	<path class="st0" d="M1129.7,1531.4h45.3v30h-45.3v61.5h57v30h-90V1443h90v30h-57V1531.4z"/>
	<path class="st0" d="M1250.2,1569.2l-10.2,19.2v64.5h-33V1443h33v91.5l43.2-91.5h33l-45.9,93.6l45.9,116.3h-33.9L1250.2,1569.2z"/>
	<path class="st0" d="M1331.2,1443h33v209.9h-33V1443z"/>
	<path class="st0" d="M1388.2,1443h52.2c33,0,49.2,18.3,49.2,51.9V1601c0,33.6-16.2,51.9-49.2,51.9h-52.2V1443z M1421.2,1473v149.9
		h18.6c10.5,0,16.8-5.4,16.8-20.4v-109.1c0-15-6.3-20.4-16.8-20.4H1421.2z"/>
	<path class="st0" d="M1554.9,1440.6c32.1,0,48.6,19.2,48.6,52.8v6.6h-31.2v-8.7c0-15-6-20.7-16.5-20.7s-16.5,5.7-16.5,20.7
		c0,43.2,64.5,51.3,64.5,111.2c0,33.6-16.8,52.8-49.2,52.8s-49.2-19.2-49.2-52.8v-12.9h31.2v15c0,15,6.6,20.4,17.1,20.4
		s17.1-5.4,17.1-20.4c0-43.2-64.5-51.3-64.5-111.2C1506.3,1459.8,1522.8,1440.6,1554.9,1440.6z"/>
</g>
</svg>
