<svg xmlns="http://www.w3.org/2000/svg" viewBox="0 0 1439.56 1453.43"><defs><style>.cls-1{isolation:isolate;}.cls-2{mix-blend-mode:multiply;}.cls-3{fill:#f4b400;}.cls-4{fill:#db4437;}</style></defs><g class="cls-1"><g id="Layer_1" data-name="Layer 1"><g class="cls-2"><path class="cls-3" d="M997.93,478.86a251.78,251.78,0,0,1,191.5,76.9,249.06,249.06,0,0,1,69.7,162,8.77,8.77,0,0,1-8.65,9.19l-55,.6a8.77,8.77,0,0,1-8.83-8.29c-5.41-94.53-84.55-169.27-180.2-168.23S833.34,628.55,830,723.18a8.76,8.76,0,0,1-8.64,8.47l-55,.6a8.77,8.77,0,0,1-8.84-9A251,251,0,0,1,997.93,478.86Z" transform="translate(-302.93 -295)"/></g><g class="cls-2"><path class="cls-3" d="M1016.18,1552.9A251.84,251.84,0,0,1,824.69,1476,249.06,249.06,0,0,1,755,1314a8.77,8.77,0,0,1,8.65-9.19l55-.59a8.74,8.74,0,0,1,8.82,8.28c5.42,94.53,84.56,169.27,180.21,168.23s173.14-77.48,176.5-172.11a8.75,8.75,0,0,1,8.64-8.47l55-.59a8.76,8.76,0,0,1,8.85,9,251,251,0,0,1-240.42,244.39Z" transform="translate(-302.93 -295)"/></g><g class="cls-2"><path class="cls-3" d="M824.46,1099.39q.94,55,30.71,85.86a177.14,177.14,0,0,0-16.35,68.38,8.76,8.76,0,0,1-8.64,8.48l-55,.59a8.75,8.75,0,0,1-8.84-9A248.9,248.9,0,0,1,824.46,1099.39Z" transform="translate(-302.93 -295)"/><path class="cls-3" d="M1025.07,1033.09l41.07-1.3-.08,32a91.21,91.21,0,0,1-3,23.67,178.76,178.76,0,0,0-129.47,14.87c-.16-2-.24-4-.24-6.15q.06-31.32,22.73-46.58T1025.07,1033.09Z" transform="translate(-302.93 -295)"/><path class="cls-3" d="M1268,1248.26a8.76,8.76,0,0,1-8.65,9.19l-55,.59a8.74,8.74,0,0,1-8.82-8.28,177.49,177.49,0,0,0-24.27-80l.27-107.64A250.49,250.49,0,0,1,1268,1248.26Z" transform="translate(-302.93 -295)"/></g><g class="cls-2"><path class="cls-3" d="M481.65,1036.54A251.82,251.82,0,0,1,558.56,845a249,249,0,0,1,162-69.69,8.76,8.76,0,0,1,9.19,8.64l.59,55a8.75,8.75,0,0,1-8.28,8.83c-94.53,5.41-169.27,84.56-168.23,180.2s77.48,173.14,172.11,176.5a8.76,8.76,0,0,1,8.47,8.65l.6,55a8.77,8.77,0,0,1-9,8.84,251,251,0,0,1-244.39-240.41Z" transform="translate(-302.93 -295)"/></g><g class="cls-2"><path class="cls-3" d="M1555.86,1018.29a251.84,251.84,0,0,1-76.9,191.5,249.1,249.1,0,0,1-162,69.69,8.76,8.76,0,0,1-9.19-8.65l-.6-55a8.76,8.76,0,0,1,8.28-8.82c94.53-5.42,169.27-84.56,168.23-180.2s-77.48-173.15-172.11-176.51a8.75,8.75,0,0,1-8.47-8.64l-.59-55a8.76,8.76,0,0,1,9-8.85,251,251,0,0,1,244.39,240.42Z" transform="translate(-302.93 -295)"/></g><path class="cls-4" d="M1025.07,1033.09l41.07-1.3-.08,32a91.21,91.21,0,0,1-3,23.67,69.13,69.13,0,0,1-19.26,32.66q-22.15,21.19-59,21.1-47.88-.15-51.17-38.89c-.16-2-.24-4-.24-6.15q.06-31.32,22.73-46.58T1025.07,1033.09Z" transform="translate(-302.93 -295)"/><path class="cls-4" d="M1341.36,780.39a145.29,145.29,0,0,0-83.71-80.5,142.76,142.76,0,0,0-49.46-8.81h-382a142.75,142.75,0,0,0-67.82,17.08A145.48,145.48,0,0,0,694,778a142.62,142.62,0,0,0-11.9,57.15v382a142.53,142.53,0,0,0,11.82,56.95,145.49,145.49,0,0,0,64.27,69.94,142.75,142.75,0,0,0,68,17.16h382a142.53,142.53,0,0,0,43-6.62,145.23,145.23,0,0,0,87.68-77.09,142.69,142.69,0,0,0,13.34-60.34v-382A142.44,142.44,0,0,0,1341.36,780.39ZM1171.2,1197.53a14.94,14.94,0,0,1-14.86,14.89l-62.2.27a15.57,15.57,0,0,1-15.63-14.8l-1.77-35.9a2.92,2.92,0,0,0-2.91-2.79,203.55,203.55,0,0,1-27.27,28.52,122.74,122.74,0,0,1-28,18.16q-28.41,13-74,12.86-56-.13-88.14-32.24c-.41-.41-.83-.82-1.23-1.25q-29.77-30.84-30.71-85.86c0-1.38,0-2.76,0-4.16q.15-61.93,43.56-91.24t130.77-32.23l67.53-1.91,0-17.06q.15-59.17-60.42-59.33-39.67-.09-91.25,20.19A21.68,21.68,0,0,1,887.24,903l-14.75-30.26a25.24,25.24,0,0,1,13.12-34.41q57.43-23.62,124.68-23.46,78.32.18,120,34.4t41.5,103.83l-.26,109.1-.27,107.64Z" transform="translate(-302.93 -295)"/><circle class="cls-3" cx="76.25" cy="714.1" r="76.25"/><circle class="cls-3" cx="698.25" cy="1377.18" r="76.25"/><circle class="cls-3" cx="1363.31" cy="733.68" r="76.25"/><circle class="cls-3" cx="715.82" cy="76.25" r="76.25"/></g></g></svg>