<?xml version="1.0" encoding="utf-8"?>
<!-- Generator: Adobe Illustrator 21.0.2, SVG Export Plug-In . SVG Version: 6.00 Build 0)  -->
<svg version="1.1" id="Layer_1" xmlns="http://www.w3.org/2000/svg" xmlns:xlink="http://www.w3.org/1999/xlink" x="0px" y="0px"
	 viewBox="0 0 1858.1 444.5" style="enable-background:new 0 0 1858.1 444.5;" xml:space="preserve">
<style type="text/css">
	.st0{fill:#191919;}
</style>
<title>dare to be different</title>
<path class="st0" d="M189.2,13c3.8,2.3,7.4,5,10.6,8.1c3.7,3.7,6.9,7.9,9.5,12.4c3.2,5.4,5.6,11.3,7,17.5c1.7,7.7,2.9,15.6,3.4,23.5
	c0.6,10.1,0,20.2-1.8,30.2c-5,33.3-14.2,65.9-27.5,96.8c-13.1,30.9-30.3,60-51,86.4c-17.4,21.9-35.3,39.5-53.7,52.6
	c-18.4,13.1-34.2,19.7-47.6,19.7h-0.5c-2.2,0-4.4-0.3-6.5-0.8c-2.4,14.6-4,25.9-4.7,33.9l1-2.6c0.4-1.3,1.4-2.4,2.7-2.9
	c1.3-0.5,2.7-0.5,3.9,0c2.6,1,3.8,4,2.7,6.5c0,0,0,0,0,0c-3,7.3-5.4,12.5-7.4,15.5s-4.2,4.5-6.7,4.6c-0.6,0-1.3-0.2-1.8-0.5
	c-1.9-0.6-3.4-2.1-4-4c-0.8-2.2-0.9-7.6-0.3-16.3s2.3-21.4,5.1-38.1c-7.1-4.9-11.3-12.9-12.5-24c-0.2-0.9-0.1-1.8,0.3-2.6
	c0.3-0.9,0.9-1.6,1.7-2.1c0.8-0.5,1.6-0.8,2.5-1c0.7,0,1.3,0.1,2,0.3c0.6,0.2,1.2,0.5,1.7,0.9c0.5,0.4,0.9,0.9,1.3,1.4
	c0.4,0.5,0.5,1.2,0.5,1.8c0.7,5.7,2.1,10.2,4.4,13.3c7-40.4,21-112.1,42-215.1c9-44.7,15.2-75.4,18.5-92.2c-2.8,1.7-5.4,3.5-7.8,5.2
	c-8.2,5.9-15.9,12.5-23,19.7c-7.5,7.6-14.2,15.9-20.2,24.8c-6.2,9.1-11.3,18.9-15,29.2c-3.8,10.6-6.2,21.7-7.3,32.9
	c-1.2,12-0.3,24.2,2.6,35.9c0.2,1.3-0.1,2.7-0.8,3.8c-0.7,1.1-1.8,1.9-3.1,2.1c-1.3,0.3-2.7,0-3.8-0.7c-1.1-0.7-1.9-1.8-2.2-3.1
	c-3.1-12.6-4-25.6-2.7-38.5c1.2-12.1,3.8-23.9,7.8-35.4c4-11.1,9.3-21.6,15.9-31.3c6.3-9.5,13.5-18.3,21.4-26.5
	c7.5-7.7,15.7-14.7,24.4-21c5.4-3.8,10.8-7.3,16.2-10.4c1.4-7.3,2.6-13.6,3.6-18.8c0.1-1.3,0.9-2.5,2-3.3c1.1-0.8,2.5-1.1,3.8-0.8
	c1.3,0.2,2.5,1,3.3,2.1c0.8,1.1,1.1,2.5,0.9,3.8c-0.7,3.1-1.4,6.9-2.1,11.2c17.1-8.2,33.6-12.7,49.7-13.4S177.6,6.2,189.2,13z
	 M208,103.3c2.8-20.3,2.1-37.4-1.9-51.3S194.7,28,183.9,21.4c-11-6.4-24.3-8.9-39.9-7.4s-31.8,6.7-48.6,15.5
	c-3.5,17.8-10.3,51.4-20.4,101c-21.8,106.9-35.9,179.9-42.6,219c1.6,0.4,3.3,0.6,5,0.8H38c10.8,0,24.7-5.9,41.6-17.6
	s34.2-28.7,51.6-51c7.3-9.2,14.1-18.8,20.4-28.7c6.6-10.4,13.8-23.2,21.7-38.4c8.4-16.6,15.5-33.9,21-51.7
	C200.5,143.4,205.1,123.5,208,103.3z"/>
<path class="st0" d="M315.1,205.8c2.6-0.9,5.4,0.5,6.3,3.1c0,0,0,0,0,0c0.4,1.2,0.4,2.6-0.1,3.8c-18.6,38.5-35.2,57.7-49.9,57.7
	c-1,0-1.9-0.1-2.9-0.3c-11.7-2.3-18.9-17.9-21.7-47c-8.5,11.5-16.1,20.9-22.7,28.2c-5.9,6.3-11,8.4-15.1,6.5
	c-4.2-1.6-6.2-6.1-6-13.6c0-6.3,1.4-13.8,4.2-22.4c2.9-9,7-17.5,12.3-25.3c5.4-8.2,11.2-13.3,17.5-15.4c9.2-3.3,17.7-0.3,25.6,9.1
	c0.9,1,1.3,2.3,1.2,3.7c-0.1,1.3-0.7,2.6-1.7,3.4c-1,0.9-2.3,1.3-3.6,1.2c-1.3-0.1-2.6-0.7-3.4-1.7c-6.1-7.3-12.3-8.7-18.5-4.2
	c-7.1,5-13.1,14.1-17.9,27.3c-4.8,13.1-6.7,22.5-5.6,28.1c1-0.9,2.3-2,3.6-3.4c7-7.5,15.5-18.2,25.6-32.1l4.7-6.5
	c1.3-1.7,3.5-2.4,5.5-1.7c2.1,0.5,3.7,2.4,3.6,4.6c0.3,7.6,1,15.2,2.1,22.7c0.7,5.1,1.8,10.1,3.1,15c0.9,3,2.1,5.8,3.6,8.5
	c0.9,1.6,2,3,3.3,4.3c0.7,0.6,1.6,0.9,2.5,0.9c2.4,0.5,5.5-0.7,9.3-3.5s8.5-8.4,14.4-16.7c6.8-10,12.8-20.5,17.9-31.4
	C312.7,207.3,313.8,206.3,315.1,205.8z"/>
<path class="st0" d="M417.5,204.8c1.2-0.4,2.6-0.3,3.8,0.3c1.2,0.6,2.1,1.6,2.6,2.9c0.5,1.2,0.4,2.6-0.3,3.8
	c-4.7,10.1-10,20.4-15.9,31.1s-12.4,21.4-19.5,32.2c-7,10.9-14,19.8-21,26.6c-7,6.9-12.9,10.3-17.8,10.3c-1.2,0-2.3-0.3-3.4-0.8
	c-7.1-2.8-9.4-13.6-6.8-32.4c2.4-17.6,8.9-42.5,19.3-74.7c-0.1,0-0.3,0-0.4,0.1s-0.2,0.1-0.4,0.1c-3.8,2.6-7,4.6-9.5,6
	c-3.3,1.8-6.7,3.3-10.2,4.7c-3.8,1.7-8,2.5-12.1,2.3c-3.8-0.2-7.6-1.4-10.7-3.7c-6.6-4.7-10-11.2-10.2-19.6s3-17.5,9.4-27.4
	c3.9-6.2,8.8-11.8,14.5-16.5c5.7-4.7,10.5-5.7,14.5-3.1c2.5,1.4,4.1,4,4.3,6.8c0.4,3.1-1.1,9.2-4.6,18.1c-3.5,9-9.3,20.7-17.5,35.1
	c5.4,0.7,14.3-3.1,26.6-11.2c1.6-1.2,3.3-2.3,5.1-3.3c1.1-0.6,2.4-1.3,3.9-2c1.2-0.6,2.5-0.9,3.8-0.8c1.1,0.2,2.2,0.7,3.1,1.3
	c2.6,2.1,3.1,5.8,1.3,11c-17.4,54-24.3,86.7-20.6,98.2l0.8,1.6c1.4,0.2,3.5-1,6.4-3.4c3.9-3.5,7.5-7.4,10.7-11.5
	c4.3-5.2,8.9-11.5,13.8-18.8c5-7.3,10.4-16.3,16.4-26.8c6-10.6,11.8-21.9,17.4-33.9C415.1,206.2,416.1,205.2,417.5,204.8z
	 M316.1,187.1c-1.6,6.1-1.2,11,1,14.6c12.7-22.1,19.5-37.1,20.4-44.9c-2.6,1.7-5.1,3.7-7.2,6c-3.1,3.3-5.9,7-8.4,10.8
	C319.2,177.8,317.2,182.4,316.1,187.1z"/>
<path class="st0" d="M495.4,205c1.3-0.3,2.7,0,3.8,0.8c1.1,0.7,1.9,1.9,2,3.3c0.2,1.3-0.1,2.6-0.8,3.7c-19.7,27.5-37.6,47-53.8,58.5
	c-6.4,4.5-12.8,6.8-19.1,6.8c-4.6,0.1-9.1-1.3-12.8-3.9c-2.2-1.7-4.1-3.8-5.6-6.3c-2-3.4-3.4-7.1-4.3-11c-1.2-4.7-1.4-10.8-0.7-18.5
	c1.1-8.9,3-17.6,5.9-26.1v-0.3c4.9-15.8,10.8-28.4,17.8-37.6c7-9.2,13.2-13.9,18.8-14.1c4-0.2,6.6,1.6,7.8,5.2
	c1.9,5-0.3,12.2-6.8,21.4s-16,19.2-28.6,29.8c-1.9,6.1-3.4,12.4-4.4,18.8c-0.8,4.5-1.1,9.1-0.9,13.7c0.2,3,0.8,6,1.8,8.9
	c0.6,1.9,1.5,3.7,2.6,5.3c0.7,1,1.5,1.8,2.5,2.6c5.2,3.8,11.9,2.8,20.1-3.1c15.3-10.8,32.4-29.4,51.2-55.9
	C492.8,205.9,494.1,205.2,495.4,205z M444.8,171.2c-6.1,3.8-12.1,12.1-18,24.8C436.8,185.9,442.8,177.7,444.8,171.2L444.8,171.2z"/>
<path class="st0" d="M787.3,110.1c0.8,1,1.2,2.3,1,3.7c-0.2,1.4-0.9,2.6-2.1,3.4c-1.8,1.4-4.3,1.3-6-0.3c-8.4-3-67-3.2-176-0.8
	c-11.3,47.5-22.8,99-34.5,154.5c-13.9,67-22.4,113-25.3,138.1c0.3,0,0.7,0.1,1,0.3c1.3,0.3,2.4,1.2,2.9,2.5c0.5,1.2,0.5,2.6,0,3.8
	c-0.6,2.1-1.4,4.1-2.2,6.1c-0.7,1.4-1.6,2.8-2.7,3.9c-1,1.2-2.4,1.9-3.9,2c-0.6,0-1.2-0.1-1.8-0.3c-2.3-0.7-3.6-2.5-4-5.5
	c-0.4-4-0.2-8.1,0.7-12c0.7-7.3,2.2-17.9,4.7-31.6c4.4-26.1,10.9-60,19.6-101.8c11.7-56.4,23.4-109.6,35.2-159.8
	c-11.8,0.2-26.5,0.5-44.1,1c-27.8,0.7-44.2,1-49.1,1c-2.7,0.1-4.9-2.1-5-4.8c0-0.1,0-0.1,0-0.2c0-0.9,0.2-1.7,0.7-2.5
	c0.4-0.8,1.1-1.4,1.8-1.8c0.8-0.4,1.6-0.6,2.5-0.7c4.9,0,21.1-0.4,48.8-1.3c17.2-0.3,32.9-0.7,47-1c5.6-23,10.5-42.5,14.9-58.5
	c0.3-1.3,1.2-2.5,2.3-3.1c1.1-0.7,2.5-0.9,3.8-0.5c1.3,0.3,2.4,1.2,3,2.3c0.7,1.2,0.9,2.6,0.5,3.9c-4.2,15.5-9,34-14.4,55.6
	c52.2-1.4,91.6-1.9,118.3-1.6c26.6,0.3,43.4,0.9,50.3,1.7C782,106.9,786,108.3,787.3,110.1z"/>
<path class="st0" d="M692.5,206.2c1.3-0.2,2.7,0.2,3.8,1c1.1,0.8,1.8,2,2,3.4c0.2,1.3-0.2,2.6-1,3.7c-6.9,9-15.6,16.4-25.6,21.7
	c-9.9,5.2-19.2,6.9-27.9,5c-2.1,5.5-5.6,10.3-10.2,14c-4.4,3.4-8.9,5.1-13.6,5.1h-0.3c-4.6-0.1-9-1.8-12.4-4.8
	c-3.7-3.3-6.3-7.8-7.4-12.7c-2.3-8-1.9-16.6,1.2-24.4c3-7.7,7.4-13.4,13.2-17.1c1.2-0.9,2.8-1.1,4.2-0.5c1.3-3.5,3.6-6.6,6.7-8.9
	c4-3.3,9.8-3.4,13.8-0.1c1.8,1.5,3.3,3.3,4.4,5.3c1.5,2.4,2.6,6.2,3.3,11.2c0.7,6,0.9,12,0.5,18c-0.2,1.7-0.4,3.5-0.8,5.2
	c6.6,1.4,14-0.3,22.1-5c8-4.7,15.1-10.9,20.7-18.3C690,207,691.2,206.4,692.5,206.2z M619.9,249.8c2.4,0,5-1.1,7.7-3.4
	c2.9-2.5,5.2-5.6,6.7-9.1c-11.3-6.3-17.3-14.8-17.8-25.6c-3.7,3.6-6.2,8.3-7.2,13.3c-1.3,5.6-1.3,10.4,0.1,14.6
	C611.4,246.4,614.9,249.8,619.9,249.8L619.9,249.8z M636.9,225.5c0.3-3.6,0.4-7.2,0.1-10.8c-0.3-3-0.6-5.5-0.9-7.4
	c-0.3-1.6-0.7-3.2-1.3-4.7c-0.4-0.9-0.8-1.8-1.4-2.6c-0.4-0.5-0.7-0.8-0.9-0.8h-0.3c-0.7,0-1.5,0.6-2.6,1.7
	c-1.1,1.3-1.9,2.9-2.3,4.6c-1,3.7-0.9,7.6,0.5,11.2c1.4,3.8,4.4,7.3,9.1,10.4L636.9,225.5z"/>
<path class="st0" d="M871.7,205c1.3-0.3,2.7,0,3.8,0.7c1.2,0.7,2,1.8,2.3,3.1c0.4,1.3,0.1,2.7-0.8,3.7c-7,11.4-15.3,21.8-24.8,31.2
	c-8.9,9-18.8,16.9-29.5,23.8c-8.8,5.6-17.9,10.8-27.3,15.4c-7.9,3.8-16.1,7.2-24.4,10.1c-2.2,1-4.7,0-5.7-2.1
	c-2.8,7-5.2,13.8-7.3,20.6c-0.7,2.3-2.3,3.4-5,3.4h-0.8c-1.2-0.2-2.3-0.8-3-1.7c-0.8-0.9-1.2-2.1-1.2-3.3c0.2-4,4.4-24.7,12.7-62.1
	c8.3-37.4,16.6-74,24.9-109.7c0-0.5,0.1-1.1,0.3-1.6c3-12.5,5.4-22.6,7.3-30.3c5.9-24,12.7-44.5,20.5-61.5c7.7-17,14.4-26,20-27
	c2.6-0.7,5.3,0.4,6.8,2.6c3.8,5,1.6,18.4-6.5,40.2c-8.2,21.8-21,48.3-38.4,79.6c-9.4,39.5-18.3,78.6-26.6,117.2
	c4-8.6,8.7-16.8,14.1-24.5c13.6-19,24.4-27.2,32.4-24.8c5.2,1.6,7.9,6.2,8.1,13.8c-0.1,4.2-0.6,8.3-1.7,12.4
	c-1.4,5.3-3.2,10.4-5.6,15.3c-2.6,5.6-5.8,10.9-9.4,15.9c27.1-16,47.8-35.4,61.9-58.2C869.3,206.1,870.4,205.3,871.7,205z
	 M768.2,283.2c6.4-2.3,12.4-5.7,17.6-10.1c5.2-4.1,9.8-9,13.6-14.5c3.3-4.8,6.2-9.9,8.6-15.3c2-4.5,3.6-9.2,4.6-14
	c1.2-6.1,1.2-10,0-11.8c-1,0.1-1.9,0.4-2.7,0.9c-1.1,0.6-3.4,2.6-6.9,6c-4.2,4.3-8.1,9-11.5,14C784,249,776.2,263.9,768.2,283.2
	L768.2,283.2z M831.9,32.1c-9.4,13.9-18.3,36.6-26.6,68.1C820.4,69.6,829.3,46.9,831.9,32.1L831.9,32.1z"/>
<path class="st0" d="M949.6,205c1.3-0.3,2.7,0,3.8,0.8c1.1,0.7,1.9,1.9,2,3.3c0.2,1.3-0.1,2.6-0.8,3.7c-19.7,27.5-37.6,47-53.8,58.5
	c-6.4,4.5-12.8,6.8-19.1,6.8c-4.6,0.1-9.1-1.3-12.8-3.9c-2.2-1.7-4.1-3.8-5.6-6.3c-2-3.4-3.4-7.1-4.3-11c-1.2-4.7-1.4-10.8-0.7-18.5
	c1.1-8.9,3-17.6,5.9-26.1v-0.3c4.9-15.8,10.8-28.4,17.8-37.6c7-9.2,13.2-13.9,18.8-14.1c4-0.2,6.6,1.6,7.8,5.2
	c1.9,5-0.3,12.2-6.8,21.4c-6.4,9.2-15.9,19.1-28.5,29.8c-1.9,6.1-3.4,12.4-4.4,18.8c-0.8,4.5-1.1,9.1-0.9,13.7c0.2,3,0.8,6,1.8,8.9
	c0.6,1.9,1.5,3.7,2.6,5.3c0.7,1,1.5,1.8,2.5,2.6c5.2,3.8,11.9,2.8,20.1-3.1c15.3-10.8,32.4-29.4,51.2-55.9
	C947.1,205.9,948.3,205.3,949.6,205z M899,171.2c-6.1,3.8-12.1,12.1-18,24.8C891.1,185.9,897.1,177.7,899,171.2L899,171.2z"/>
<path class="st0" d="M1132.6,46.2c4.5,4.5,2.3,20.5-6.8,48l-2.9,8.6c-3.8,11.7-7,21-9.4,27.9c-2.4,7-6.2,16.7-11.4,29.3
	c-5.2,12.5-10.9,24.5-17,36c-5,24-9.8,49.6-14.4,76.8c-7.8,46.5-12,78-12.5,94.5c1.3-0.5,2.8-0.5,4.2,0c1.2,0.6,2.1,1.7,2.5,3
	c0.4,1.2,0.4,2.6-0.1,3.8c-3.1,6.6-6.3,9.9-9.4,9.9c-0.7,0-1.4-0.1-2.1-0.3c-1.8-0.6-3.3-2-4-3.8c-0.8-1.8-1.1-5.7-1-11.5
	c0.1-5.8,0.9-14.4,2.2-25.7c2.1-18.1,5.6-41.9,10.4-71.5c2.8-16.2,5.7-31.9,8.6-47.3c-5.4,8.7-11.1,17.4-17.2,26.1
	c-11.5,16.7-21.5,22.7-30,18c-5.6-4-8.3-11.1-8.1-21.3c0.3-10.7,2.9-21.3,7.6-30.9c5.7-12.2,12.5-21.1,20.4-26.9
	c7.8-5.7,14.8-7.7,20.9-5.9c6.1,1.8,9.6,6.4,10.4,13.7c0.9-1.4,1.7-2.8,2.3-4.2c9.2-43.7,18.5-78.8,27.8-105.3
	c9.3-26.5,16.9-40.8,22.8-42.7C1128.7,43.7,1131.1,44.4,1132.6,46.2z M1044.1,244.3c8.2-11.8,15.7-23.7,22.4-35.5
	c-2.6-0.9-3.7-2.6-3.1-5.2c0.7-6.4-0.5-10.1-3.4-11h-1.6c-3.7,0-8.1,2.4-13.4,7.2c-5.3,4.8-10.1,11.6-14.2,20.5
	c-2.7,5.6-4.6,11.5-5.6,17.6c-0.9,4.8-1.1,9.7-0.7,14.6c0.5,3.7,1.5,6,2.9,6.7c0.8,0.4,1.7,0.3,2.5-0.1c1.1-0.4,3-1.9,5.6-4.4
	C1038.7,251.5,1041.6,248,1044.1,244.3z M1116.2,91.1c3-8.9,5.5-18,7.6-27.2c-8.5,17.9-17.7,45.9-27.4,83.8
	c4.9-11.8,10.5-27.8,17-47.8C1114.5,96.1,1115.5,93.2,1116.2,91.1L1116.2,91.1z"/>
<path class="st0" d="M1175.6,204.1c1.3-0.4,2.7-0.2,3.8,0.5c1.2,0.6,2,1.8,2.2,3.1c0.3,1.3,0,2.7-0.7,3.9
	c-5.4,8.3-11.2,16.3-17.6,23.9c-6.9,8.3-14.7,15.8-23.2,22.3c-8.6,6.6-15.9,9.9-21.8,9.9c-1.9,0.1-3.7-0.3-5.5-1
	c-11.7-5-12.9-25.5-3.7-61.3c0.3-1.3,1.2-2.5,2.3-3.1c1.1-0.7,2.5-0.9,3.8-0.5c1.3,0.3,2.4,1.2,3,2.3c0.7,1.1,0.9,2.4,0.5,3.7
	c-2.1,8.4-3.6,15.7-4.6,22.1c-0.8,4.8-1.3,9.6-1.3,14.5c0,2.8,0.3,5.5,1,8.2c0.6,2.2,1.1,3.5,1.6,3.9c0.3,0.4,0.7,0.7,1.2,0.9
	c4.5,1.9,12.8-2.6,24.7-13.6c12-11,22.4-23.7,30.9-37.6C1173.1,205.2,1174.3,204.5,1175.6,204.1z M1117.8,183.8
	c-5-0.3-6.6-2.4-4.7-6.3c1.4-2.8,3.8-5.1,6.8-6.3c4.3-1.4,7-0.3,7.8,3.4c0.9,3.5-0.4,6.1-3.9,7.8
	C1121.9,183.3,1119.8,183.8,1117.8,183.8L1117.8,183.8z"/>
<path class="st0" d="M1221.9,195c1.3-0.2,2.7,0.2,3.8,1c1.1,0.8,1.8,2,2,3.4c0.2,1.3-0.2,2.6-1,3.7c-0.8,1-2.1,1.7-3.4,1.8
	c-12.7,1.7-24.5,3.1-35.5,4.2c-10.1,41.6-19.5,83.5-28.2,125.6s-14.4,72.2-17,90.3h0.8c1.2,0.5,2.2,1.5,2.7,2.7
	c0.6,1.2,0.7,2.6,0.1,3.8c-1,3-1.9,5.2-2.5,6.7c-0.7,1.6-1.6,3-2.7,4.3c-0.9,1.2-2.4,2-3.9,2.1c-0.5,0-1.1-0.1-1.6-0.3
	c-2.6-0.7-3.9-3-4-6.9s1.1-13.7,3.5-29.1c3.1-18.8,7.9-43.3,14.4-73.6c8.5-41.6,17.8-83.2,27.9-124.8l-20.9,1.8h-0.5
	c-0.8,0-1.6-0.2-2.3-0.7c-0.7-0.4-1.3-1-1.7-1.7c-0.4-0.7-0.8-1.5-0.9-2.3c0-1.3,0.4-2.6,1.3-3.7c0.8-1,2.1-1.7,3.4-1.8
	c9.7-0.7,17.7-1.3,24-1.8c4.5-18.1,8.7-34.5,12.5-49.3c1.6-6.1,3.3-12.4,5.3-18.9c2-6.5,4.7-14.4,8-23.5c2.7-7.9,6.2-15.5,10.5-22.7
	c3.8-6,7.5-9.3,11-9.8c2.8-0.6,5.6,0.7,7,3.1c4.2,6.3,2,20-6.4,41.3c-8.4,21.2-19.8,43.2-34.1,65.8c-0.2,0.1-0.2,0.3-0.3,0.5
	c-0.9,3.3-1.9,7.5-3.1,12.5C1199.7,197.8,1210.3,196.5,1221.9,195z M1225.8,89.3c-7.7,11.5-15.5,32-23.5,61.6
	C1216.3,124.8,1224.1,104.2,1225.8,89.3L1225.8,89.3z"/>
<path class="st0" d="M1281.1,195c1.3-0.2,2.7,0.2,3.8,1c1.1,0.8,1.8,2,2,3.4c0.2,1.3-0.2,2.6-1,3.7c-0.8,1-2.1,1.7-3.4,1.8
	c-12.7,1.7-24.5,3.1-35.5,4.2c-10.1,41.6-19.5,83.5-28.2,125.6s-14.4,72.2-17,90.3h0.8c1.2,0.5,2.2,1.5,2.7,2.7
	c0.6,1.2,0.7,2.6,0.1,3.8c-1,3-1.9,5.2-2.5,6.7c-0.7,1.6-1.6,3-2.7,4.3c-0.9,1.2-2.4,2-3.9,2.1c-0.5,0-1.1-0.1-1.6-0.3
	c-2.6-0.7-3.9-3-4-6.9s1.1-13.7,3.5-29.1c3.1-18.8,7.9-43.3,14.4-73.6c8.5-41.6,17.8-83.2,27.9-124.8l-20.9,1.8h-0.6
	c-0.8,0-1.6-0.2-2.3-0.7c-0.7-0.4-1.3-1-1.7-1.7c-0.4-0.7-0.8-1.5-0.9-2.3c0-1.3,0.4-2.6,1.3-3.7c0.8-1,2.1-1.7,3.4-1.8
	c9.7-0.7,17.7-1.3,24-1.8c4.5-18.1,8.7-34.5,12.5-49.3c1.6-6.1,3.3-12.4,5.3-18.9c2-6.5,4.7-14.4,8-23.5c2.7-7.9,6.3-15.6,10.7-22.7
	c3.8-6,7.5-9.3,11-9.8c2.8-0.6,5.6,0.7,7,3.1c4.2,6.3,2,20-6.4,41.3c-8.4,21.2-19.8,43.2-34.1,65.8c-0.2,0.1-0.2,0.3-0.3,0.5
	c-0.9,3.3-1.9,7.5-3.1,12.5C1259,197.7,1269.5,196.5,1281.1,195z M1285.1,89.3c-7.7,11.5-15.5,32-23.5,61.6
	C1275.5,124.8,1283.4,104.2,1285.1,89.3z"/>
<path class="st0" d="M1372,205c1.3-0.3,2.7,0,3.8,0.8c1.1,0.7,1.9,1.9,2,3.3c0.2,1.3-0.1,2.6-0.8,3.7c-19.7,27.5-37.6,47-53.8,58.5
	c-6.4,4.5-12.8,6.8-19.1,6.8c-4.6,0.1-9.1-1.3-12.8-3.9c-2.2-1.7-4.1-3.8-5.6-6.3c-2-3.4-3.4-7.1-4.3-11c-1.2-4.7-1.4-10.8-0.7-18.5
	c1.1-8.9,3-17.6,5.9-26.1v-0.3c4.9-15.8,10.8-28.4,17.8-37.6c7-9.2,13.2-13.9,18.8-14.1c4-0.2,6.6,1.6,7.8,5.2
	c1.9,5-0.3,12.2-6.8,21.4c-6.4,9.2-15.9,19.1-28.5,29.8c-1.9,6.1-3.4,12.4-4.4,18.8c-0.8,4.5-1.1,9.1-0.9,13.7c0.2,3,0.8,6,1.8,8.9
	c0.6,1.9,1.5,3.7,2.6,5.3c0.7,1,1.5,1.8,2.5,2.6c5.2,3.8,11.9,2.8,20.1-3.1c15.3-10.8,32.4-29.4,51.2-55.9
	C1369.5,205.9,1370.7,205.3,1372,205z M1321.4,171.2c-6.1,3.8-12.1,12.1-18,24.8C1313.4,185.9,1319.4,177.7,1321.4,171.2
	L1321.4,171.2z"/>
<path class="st0" d="M1474.2,204.8c1.2-0.4,2.6-0.3,3.8,0.3c1.2,0.6,2.1,1.6,2.6,2.9c0.5,1.2,0.4,2.6-0.3,3.8
	c-4.7,10.1-10,20.4-15.9,31.1c-5.9,10.6-12.4,21.4-19.4,32.2c-7,10.9-14,19.8-21,26.6c-7,6.9-12.9,10.3-17.8,10.3
	c-1.2,0-2.3-0.3-3.4-0.8c-7.1-2.8-9.4-13.6-6.8-32.4c2.4-17.6,8.9-42.5,19.3-74.7c-0.1,0-0.3,0-0.4,0.1s-0.2,0.1-0.4,0.1
	c-3.8,2.6-7,4.6-9.5,6c-3.3,1.8-6.7,3.3-10.2,4.7c-3.8,1.7-8,2.5-12.1,2.3c-3.8-0.2-7.6-1.4-10.7-3.7c-6.6-4.7-10-11.2-10.2-19.6
	c-0.2-8.4,3-17.5,9.4-27.4c3.9-6.2,8.8-11.8,14.5-16.4c5.7-4.7,10.5-5.7,14.5-3.1c2.5,1.4,4.1,4,4.3,6.8c0.4,3.1-1.1,9.2-4.6,18.1
	c-3.5,9-9.3,20.7-17.5,35.1c5.4,0.7,14.3-3.1,26.6-11.2c1.6-1.2,3.3-2.3,5.1-3.3c1.1-0.6,2.4-1.3,3.9-2c1.2-0.6,2.5-0.9,3.8-0.8
	c1.1,0.2,2.2,0.7,3.1,1.3c2.6,2.1,3.1,5.8,1.3,11c-17.4,54-24.3,86.7-20.6,98.2l0.8,1.6c1.4,0.2,3.5-1,6.4-3.4
	c3.9-3.5,7.5-7.4,10.7-11.5c4.3-5.2,8.9-11.5,13.8-18.8c5-7.3,10.4-16.3,16.4-26.9c6-10.6,11.8-21.9,17.4-33.9
	C1471.8,206.2,1472.9,205.2,1474.2,204.8z M1372.8,187.1c-1.6,6.1-1.2,11,1,14.6c12.7-22.1,19.5-37.1,20.4-44.9
	c-2.6,1.7-5.1,3.7-7.2,6c-3.1,3.3-5.9,7-8.3,10.8C1375.9,177.8,1373.9,182.4,1372.8,187.1L1372.8,187.1z"/>
<path class="st0" d="M1552.1,205c1.3-0.3,2.7,0,3.8,0.8c1.1,0.7,1.9,1.9,2,3.3c0.2,1.3-0.1,2.6-0.8,3.7
	c-19.7,27.5-37.6,47-53.8,58.5c-6.4,4.5-12.8,6.8-19.1,6.8c-4.6,0.1-9.1-1.3-12.8-3.9c-2.2-1.7-4.1-3.8-5.6-6.3
	c-2-3.4-3.4-7.1-4.3-11c-1.2-4.7-1.4-10.8-0.7-18.5c1.1-8.9,3-17.6,5.9-26.1v-0.3c4.9-15.8,10.8-28.4,17.8-37.6s13.2-13.9,18.8-14.1
	c4-0.2,6.6,1.6,7.8,5.2c1.9,5-0.3,12.2-6.8,21.4s-15.9,19.1-28.5,29.8c-1.9,6.1-3.4,12.4-4.4,18.8c-0.8,4.5-1.1,9.1-0.9,13.7
	c0.2,3,0.8,6,1.8,8.9c0.6,1.9,1.5,3.7,2.6,5.3c0.7,1,1.5,1.8,2.5,2.6c5.2,3.8,11.9,2.8,20.1-3.1c15.3-10.8,32.4-29.4,51.2-55.9
	C1549.6,205.9,1550.8,205.3,1552.1,205z M1501.5,171.2c-6.1,3.8-12.1,12.1-18,24.8C1493.6,185.9,1499.6,177.7,1501.5,171.2
	L1501.5,171.2z"/>
<path class="st0" d="M1644.8,205.4c1.3-0.4,2.7-0.2,3.9,0.5c1.2,0.6,2,1.7,2.3,3c0.4,1.3,0.2,2.7-0.5,3.8
	c-4.7,8.5-9.9,16.8-15.4,24.8c-3.7,5.4-8.2,10.2-13.3,14.4c-4.5,3.5-9,5-13.3,4.4c-8.7-1-15.6-10.4-20.6-28.2c-3.7-12-6.8-18-9.4-18
	c-0.8-0.1-1.6,0.1-2.2,0.7c-1.7,1.4-3.3,2.9-4.6,4.7c-2.6,3.2-4.9,6.7-6.9,10.3c-2.5,4.4-5.8,10.8-9.9,19.3s-8.5,18.6-13.2,30.3
	c-0.7,2-2.6,3.2-4.7,3.1c-0.3,0-0.7-0.1-1-0.3c-3-0.7-4.3-2.5-3.9-5.5c1.7-14.3,8.3-40.8,19.6-79.6c1.2-4,2.1-7,2.6-9.1
	c0.4-1.3,1.4-2.4,2.6-3c1.2-0.6,2.5-0.7,3.8-0.4c1.3,0.3,2.4,1.2,3,2.3c0.7,1.2,0.8,2.6,0.3,3.9c-0.4,1.2-1.2,4.3-2.6,9.1
	c-3.8,13.4-6.8,23.8-8.9,31.3c5.6-10.4,10.4-17.7,14.6-21.7c4.2-4,8.2-5.9,12-5.7c4.5,0.2,8.1,2.5,10.8,7c2.7,4.5,5.3,10.7,7.7,18.5
	c3.8,13.4,7.9,20.4,12.3,20.9c2.1,0.4,4.7-0.8,7.7-3.5c3.7-3.5,7-7.5,9.8-11.8c3.5-5.1,6.1-9.2,8-12.1c1.9-3,4-6.7,6.4-11.2
	C1642.4,206.6,1643.5,205.7,1644.8,205.4z"/>
<path class="st0" d="M1857.1,110.1c0.8,1,1.2,2.3,1,3.7c-0.2,1.4-0.9,2.6-2.1,3.4c-1.8,1.4-4.3,1.3-6-0.3c-8.4-3-67-3.2-176-0.8
	c-11.3,47.5-22.8,99-34.5,154.5c-13.9,67-22.4,113-25.3,138.1c0.3,0,0.7,0.1,1,0.3c1.3,0.3,2.4,1.2,2.9,2.5c0.5,1.2,0.5,2.6,0,3.8
	c-0.6,2.1-1.4,4.1-2.2,6.1c-0.7,1.4-1.6,2.8-2.7,3.9c-1,1.2-2.4,1.9-3.9,2c-0.6,0-1.2-0.1-1.8-0.3c-2.3-0.7-3.6-2.5-4-5.5
	c-0.4-4-0.2-8.1,0.7-12c0.7-7.3,2.2-17.9,4.7-31.6c4.4-26.1,10.9-60,19.6-101.8c11.7-56.4,23.4-109.6,35.2-159.8
	c-11.8,0.2-26.5,0.5-44.1,1c-27.8,0.7-44.2,1-49.1,1c-2.7,0.1-4.9-2.1-5-4.8c0-0.1,0-0.1,0-0.2c0-0.9,0.2-1.7,0.7-2.5
	c0.4-0.8,1.1-1.4,1.8-1.8c0.8-0.4,1.6-0.6,2.5-0.7c4.9,0,21.1-0.4,48.8-1.3c17.2-0.3,32.9-0.7,47-1c5.6-23,10.5-42.5,14.9-58.5
	c0.3-1.3,1.2-2.5,2.3-3.1c1.1-0.7,2.5-0.9,3.8-0.5c1.3,0.3,2.4,1.2,3,2.3c0.7,1.2,0.9,2.6,0.5,3.9c-4.2,15.5-9,34-14.4,55.6
	c52.2-1.4,91.6-1.9,118.3-1.6s43.4,0.9,50.3,1.7C1851.7,106.9,1855.8,108.3,1857.1,110.1z"/>
</svg>
