<svg id="Layer_1" data-name="Layer 1" xmlns="http://www.w3.org/2000/svg" viewBox="0 0 769.7 747.5"><title>Express Yourself</title><path d="M781.67,648.13a4.59,4.59,0,0,1,4.65,4.65,4.73,4.73,0,0,1-.61,2.32,4.31,4.31,0,0,1-1.71,1.71,4.7,4.7,0,0,1-2.32.61q-28.13.49-67.27,6.24t-75.58,14.8q-4.9,20.55-18.59,72.4Q609.47,792,604.33,813q34.24-9,66.41-15.53t41-6a5,5,0,0,1,3.18,1.59,4.32,4.32,0,0,1,1.1,3.3,5,5,0,0,1-1.47,3.3,4.49,4.49,0,0,1-3.3,1.35q-4.9-.49-18.59,1.83t-32.9,6.48q-19.2,4.16-40.24,9.29-9.3,2.45-17.86,4.65-23.48,94.9-24.22,130.13-.25,16.88,6.12,19.57,3.67,1.71,9.66-.37a60.49,60.49,0,0,0,14.06-7.71q8.07-5.63,15.17-11.13T639.56,939q10-9.3,15.29-14.31t14.06-13.58l7.58-7.58,4.16-3.91q9.54-9.3,13.21-12.47,2.44-2.2,3.67-3.18a28.09,28.09,0,0,1,3.06-2.08,5.63,5.63,0,0,1,3.3-1,6.51,6.51,0,0,1,4.65,4.16q.24,1.59-1.35,4.52a56.45,56.45,0,0,1-3.3,5.38q-1.71,2.44-6.11,8.32a4.49,4.49,0,0,1-3.18,2,4.31,4.31,0,0,1-3.42-1,3.84,3.84,0,0,1-1-.73l-2.94,2.94-4.16,3.91q-2.45,2.44-7.58,7.34Q662.79,930.16,654,938.47T634.54,956a222,222,0,0,1-18.47,14.55,102.49,102.49,0,0,1-15.65,8.93q-7.83,3.54-13.7,3.55a15.12,15.12,0,0,1-6.85-1.47q-12.23-5.14-11.74-28.13.49-36,23-127.19-49.41,13.94-55.77,20.06a4.3,4.3,0,0,1-3.18,1.22,4.59,4.59,0,0,1-4.65-4.65,4.69,4.69,0,0,1,1.47-3.42q8.56-8.31,64.82-23.73,5.62-22.5,17.37-67.26,12.47-47.45,17.37-67.27A406.8,406.8,0,0,0,589,693.38a164.43,164.43,0,0,0-28.5,13.45q-11.5,7.1-13.45,13.7-2,6.12,8.07,13a5.21,5.21,0,0,1,1.83,3.06,5,5,0,0,1-.61,3.55,4.65,4.65,0,0,1-3.91,2,5.13,5.13,0,0,1-2.69-.73Q534.13,730.56,538,717.84q7.58-25.19,92.95-47.21,1.47-6.11,2.45-10.52a3.74,3.74,0,0,1,2-2.94,5,5,0,0,1,3.55-.61,4.55,4.55,0,0,1,2.94,2,4.19,4.19,0,0,1,.61,3.55q-.49,2.45-1.22,6.12,36-8.81,74.36-14.31T781.67,648.13Z" transform="translate(-475.5 -648.13)"/><path d="M786.81,807.12a4.62,4.62,0,0,1,2.94,2.08,4.76,4.76,0,0,1-1.71,6.48q-16.39,10-37.42,38.4A104.86,104.86,0,0,0,760.14,871q4.89,6.85,9.05,8.32,2.94,1,5.63-3.18a4.1,4.1,0,0,1,2.94-2.08,4.53,4.53,0,0,1,3.55.73,4.61,4.61,0,0,1,2,3.06,4.47,4.47,0,0,1-.61,3.42q-5.14,7.58-12.23,7.58a16.1,16.1,0,0,1-3.91-.49q-10.77-3.67-22-25.44a466.15,466.15,0,0,0-29.6,48.68,4.61,4.61,0,0,1-4.16,2.45,3.58,3.58,0,0,1-2.2-.73,4.09,4.09,0,0,1-2.32-2.69,4.45,4.45,0,0,1,.37-3.67,526.67,526.67,0,0,1,33.27-54.06q-10.27-23.48-9.78-35.47a4.31,4.31,0,0,1,1.47-3.3,4.48,4.48,0,0,1,3.42-1.22,4.75,4.75,0,0,1,3.3,1.59,4.92,4.92,0,0,1,1.35,3.42q-.49,7.83,6.6,26.17,20.05-26.42,36.94-36.45A4.8,4.8,0,0,1,786.81,807.12Z" transform="translate(-475.5 -648.13)"/><path d="M845.75,793.42q7.34,2.2,9.78,11.62t-.73,21.89q-5.87,21.53-28.86,39.87a116.6,116.6,0,0,1-21,13.7q-8.81,36-19.69,89.4t-16,84.51a4.29,4.29,0,0,1-4.65,3.91h-.73a5.42,5.42,0,0,1-2.2-1,4.5,4.5,0,0,1-1.47-2,4.26,4.26,0,0,1-.24-2.45q6.36-42.81,28.13-165.35-2.93,1-5.87,1.71a4.14,4.14,0,0,1-3.67-.25,4.52,4.52,0,0,1-2.2-2.93,4.81,4.81,0,0,1,.49-3.67,4.52,4.52,0,0,1,2.94-2.2,66,66,0,0,0,10-3.42q1.71-8.56,4.65-25.44,12.71-71.42,13-74.6a4.49,4.49,0,0,1,1.35-3.3,4.22,4.22,0,0,1,3.06-1.35,4.12,4.12,0,0,1,3.42,1.1,5.24,5.24,0,0,1,1.71,3.3q0,2-11.5,66.53,3.67-10.27,7.46-18.59a129.17,129.17,0,0,1,7.09-13.7,56.73,56.73,0,0,1,6.73-9.05,38.28,38.28,0,0,1,6.12-5.5,21.53,21.53,0,0,1,5.26-2.69,11.84,11.84,0,0,1,4.4-.73A13.42,13.42,0,0,1,845.75,793.42Zm0,31.06q2.2-9.54,1.1-15.41t-3.79-6.6a1,1,0,0,0-.73-.25,6.58,6.58,0,0,0-3.3,1.1,26.06,26.06,0,0,0-4.77,4.16,51.41,51.41,0,0,0-6,7.83,108,108,0,0,0-6.85,13.09q-3.8,8.32-7.46,19.08-2.45,7.34-5.87,20.55a108.93,108.93,0,0,0,24.09-19.81Q842.32,837,845.75,824.49Z" transform="translate(-475.5 -648.13)"/><path d="M971.11,828.53a4.49,4.49,0,0,1,3.55.24,5,5,0,0,1,2.45,2.69,3.9,3.9,0,0,1-.24,3.55q-6.6,14.19-14.92,29.11t-18.22,30.21A149.1,149.1,0,0,1,924,919.27q-9.79,9.66-16.63,9.66a7,7,0,0,1-3.18-.73q-10-3.92-6.36-30.33,3.42-24.7,18.1-70a.5.5,0,0,0-.37.12.5.5,0,0,1-.37.12q-5.38,3.67-8.93,5.63a93,93,0,0,1-9.54,4.4,26.79,26.79,0,0,1-11.37,2.2,19,19,0,0,1-10-3.42q-9.3-6.6-9.54-18.34t8.81-25.68a66.27,66.27,0,0,1,13.58-15.41q7.95-6.6,13.58-2.94a8.16,8.16,0,0,1,4,6.36q.61,4.4-4.28,17t-16.39,32.9q7.58,1,24.95-10.52a56.31,56.31,0,0,1,4.77-3.06q1.59-.85,3.67-1.83a6.2,6.2,0,0,1,3.55-.73,7.59,7.59,0,0,1,2.94,1.22q3.67,2.93,1.22,10.27-24.46,75.83-19.32,92l.73,1.47q2,.24,6-3.18a86.18,86.18,0,0,0,10-10.76q6-7.34,13-17.61T952,862.89q8.44-14.92,16.27-31.8A4.81,4.81,0,0,1,971.11,828.53Zm-95-16.51q-2.2,8.56,1,13.7,17.85-31.06,19.08-42.07a33.56,33.56,0,0,0-6.73,5.63,66.72,66.72,0,0,0-7.83,10.15A39.6,39.6,0,0,0,876.08,812Z" transform="translate(-475.5 -648.13)"/><path d="M1044.12,828.77a4.53,4.53,0,0,1,3.55.73,4.2,4.2,0,0,1,1.83,3.06,4.9,4.9,0,0,1-.73,3.42q-27.64,38.65-50.39,54.79-9.05,6.36-17.86,6.36a20.08,20.08,0,0,1-12-3.67,21.78,21.78,0,0,1-5.26-5.87,36.92,36.92,0,0,1-4-10.27q-1.71-6.6-.61-17.37a121.74,121.74,0,0,1,5.5-24.46v-.24Q971,813,980.76,800t17.61-13.21q5.62-.24,7.34,4.89,2.69,7.1-6.36,20.06t-26.66,27.88a122.92,122.92,0,0,0-4.16,17.61,59.55,59.55,0,0,0-.86,12.84,29.91,29.91,0,0,0,1.71,8.32,21.77,21.77,0,0,0,2.45,5,13.38,13.38,0,0,0,2.32,2.45q7.34,5.38,18.83-2.93,21.52-15.16,47.94-52.34A5.26,5.26,0,0,1,1044.12,828.77Zm-47.45-31.68q-8.56,5.38-16.88,23.24Q994,806.15,996.66,797.09Z" transform="translate(-475.5 -648.13)"/><path d="M1141.46,826.94a4.11,4.11,0,0,1,3.42,1.1,5.24,5.24,0,0,1,1.71,3.3,3.94,3.94,0,0,1-1.22,3.42q-47.46,55.28-54.3,63.84-4.16,5.38-8.07,10.52a57.91,57.91,0,0,1,.49,26.91,79.3,79.3,0,0,1-8.32,22.26,53.38,53.38,0,0,1-12.72,15.17q-6.85,5.87-12.72,5.87a8.3,8.3,0,0,1-6.12-2.45q-13-12.47,29.11-69.71a65.44,65.44,0,0,0-8.56-18.1q-12.23-18.34-18.1-30.57t-5.38-22.26a36.81,36.81,0,0,1,5.26-17.61,37.62,37.62,0,0,1,12.84-12.72,33.8,33.8,0,0,1,14.43-4.89,26.58,26.58,0,0,1,13.94,2.2,5,5,0,0,1,2.32,2.81,4.62,4.62,0,0,1-2.94,5.87,4.83,4.83,0,0,1-3.55-.12q-8.81-4.16-19.32,2.2-12.72,7.58-13.45,22.75-.49,8.07,5.14,19.2A288.68,288.68,0,0,0,1072,883.68a81.85,81.85,0,0,1,7.58,14.43q2-2.45,4.16-5.38,6.84-8.56,54.54-64.08A4.75,4.75,0,0,1,1141.46,826.94Zm-76.07,129.15a57.37,57.37,0,0,0,9.54-36,277.05,277.05,0,0,0-16.51,26.17q-6.24,11.49-7.58,16.51t-.86,7q2.2-.25,6.6-3.79A47,47,0,0,0,1065.39,956.08Z" transform="translate(-475.5 -648.13)"/><path d="M1240,826.94a4.11,4.11,0,0,1,3.42,1.1,5.24,5.24,0,0,1,1.71,3.3,4,4,0,0,1-1.22,3.42q-47.46,55.28-54.3,63.84-4.16,5.38-8.07,10.52a57.89,57.89,0,0,1,.49,26.91,79.27,79.27,0,0,1-8.32,22.26A53.36,53.36,0,0,1,1161,973.45q-6.85,5.87-12.72,5.87a8.3,8.3,0,0,1-6.12-2.45q-13-12.47,29.11-69.71a65.46,65.46,0,0,0-8.56-18.1q-12.23-18.34-18.1-30.57t-5.38-22.26a36.8,36.8,0,0,1,5.26-17.61,37.63,37.63,0,0,1,12.84-12.72,33.81,33.81,0,0,1,14.43-4.89,26.59,26.59,0,0,1,13.94,2.2,5,5,0,0,1,2.32,2.81,4.62,4.62,0,0,1-2.93,5.87,4.83,4.83,0,0,1-3.55-.12q-8.81-4.16-19.32,2.2-12.72,7.58-13.45,22.75-.49,8.07,5.14,19.2a288.68,288.68,0,0,0,16.63,27.76,81.71,81.71,0,0,1,7.58,14.43q2-2.45,4.16-5.38,6.85-8.56,54.55-64.08A4.75,4.75,0,0,1,1240,826.94ZM1164,956.08a57.37,57.37,0,0,0,9.54-36A276.85,276.85,0,0,0,1157,946.3q-6.24,11.49-7.58,16.51t-.86,7q2.2-.25,6.6-3.79A47,47,0,0,0,1164,956.08Z" transform="translate(-475.5 -648.13)"/><path d="M636.62,1121.8a4.61,4.61,0,0,1,3.06,2,4.18,4.18,0,0,1,.61,3.55,4.75,4.75,0,0,1-2,2.94q-43.29,28.13-70.93,56Q553,1272.6,535.85,1326.41q-20.31,63.35-39.38,68.73a13.35,13.35,0,0,1-3.67.49q-5.62,0-9.78-4.89-6.85-8.81-7.46-29.11t6.36-47.94a249.79,249.79,0,0,1,20.18-53.32,336.94,336.94,0,0,1,56.75-78.76q3.67-23,7.34-48.19A206.61,206.61,0,0,1,552,1152.74q-10.77,13.21-20.55,7.34-8.07-4.89-8.56-20.42t7.09-33.88a4.77,4.77,0,0,1,6.11-2.45,5,5,0,0,1,2.57,2.45,4.42,4.42,0,0,1,.12,3.67q-6.6,17.86-6.48,29.11t4,13.45q2.69,1.71,8.32-5.14,12.23-14.68,25.19-37.18a4.19,4.19,0,0,1,5.63-2.08q3.67,1.35,3.18,5-4.16,30.58-8.56,58,25.19-23.48,63.11-48.19A4.47,4.47,0,0,1,636.62,1121.8ZM526.8,1323.72q15.65-48.92,29.11-125a316.32,316.32,0,0,0-45.5,66,229.2,229.2,0,0,0-16.75,41q-6.24,20.91-7.71,36.57a136.09,136.09,0,0,0-.24,26.91q1.23,11.25,4.65,15.41,1.71,2,3.42,1.47a7.77,7.77,0,0,0,2.69-1.22,31.35,31.35,0,0,0,4.89-5,62,62,0,0,0,6.85-10.27q3.43-6.24,8.56-18.22A292.08,292.08,0,0,0,526.8,1323.72Z" transform="translate(-475.5 -648.13)"/><path d="M713.43,1123.39a4.69,4.69,0,0,1,3.55,1,4.61,4.61,0,0,1,1.83,3.18,4.31,4.31,0,0,1-1,3.42,73.15,73.15,0,0,1-24,20.3q-13.94,7.34-26.17,4.65a31.27,31.27,0,0,1-9.54,13.09,20.44,20.44,0,0,1-12.72,4.77h-.24a18.44,18.44,0,0,1-11.62-4.52,22.46,22.46,0,0,1-7-11.86,35.89,35.89,0,0,1,1.1-22.87q4.28-10.88,12.35-16A4.13,4.13,0,0,1,644,1118a18.76,18.76,0,0,1,6.24-8.32,10.24,10.24,0,0,1,13-.12,18.17,18.17,0,0,1,4.16,5q2.08,3.43,3.06,10.52a92.24,92.24,0,0,1,.49,16.88q-.25,2.45-.73,4.89,9.29,2,20.67-4.65a66.2,66.2,0,0,0,19.45-17.12A4.75,4.75,0,0,1,713.43,1123.39Zm-68,40.85q3.42,0,7.22-3.18a23.79,23.79,0,0,0,6.24-8.56q-15.9-8.81-16.63-24a24.37,24.37,0,0,0-6.73,12.47q-1.83,7.83.12,13.7Q638.33,1164.24,645.43,1164.24Zm15.9-22.75a61.44,61.44,0,0,0,.12-10.15q-.37-4.28-.86-7a21.08,21.08,0,0,0-1.22-4.4,10.61,10.61,0,0,0-1.35-2.45c-.41-.49-.7-.73-.86-.73h-.24q-1,0-2.45,1.59a10.15,10.15,0,0,0-2.2,4.28,16.66,16.66,0,0,0,.49,10.52q2,5.38,8.56,9.78Z" transform="translate(-475.5 -648.13)"/><path d="M800.5,1124.25a4.86,4.86,0,0,1,3.55.61,4.62,4.62,0,0,1,2.08,2.94,4.13,4.13,0,0,1-.49,3.42q-2.93,4.65-6.36,9.91t-10.15,14.31q-6.73,9.05-12.84,15.78a86,86,0,0,1-13.21,11.86q-7.1,5.14-12.23,5.14a7.56,7.56,0,0,1-3.42-.73q-11.74-4.4-6.6-37.42-8.07,11-14.68,16.63-9.54,8.07-16.63,2-6.6-5.38-6-19.08a57.45,57.45,0,0,1,7.95-26.42,4.5,4.5,0,0,1,2.94-2.2,4.81,4.81,0,0,1,3.67.49,4.48,4.48,0,0,1,2.2,2.81,4.56,4.56,0,0,1-.49,3.55,45.67,45.67,0,0,0-5.75,14.43,39.66,39.66,0,0,0-1,12.6q.61,5,2.32,6.48,1.22,1.23,4.65-1.71,6.36-5.38,15.9-19.32l2.57-3.3,2.08-2.69a10,10,0,0,1,2-2.08q.73-.49,1.71-1.1a3,3,0,0,1,2-.49,9.28,9.28,0,0,1,2.2.61q3.18,1.23,3.42,5.5a43.73,43.73,0,0,1-1.22,11.13q-2.69,13.45-2.08,20.55a59.73,59.73,0,0,0,1.1,8.68c.32,1.06.73,1.59,1.22,1.59q.73.49,2.57-.37a25.36,25.36,0,0,0,4.4-2.81,67.24,67.24,0,0,0,5.75-5q3.18-3.06,7.22-7.46t8.19-9.66q4.16-5.26,9.05-12.23t9.54-14.8A4.1,4.1,0,0,1,800.5,1124.25Z" transform="translate(-475.5 -648.13)"/><path d="M896.5,1122a4.49,4.49,0,0,1,3.55.24,5,5,0,0,1,2.45,2.69,3.9,3.9,0,0,1-.24,3.55q-6.6,14.19-14.92,29.11t-18.22,30.21a149.1,149.1,0,0,1-19.69,24.95q-9.79,9.66-16.63,9.66a7,7,0,0,1-3.18-.73q-10-3.92-6.36-30.33,3.42-24.7,18.1-70a.5.5,0,0,0-.37.12.5.5,0,0,1-.37.12q-5.38,3.67-8.93,5.63a93,93,0,0,1-9.54,4.4,26.79,26.79,0,0,1-11.37,2.2,19,19,0,0,1-10-3.42q-9.3-6.6-9.54-18.34t8.81-25.68A66.27,66.27,0,0,1,813.58,1071q7.95-6.6,13.58-2.94a8.16,8.16,0,0,1,4,6.36q.61,4.4-4.28,17t-16.39,32.9q7.58,1,24.95-10.52a56.31,56.31,0,0,1,4.77-3.06q1.59-.85,3.67-1.83a6.2,6.2,0,0,1,3.55-.73,7.59,7.59,0,0,1,2.94,1.22q3.67,2.93,1.22,10.27-24.46,75.83-19.32,92l.73,1.47q2,.24,6-3.18a86.18,86.18,0,0,0,10-10.76q6-7.34,13-17.61t15.41-25.19q8.44-14.92,16.27-31.8A4.81,4.81,0,0,1,896.5,1122Zm-95-16.51q-2.2,8.56,1,13.7,17.85-31.06,19.08-42.07a33.56,33.56,0,0,0-6.73,5.63,66.72,66.72,0,0,0-7.83,10.15A39.6,39.6,0,0,0,801.48,1105.54Z" transform="translate(-475.5 -648.13)"/><path d="M994.22,1120.46a4.11,4.11,0,0,1,3.42,1.1,5.24,5.24,0,0,1,1.71,3.3,4,4,0,0,1-1.22,3.42q-47.46,55.28-54.3,63.84-4.16,5.38-8.07,10.52a57.89,57.89,0,0,1,.49,26.91,79.3,79.3,0,0,1-8.32,22.26A53.39,53.39,0,0,1,915.21,1267q-6.85,5.87-12.72,5.87a8.3,8.3,0,0,1-6.12-2.45q-13-12.47,29.11-69.71a65.41,65.41,0,0,0-8.56-18.1q-12.23-18.34-18.1-30.57t-5.38-22.26a36.81,36.81,0,0,1,5.26-17.61,37.63,37.63,0,0,1,12.84-12.72,33.81,33.81,0,0,1,14.43-4.89,26.58,26.58,0,0,1,13.94,2.2,5,5,0,0,1,2.32,2.81,4.62,4.62,0,0,1-2.94,5.87,4.83,4.83,0,0,1-3.55-.12q-8.81-4.16-19.32,2.2-12.72,7.58-13.45,22.75-.49,8.07,5.14,19.2a288.58,288.58,0,0,0,16.63,27.76,81.85,81.85,0,0,1,7.58,14.43q2-2.45,4.16-5.38,6.84-8.56,54.55-64.08A4.75,4.75,0,0,1,994.22,1120.46ZM918.15,1249.6a57.37,57.37,0,0,0,9.54-36,277,277,0,0,0-16.51,26.17q-6.24,11.49-7.58,16.51t-.86,7q2.2-.25,6.6-3.79A47,47,0,0,0,918.15,1249.6Z" transform="translate(-475.5 -648.13)"/><path d="M1066.62,1122.29a4.53,4.53,0,0,1,3.55.73,4.2,4.2,0,0,1,1.83,3.06,4.9,4.9,0,0,1-.73,3.42q-27.64,38.65-50.39,54.79-9.05,6.36-17.86,6.36a20.08,20.08,0,0,1-12-3.67,21.78,21.78,0,0,1-5.26-5.87,36.92,36.92,0,0,1-4-10.27q-1.71-6.6-.61-17.37a121.74,121.74,0,0,1,5.5-24.46v-.24q6.85-22.26,16.63-35.22t17.61-13.21q5.62-.24,7.34,4.89,2.69,7.1-6.36,20.06t-26.66,27.88a122.92,122.92,0,0,0-4.16,17.61,59.55,59.55,0,0,0-.86,12.84,29.91,29.91,0,0,0,1.71,8.32,21.77,21.77,0,0,0,2.45,5,13.38,13.38,0,0,0,2.32,2.45q7.34,5.38,18.83-2.93,21.52-15.16,47.94-52.34A5.26,5.26,0,0,1,1066.62,1122.29Zm-47.45-31.68q-8.56,5.38-16.88,23.24Q1016.47,1099.67,1019.17,1090.61Z" transform="translate(-475.5 -648.13)"/><path d="M1130.46,948.5q5.14,7.58-5,35.83t-32.9,64.45l-.49.49q-15.41,61.64-29.47,128.54t-18,95.27h.49a4.92,4.92,0,0,1,2.81,2.45,4.41,4.41,0,0,1,.12,3.67q-1.47,4.16-2.32,6.24a14.63,14.63,0,0,1-2.57,4,4.89,4.89,0,0,1-3.67,2,7.33,7.33,0,0,1-1.71-.24q-3.42-1.23-3.67-6.73t3.42-27q4.4-26.42,13.21-69,20.3-96.86,40.36-172.69,1.71-6.36,3.67-13.33t5.63-17.49q3.67-10.51,7.22-18.47a83.59,83.59,0,0,1,7.95-14.19q4.4-6.24,8.32-6.73A6.13,6.13,0,0,1,1130.46,948.5Zm-29.84,68q19.57-36.93,22-58Q1111.87,974.67,1100.62,1016.5Z" transform="translate(-475.5 -648.13)"/><path d="M1145.38,1112.87a4.68,4.68,0,0,1,3.55,1,4.61,4.61,0,0,1,1.83,3.18,4.31,4.31,0,0,1-1,3.42,4.75,4.75,0,0,1-3.18,1.71q-17.86,2.45-33.27,3.91-14.19,58.46-26.42,117.65t-15.9,84.63h.73a4.93,4.93,0,0,1,2.57,2.57,4.16,4.16,0,0,1,.12,3.55q-1.47,4.16-2.32,6.24a14.6,14.6,0,0,1-2.57,4,4.89,4.89,0,0,1-3.67,2,4.71,4.71,0,0,1-1.47-.24q-3.67-1-3.79-6.48t3.3-27.27q4.4-26.42,13.45-69,12-58.46,26.17-116.92l-19.57,1.71h-.49a4.06,4.06,0,0,1-2.2-.61,5,5,0,0,1-1.59-1.59,6.58,6.58,0,0,1-.86-2.2,5.19,5.19,0,0,1,1.22-3.42,4.76,4.76,0,0,1,3.18-1.71q13.7-1,22.5-1.71,6.36-25.44,11.74-46.23,2.2-8.56,5-17.73t7.46-22a108.42,108.42,0,0,1,10-21.28q5.38-8.44,10.27-9.17a6.12,6.12,0,0,1,6.6,2.94q5.87,8.81-6,38.65a378.2,378.2,0,0,1-31.92,61.64.71.71,0,0,0-.25.49q-1.23,4.65-2.93,11.74Q1129,1115.08,1145.38,1112.87Zm3.67-99.06q-10.77,16.14-22,57.73Q1146.6,1034.84,1149,1013.81Z" transform="translate(-475.5 -648.13)"/></svg>