<svg xmlns="http://www.w3.org/2000/svg" viewBox="0 0 500 344.83"><defs><style>.cls-1{fill:#ebebeb;}.cls-2{fill:#e0e0e0;}.cls-3{fill:#f5f5f5;}.cls-10,.cls-4{fill:#fff;}.cls-5{fill:#f0f0f0;}.cls-6{fill:#e6e6e6;}.cls-7{fill:#fafafa;}.cls-8{fill:#407bff;}.cls-9{opacity:0.2;}.cls-10{opacity:0.7;}.cls-11{opacity:0.4;}</style></defs><title>Logo design SVG</title><g id="Background_Complete" data-name="Background Complete"><rect class="cls-1" y="327.45" width="500" height="0.25"/><rect class="cls-1" x="52.46" y="336.97" width="33.12" height="0.25"/><rect class="cls-1" x="171.14" y="334.26" width="42.53" height="0.25"/><rect class="cls-1" x="93.47" y="340.48" width="19.19" height="0.25"/><rect class="cls-1" x="434.67" y="344.58" width="15.23" height="0.25"/><rect class="cls-1" x="391.47" y="344.58" width="34.29" height="0.25"/><rect class="cls-1" x="308" y="337.38" width="23.83" height="0.25"/><path class="cls-1" d="M237,337.8H43.92a5.71,5.71,0,0,1-5.71-5.71V60.66A5.71,5.71,0,0,1,43.92,55H237a5.71,5.71,0,0,1,5.71,5.71V332.09A5.71,5.71,0,0,1,237,337.8ZM43.92,55.2a5.46,5.46,0,0,0-5.46,5.46V332.09a5.46,5.46,0,0,0,5.46,5.46H237a5.46,5.46,0,0,0,5.46-5.46V60.66A5.46,5.46,0,0,0,237,55.2Z" transform="translate(0 -54.95)"/><path class="cls-1" d="M453.31,337.8H260.21a5.71,5.71,0,0,1-5.71-5.71V60.66A5.71,5.71,0,0,1,260.21,55h193.1A5.71,5.71,0,0,1,459,60.66V332.09A5.71,5.71,0,0,1,453.31,337.8ZM260.21,55.2a5.46,5.46,0,0,0-5.46,5.46V332.09a5.46,5.46,0,0,0,5.46,5.46h193.1a5.46,5.46,0,0,0,5.46-5.46V60.66a5.46,5.46,0,0,0-5.46-5.46Z" transform="translate(0 -54.95)"/><rect class="cls-2" x="114.67" y="22.71" width="318.44" height="280.54"/><rect class="cls-3" x="108.89" y="46.71" width="318.44" height="256.54"/><rect class="cls-4" x="151.33" y="89.83" width="228.89" height="170.32"/><rect class="cls-5" x="66.89" y="101.67" width="42" height="256.54" transform="translate(175.78 404.92) rotate(180)"/><rect class="cls-1" x="66.89" y="101.67" width="42" height="16.33" transform="translate(175.78 164.71) rotate(180)"/><rect class="cls-6" x="66.89" y="77.67" width="360.44" height="24" transform="translate(494.22 124.38) rotate(180)"/><rect class="cls-7" x="108.89" y="101.67" width="97" height="10" transform="translate(314.78 158.38) rotate(180)"/><rect class="cls-1" x="205.89" y="46.71" width="97" height="10"/><rect class="cls-6" x="70.04" y="66.38" width="14.7" height="14.7"/><rect class="cls-6" x="91.04" y="66.38" width="14.7" height="14.7"/><rect class="cls-6" x="91.04" y="142.33" width="14.7" height="14.7" transform="translate(196.78 244.41) rotate(180)"/><rect class="cls-6" x="70.04" y="142.33" width="14.7" height="14.7" transform="translate(154.78 244.41) rotate(180)"/><rect class="cls-6" x="70.04" y="108.38" width="14.7" height="14.7"/><rect class="cls-6" x="91.04" y="108.38" width="14.7" height="14.7"/><rect class="cls-6" x="91.04" y="184.33" width="14.7" height="14.7" transform="translate(196.78 328.41) rotate(180)"/><rect class="cls-6" x="70.04" y="184.33" width="14.7" height="14.7" transform="translate(154.78 328.41) rotate(180)"/><rect class="cls-6" x="70.04" y="150.38" width="14.7" height="14.7"/><rect class="cls-6" x="91.04" y="150.38" width="14.7" height="14.7"/><rect class="cls-6" x="91.04" y="226.33" width="14.7" height="14.7" transform="translate(196.78 412.41) rotate(180)"/><rect class="cls-6" x="70.04" y="226.33" width="14.7" height="14.7" transform="translate(154.78 412.41) rotate(180)"/><rect class="cls-6" x="70.04" y="289.33" width="9.01" height="9.01" transform="translate(149.09 532.72) rotate(180)"/><rect class="cls-6" x="96.73" y="289.33" width="9.01" height="9.01" transform="translate(202.47 532.72) rotate(180)"/><rect class="cls-6" x="83.39" y="289.33" width="9.01" height="9.01" transform="translate(175.78 532.72) rotate(180)"/><rect class="cls-6" x="83.8" y="261.09" width="21.85" height="21.85" transform="translate(189.45 489.08) rotate(180)"/><rect class="cls-4" x="70.04" y="247.33" width="21.85" height="21.85" transform="translate(161.93 461.56) rotate(180)"/><circle class="cls-3" cx="315.37" cy="146.96" r="36.67"/><rect class="cls-3" x="283.87" y="245.8" width="63" height="24.07" transform="translate(573.2 -112.49) rotate(90)"/></g><g id="Pen_Tool" data-name="Pen Tool"><path class="cls-8" d="M283.28,242.9,255,271.22s-17.45-19.57-40.56-17.36c-8.54-18.76-18.31-58.73-21-70.13L232,222.29a6,6,0,1,0,2.37-2.37l-38.56-38.56c11.41,2.69,51.38,12.45,70.13,21C263.71,225.45,283.28,242.9,283.28,242.9Z" transform="translate(0 -54.95)"/><path class="cls-9" d="M265.91,202.36c-18.75-8.55-58.73-18.31-70.14-21l38.56,38.56a5.95,5.95,0,0,1,7.07,9.43l27.72,27.72,14.16-14.16S263.71,225.45,265.91,202.36Z" transform="translate(0 -54.95)"/><path class="cls-8" d="M361.4,349.36h0a12.81,12.81,0,0,1-18.06,0l-83-83,18.06-18.06,83,83A12.81,12.81,0,0,1,361.4,349.36Z" transform="translate(0 -54.95)"/><path class="cls-10" d="M361.4,349.36h0a12.81,12.81,0,0,1-18.06,0l-83-83,18.06-18.06,83,83A12.81,12.81,0,0,1,361.4,349.36Z" transform="translate(0 -54.95)"/><rect class="cls-8" x="256.98" y="255.39" width="33.86" height="12.94" rx="2.93" ry="2.93" transform="translate(-104.94 215.42) rotate(-45)"/><rect class="cls-8" x="245.78" y="250.29" width="46.67" height="13.55" rx="3.52" ry="3.52" transform="translate(-102.95 210.63) rotate(-45)"/><rect class="cls-11" x="245.78" y="250.29" width="46.67" height="13.55" rx="3.52" ry="3.52" transform="translate(-102.95 210.63) rotate(-45)"/><rect class="cls-4" x="258.22" y="258.33" width="5.7" height="13.55" transform="translate(-110.99 207.3) rotate(-45)"/><rect class="cls-4" x="265.47" y="252.76" width="2.34" height="13.55" transform="translate(638.7 199.58) rotate(135)"/><path class="cls-8" d="M186.88,362.26c-51.68-51.68-51.68-135.76,0-187.43s135.76-51.68,187.44,0l-1.53,1.53A130.37,130.37,0,0,0,188.41,360.73Z" transform="translate(0 -54.95)"/><rect class="cls-8" x="56.19" y="174.51" width="262.9" height="2.17" transform="translate(-69.21 129.16) rotate(-45)"/><rect class="cls-4" x="177.82" y="165.78" width="19.64" height="19.64" transform="translate(-69.21 129.16) rotate(-45)"/><path class="cls-8" d="M187.64,191,172.22,175.6l15.43-15.43,15.43,15.43ZM175.29,175.6,187.64,188,200,175.6l-12.36-12.36Z" transform="translate(0 -54.95)"/><rect class="cls-4" x="177.82" y="351.68" width="19.64" height="19.64" transform="translate(-200.66 183.61) rotate(-45)"/><path class="cls-8" d="M187.64,376.92,172.22,361.5l15.43-15.43,15.43,15.43ZM175.29,361.5l12.36,12.36L200,361.5l-12.36-12.36Z" transform="translate(0 -54.95)"/><rect class="cls-4" x="364.13" y="165.37" width="19.64" height="19.64" transform="translate(-14.35 260.78) rotate(-45)"/><path class="cls-8" d="M373.95,190.62l-15.43-15.43,15.43-15.43,15.43,15.43Zm-12.36-15.43,12.36,12.36,12.36-12.36-12.36-12.36Z" transform="translate(0 -54.95)"/><circle class="cls-4" cx="281" cy="82.24" r="9.82" transform="translate(24.15 167.83) rotate(-45)"/><path class="cls-8" d="M281,93.15a10.91,10.91,0,1,1,7.71-18.62h0A10.91,10.91,0,0,1,281,93.15Zm0-19.64a8.74,8.74,0,1,0,6.18,2.56h0A8.68,8.68,0,0,0,281,73.51Z" transform="translate(0 -54.95)"/><circle class="cls-4" cx="94.69" cy="268.55" r="9.82" transform="translate(-162.16 90.66) rotate(-45)"/><path class="cls-8" d="M94.69,279.45a10.91,10.91,0,1,1,7.71-18.61h0a10.9,10.9,0,0,1-7.71,18.61Zm0-19.63a8.73,8.73,0,1,0,6.18,2.55A8.71,8.71,0,0,0,94.69,259.81Z" transform="translate(0 -54.95)"/></g></svg>