<?xml version="1.0" encoding="utf-8"?>
<!-- Generator: Adobe Illustrator 24.1.1, SVG Export Plug-In . SVG Version: 6.00 Build 0)  -->
<svg version="1.1" id="Layer_1" xmlns="http://www.w3.org/2000/svg" xmlns:xlink="http://www.w3.org/1999/xlink" x="0px" y="0px"
	 viewBox="0 0 1022.5 1177.4" style="enable-background:new 0 0 1022.5 1177.4;" xml:space="preserve">
<style type="text/css">
	.st0{enable-background:new    ;}
	.st1{fill:#547DBE;}
	.st2{fill:#DA4536;}
	.st3{fill:#F4B400;}
	.st4{fill:#F4DB10;}
</style>
<g id="Layer_3">
	<g class="st0">
		<path class="st1" d="M53.9,1133.9c-13.6,0-23.9-3.9-31-11.6c-7.1-7.7-10.7-18.8-10.7-33.2v-4.6h26.5v6.4
			c0,11.7,4.8,17.6,14.5,17.6c5.3,0,9.2-1.6,11.7-4.8c2.5-3.2,3.8-8.9,3.8-17V1054c-4.9,10.5-13.6,15.8-26,15.8
			c-10.2,0-17.9-3.5-23.2-10.4c-5.3-7-7.9-17-7.9-30.3v-32.6c0-14.2,3.6-25.3,10.9-33.1c7.3-7.8,17.8-11.7,31.6-11.7
			c13.7,0,24.3,3.9,31.6,11.7c7.3,7.8,10.9,18.8,10.9,33.1v91.1C96.6,1118.5,82.4,1133.9,53.9,1133.9z M68.6,1026.8v-32.1
			c0-11.5-4.8-17.3-14.5-17.3s-14.5,5.8-14.5,17.3v32.1c0,11.7,4.8,17.6,14.5,17.6S68.6,1038.5,68.6,1026.8z"/>
		<path class="st1" d="M117.2,1106.7c5.1,0,9-1.2,11.8-3.7c2.8-2.5,4.2-6.9,4.2-13.4V953.8h28v133.8c0,29.9-13.4,44.8-40.2,44.8
			c-5.9,0-10.4-0.2-13.5-0.5v-25.4C109.6,1106.6,112.8,1106.7,117.2,1106.7z"/>
	</g>
	<g class="st0">
		<path class="st1" d="M242.6,1131.9l-4.8-32.3h-34.3l-4.8,32.3h-25.7l28.5-178.1h41l28.5,178.1H242.6z M234,1075.4l-13.5-90.1
			l-13.5,90.1H234z"/>
	</g>
	<g class="st0">
		<path class="st1" d="M364.8,1089.1c0,14.4-3.6,25.5-10.7,33.2c-7.1,7.7-17.5,11.6-31,11.6c-13.6,0-23.9-3.9-31-11.6
			c-7.1-7.7-10.7-18.8-10.7-33.2v-92.6c0-14.4,3.6-25.5,10.7-33.2c7.1-7.7,17.5-11.6,31-11.6c13.6,0,23.9,3.9,31,11.6
			c7.1,7.7,10.7,18.8,10.7,33.2v17.3h-26.5v-19.1c0-11.7-4.8-17.6-14.5-17.6c-9.7,0-14.5,5.9-14.5,17.6v96.2
			c0,11.5,4.8,17.3,14.5,17.3c9.7,0,14.5-5.8,14.5-17.3v-25.4h26.5V1089.1z"/>
		<path class="st1" d="M390.5,963.4c7.3-7.8,17.8-11.7,31.6-11.7s24.3,3.9,31.6,11.7c7.3,7.8,10.9,18.8,10.9,33.1v92.6
			c0,14.2-3.6,25.3-10.9,33.1c-7.3,7.8-17.8,11.7-31.6,11.7s-24.3-3.9-31.6-11.7c-7.3-7.8-10.9-18.8-10.9-33.1v-92.6
			C379.5,982.3,383.2,971.2,390.5,963.4z M422,1108.5c9.7,0,14.5-5.9,14.5-17.6v-96.2c0-11.7-4.8-17.6-14.5-17.6
			c-9.7,0-14.5,5.9-14.5,17.6v96.2C407.5,1102.6,412.4,1108.5,422,1108.5z"/>
		<path class="st1" d="M526.9,953.8c13.9,0,24.3,3.7,31.3,11.2c7,7.5,10.4,18.4,10.4,32.8v90.1c0,14.4-3.5,25.4-10.4,32.8
			c-7,7.5-17.4,11.2-31.3,11.2h-44.3V953.8H526.9z M510.6,1106.4h15.8c4.6,0,8.1-1.4,10.6-4.1c2.5-2.7,3.7-7.1,3.7-13.2v-92.6
			c0-6.1-1.2-10.5-3.7-13.2c-2.5-2.7-6-4.1-10.6-4.1h-15.8V1106.4z"/>
		<path class="st1" d="M652.8,1028.8v25.4h-38.4v52.2h48.3v25.4h-76.3V953.8h76.3v25.4h-48.3v49.6H652.8z"/>
	</g>
	<g class="st0">
		<path class="st2" d="M708,1077.2v54.7h-28V953.8h28v77.6l36.6-77.6h28l-38.9,79.4l38.9,98.7h-28.8l-27.2-71L708,1077.2z"/>
		<path class="st2" d="M813.4,953.8v178.1h-28V953.8H813.4z"/>
		<path class="st2" d="M878,953.8c13.9,0,24.3,3.7,31.3,11.2c7,7.5,10.4,18.4,10.4,32.8v90.1c0,14.4-3.5,25.4-10.4,32.8
			c-7,7.5-17.4,11.2-31.3,11.2h-44.3V953.8H878z M861.7,1106.4h15.8c4.6,0,8.1-1.4,10.6-4.1c2.5-2.7,3.7-7.1,3.7-13.2v-92.6
			c0-6.1-1.2-10.5-3.7-13.2c-2.5-2.7-6-4.1-10.6-4.1h-15.8V1106.4z"/>
		<path class="st2" d="M944.4,963.3c7-7.7,17.2-11.6,30.8-11.6c13.6,0,23.8,3.9,30.8,11.6c7,7.7,10.4,18.8,10.4,33.2v5.6h-26.5v-7.4
			c0-6.1-1.2-10.6-3.6-13.4c-2.4-2.8-5.9-4.2-10.4-4.2s-8.1,1.4-10.4,4.2c-2.4,2.8-3.6,7.3-3.6,13.4c0,7.5,2,14,6,19.6
			c4,5.6,10,12,17.9,19.1c6.6,6.1,12,11.5,16,16.2c4.1,4.7,7.5,10.3,10.4,16.9c2.9,6.6,4.3,14.2,4.3,22.6c0,14.4-3.6,25.5-10.7,33.2
			c-7.1,7.7-17.5,11.6-31,11.6c-13.6,0-23.9-3.9-31-11.6c-7.1-7.7-10.7-18.8-10.7-33.2v-10.9h26.5v12.7c0,11.5,4.8,17.3,14.5,17.3
			c9.7,0,14.5-5.8,14.5-17.3c0-7.5-2-14-6-19.6c-4-5.6-10-12-17.9-19.1c-6.6-6.1-12-11.5-16-16.2c-4.1-4.7-7.5-10.3-10.4-16.9
			c-2.9-6.6-4.3-14.2-4.3-22.6C933.9,982.1,937.4,971,944.4,963.3z"/>
	</g>
</g>
<g id="Layer_1_1_">
	<path class="st3" d="M917,891.3l-245.1,0.1c10.4-0.4,20.6-3.1,29.9-7.7c24.7-12.5,34.1-35.5,37.6-44.1c9.5-23.3,7.5-46.2,3.1-63.5
		c-4-15.6-12.2-29.8-23.7-41c-90.2-88-104.8-151.2-97.4-195.1c8-47.4,43.1-79.4,27-108.5c-17.1-30.9-67-14.4-115.4-44.4
		c-38.4-23.9-57.6-65.8-67.8-104.5c-10.7-40.9-48.3-69.6-90.5-67c-28.7,1.6-55,16.7-70.9,40.6L426.6,43
		c33.1-57.3,115.8-57.4,149-0.1l415.8,719.3C1024.5,819.5,983.2,891.2,917,891.3z"/>
	<path class="st4" d="M671.9,891.4c-2.9,0.1-5.4,0.1-7.4,0H671.9z"/>
	<path class="st3" d="M507,846.9c-13.3,23.3-36.2,39.7-62.6,44.6l0,0c-5.7,1.1-11.6,1.6-17.4,1.6l-332.8,0.2c-8,0-16.1-1-23.9-3
		h-0.1C19.7,881.1-11.5,828.6,4,780.1l0,0c2.1-8.8,5.5-17.3,10-25.2l166.3-288.4c3-5.1,6.4-10,10.3-14.5l0,0
		c0.2-0.3,0.5-0.6,0.7-0.9l0,0c40.3-45.7,116.7-40.7,149,15.3c13.8,23.9,12.1,48.9,39.7,68.6c28.4,20.3,53.8,3.3,70.2,22
		c18.4,21-9.3,47.2,0,95.3c8.9,45.7,38.2,43.6,56.7,102.3C513.8,776.1,526.2,813.8,507,846.9z"/>
</g>
</svg>
