<svg id="Layer_1" data-name="Layer 1" xmlns="http://www.w3.org/2000/svg" viewBox="0 0 1684.62 533"><defs><style>.cls-1{fill:#191919;}</style></defs><title>Matte Work Logo</title><path class="cls-1" d="M1514.59,1219.46v63.82H318c-.11-1.58-.33-3.05-.33-4.51,0-99.12-.15-198.24.1-297.35.06-19.94,7.78-36.43,26.6-45.69,19.45-9.57,38.86-10.1,57.29,2.56,13.66,9.39,18.35,23.51,18.38,39.3q.19,116.92.06,233.84v8H521.61v-6.55c0-77.77-.09-155.53.15-233.3a67.93,67.93,0,0,1,3.49-21.36c4.86-14.29,15-24,30.14-26.36,10.43-1.62,21.36-2.68,31.74-1.42,18.83,2.28,31.27,15.59,35.17,35.74,1.31,6.73,1.46,13.76,1.47,20.65q.14,102.17.06,204.35v28.24Z" transform="translate(-188.38 -750.28)"/><path class="cls-1" d="M1522.15,1092.38v92.52c-12.05.71-24,1.7-35.94,2-21.55.61-43-.38-64-5.73-37.77-9.61-60.16-33.78-67.23-71.71a262.14,262.14,0,0,1-4.17-43.86c-.56-38.62-.18-77.26-.18-115.9v-6H1242.68v117.13c0,19.15,7.88,28.82,27.13,30.46,13.76,1.17,27.7.23,42.14.23.11,2.3.26,3.92.26,5.54,0,27.45-.07,54.9.09,82.34,0,4.07-1,5.36-5.25,5.73-22.31,1.94-44.68,3.42-66.93.61-13.67-1.72-27.51-4.33-40.49-8.79-30.56-10.52-47.76-33.52-54.13-64.47a231.89,231.89,0,0,1-4.84-42.76c-.64-40-.23-80-.23-120v-6.33h-53.78V845.58h53.78V831.37c0-15.42.07-30.84-.06-46.26,0-3,.75-4.53,3.8-5.44q47.67-14.13,95.25-28.5a28.38,28.38,0,0,1,3-.5V845h108V780.94l102.23-30.66v95H1522v98h-69.49v6.26q0,55.41,0,110.82c0,19.5,8.28,29.27,27.81,31.1,12.1,1.13,24.33.69,36.49,1C1518.54,1092.41,1520.21,1092.38,1522.15,1092.38Z" transform="translate(-188.38 -750.28)"/><path class="cls-1" d="M1074.77,845.67v338.71H973.22v-30.95c-2.86,2.8-4.78,4.73-6.77,6.62-20.37,19.51-45.09,29.55-72.7,32.79-47.59,5.6-89.58-7.45-125.11-39.64-29.73-26.94-47.65-60.82-54.92-100.1-9.43-51-1.71-99.23,26.69-143.07,25.3-39.07,60.68-64.69,107.09-72,42.61-6.73,82.7-.09,116.47,29.56,2.77,2.43,4.94,5.54,7.39,8.33l1.75-.87V845.67Z" transform="translate(-188.38 -750.28)"/><path class="cls-1" d="M1865.86,961.7c-14.69-51.38-45.47-89.45-94.64-111.45-35.31-15.78-72.32-18.09-109.88-10.73-51.06,10-90.92,36.8-117.19,82.09-22.45,38.71-28.62,80.81-21.56,124.58,9.86,61.11,42.76,105.44,99.62,130.93,32.82,14.72,67.57,18.74,103.22,16.3,32.86-2.24,63.52-11.2,90.9-30a160.54,160.54,0,0,0,39.75-39.42l-81.49-46.86c-2.58,2.33-4.74,4.49-7.12,6.37-21,16.64-45.27,21.09-71.26,18.8-16.59-1.47-32.33-5.61-45.86-15.93-10.2-7.79-17.32-17.79-21.82-30.5h240C1875.27,1029.89,1874.37,991.4,1865.86,961.7Zm-239.49,17.72c3.6-13,9.49-24.23,18.61-33.18.36-.36.74-.72,1.11-1.07a65.41,65.41,0,0,1,7.35-5.93,66.87,66.87,0,0,1,14.11-7.4l1.39-.52c1.39-.51,2.81-1,4.24-1.41,1-.29,1.92-.56,2.89-.81q2.92-.77,5.91-1.32c1.5-.28,3-.52,4.52-.72l1.52-.19c1-.12,2-.22,3.05-.3,19.66-1.63,40.23,3,54.86,13.85a58.36,58.36,0,0,1,6.7,5.83c.72.71,1.42,1.45,2.11,2.21A74.14,74.14,0,0,1,1766,964.88c.23.45.44.89.65,1.34.42.9.82,1.79,1.19,2.68s.71,1.79,1,2.68a43.9,43.9,0,0,1,2,7.84Z" transform="translate(-188.38 -750.28)"/><path class="cls-1" d="M718.75,820.67V937.23l-.57.33c-.72-1.87-1.42-3.75-2.16-5.62-15.65-39.75-42.6-67.49-85.26-76.68-31.51-6.79-62.92-5.39-93.15,7.38-15.16,6.39-25.83,18.29-36.68,30-1.13,1.22-2.16,2.53-2.48,2.9-9.2-8.7-17.36-17.85-26.93-25.15-22.74-17.35-49-22.12-76.92-18.45a210,210,0,0,0-27.82,5.52c-20.08,5.47-36.76,16.15-48.86,35.41V846.41H188.38V820.67Z" transform="translate(-188.38 -750.28)"/><path class="cls-1" d="M1754.74,948.46A73.47,73.47,0,0,1,1766,964.88,74.14,74.14,0,0,0,1754.74,948.46Z" transform="translate(-188.38 -750.28)"/></svg>