<svg id="Layer_1" data-name="Layer 1" xmlns="http://www.w3.org/2000/svg" viewBox="0 0 1066.06 644.03"><defs><style>.cls-1{fill:#fff;}</style></defs><path class="cls-1" d="M825.39,674.46c.24,9.13.46,17.65.67,25.87,11.3-7.57,21.57-16.53,33.43-22.06,64-29.86,139.52-6.52,178.08,55.18,1.72,2.76,1,8.53-.72,11.72-28.5,52.53-31.06,106.5-5.87,160.27,7.3,15.58,4.36,24.34-5.33,35.8-41,48.43-110,64.86-166.31,38-11.32-5.41-21.16-13.9-32.92-21.8.05,24.77.13,49.4.14,74,0,24.84,0,49.68,0,75.82l-91.33.38c-.29-4.85-.77-9.18-.78-13.52-.18-80.13.11-160.26-.68-240.39-.23-22.82-13.9-40.11-29.91-55-25.86-24-58.69-34.18-91.17-45.26-24.78-8.44-49.3-17.82-73.32-28.21-13.63-5.89-19.91-18.42-17.78-33.26,2-14.11,11.87-22.1,25.21-25.9,36.5-10.41,72.1,4,90,37.31,4.36,8.08,7.52,9.26,15.57,4.26,22.89-14.22,46.43-27.41,69.72-41,.9-.51,1.9-.85,4.22-1.87,4,11,13.33,9.81,22.86,9.67C774.31,674.15,799.47,674.43,825.39,674.46Zm131,205.16c25.91-31.29,22-84.83-8-110C917.85,744,868,748,842.74,778.07c-25.68,30.62-21.33,84.7,8.86,109.94S932,909.16,956.43,879.62Z" transform="translate(-486.24 -662.8)"/><path class="cls-1" d="M1548.28,674.94c-13.26,19.14-25.55,36.94-37.9,54.69-21.33,30.65-42.47,61.45-64.25,91.78-4.73,6.58-4.31,10.87.11,17.11q50,70.65,99.51,141.68c1.93,2.75,3.71,5.61,6.55,9.92-23,.12-44.32.38-65.65.31-13.77,0-29.66,3.58-40.71-2-10.67-5.44-16.43-20.61-24.22-31.59-9.6-13.52-19-27.16-28.62-40.71-1.91-2.71-4-5.26-6.78-8.79-11.83,16.93-22.87,32.74-33.92,48.54-6.74,9.64-13.23,19.48-20.44,28.76-2.22,2.87-6.38,5.91-9.72,6-28.28.65-56.57.64-84.86.79-1.2,0-2.41-.43-6.16-1.15,37.73-10,66.59-28.55,88.18-59.46-23.36-13.57-45.84-27-68.76-39.53-2.5-1.37-8.35.77-11.22,3.07-29.81,23.78-83.44,23.63-110.71-1.42-6.48-6-10.79-14.27-17.66-23.64l220.22-.38c8.06-40.39,4.21-79.13-14-115.92-18.26-37-47.5-62.29-86.34-76.55,0-1.19-.06-2.37-.1-3.56,2,.52,4.08,1.48,6.12,1.48,28.65.11,57.29.31,85.93-.08,6.4-.09,10,2.09,13.47,7.19,14.84,21.67,30.09,43.06,45.23,64.52,1.35,1.9,3,3.6,5.36,6.42,10.78-15.33,21-30,31.4-44.56,7.83-10.95,13.75-25.67,24.44-31.44,10.26-5.54,25.57-1.81,38.66-2,18.65-.21,37.3-.27,56-.31C1540.41,674.08,1543.38,674.54,1548.28,674.94Z" transform="translate(-486.24 -662.8)"/><path class="cls-1" d="M487.08,807.77c12.44,5,23.62,10.26,35.25,14.16,28.81,9.66,58,18.18,86.62,28.35,8.4,3,16.58,8.85,22.76,15.38,13.17,13.91,9.48,35.3-6.6,45.53-35.57,22.63-96.64,9-119.68-26.2C490.11,861.56,483.81,836.4,487.08,807.77Z" transform="translate(-486.24 -662.8)"/><path class="cls-1" d="M1087.21,1163.19c34.24,28,38.93,78.49,10.5,113-27.81,33.75-77.65,38.22-112.26,10.07-33.34-27.12-37.75-78.24-9.7-112.43C1003.14,1140.44,1053.52,1135.64,1087.21,1163.19ZM993.8,1278.52c29.91,24.13,72,19.55,96.11-10.46,23.91-29.76,19-73-11.1-97.21-28.73-23.13-71.27-18.49-94.68,10.32C959.83,1211.07,964.16,1254.59,993.8,1278.52Z" transform="translate(-486.24 -662.8)"/><path class="cls-1" d="M1112,799.27c8-33.23,34.83-50,72.48-47.92,25.36,1.44,52.84,19,56.46,47.64Z" transform="translate(-486.24 -662.8)"/><path class="cls-1" d="M729.67,1149.82c.14,23,.27,45.36.42,68.69,28.72,0,56.58.15,84.44-.4,2.09,0,5.77-5.18,5.84-8,.49-20.3.23-40.62.21-61.6l11,.21c.12,51.3.24,102,.35,153.58l-11.06.65c0-19.4.28-37.92-.19-56.42-.5-19.83,4-17.44-17.52-17.75-22.81-.34-45.63.29-68.44.53-1,0-2,.43-4.64,1,0,23.67-.08,47.63-.12,72.53l-10.93.69c-.18-27.08-.42-53.23-.52-79.37-.09-22.1.22-44.2-.13-66.29C718.3,1150.05,720.47,1146.73,729.67,1149.82Z" transform="translate(-486.24 -662.8)"/><path class="cls-1" d="M496.48,1265.93c12.76,24.32,33,34,59.42,29,14.4-2.77,25.54-13.74,26.88-26.48,1.41-13.34-5.2-23.7-20.49-30-13.07-5.35-26.68-9.39-39.86-14.49-22.93-8.87-32.09-22.89-28.59-42.89,3.42-19.54,20.16-32.87,42.57-33.9,24.87-1.14,44.11,10.2,52.38,31.06-5.58,7-9,5.18-13.35-2-12.74-21-45.46-25.08-62.34-8.24-12.35,12.32-11.47,30.81,3.17,40.08,8.59,5.44,18.83,8.28,28.35,12.25,10.18,4.23,20.71,7.75,30.48,12.77,13.43,6.89,20.24,18.23,19.18,33.78-1.08,15.94-8.73,27.16-23.21,34.05-28.43,13.54-67.14,2.93-80.52-22C486.8,1271.94,488.08,1268,496.48,1265.93Z" transform="translate(-486.24 -662.8)"/><path class="cls-1" d="M1535.27,1175.54l-7.69,5.11c-3.17-4.32-5.82-8.28-8.83-12-12.69-15.46-38.39-19-54.51-7.62-17.66,12.47-17.24,35.62,1.82,45.78,11.79,6.29,25.08,9.72,37.58,14.71a120.87,120.87,0,0,1,17.76,8.34c24.87,15,25.47,48.42,1.36,64.34-26.53,17.52-69.15,8.73-84.59-17.44-5.22-8.84-5-9.67,5.18-14.42,10.91,25.14,31.41,33.2,56.71,28.45,8.63-1.61,18.13-7.54,23.74-14.37,10.32-12.55,6.39-29.35-7.83-37.34-9.84-5.53-21-8.79-31.53-13-7.39-2.9-15.13-5.06-22.2-8.58-12.35-6.14-21.48-15.09-21.77-30.19-.3-15.34,5.21-28,18.48-36C1481.45,1137.85,1521.06,1141,1535.27,1175.54Z" transform="translate(-486.24 -662.8)"/><path class="cls-1" d="M1278.63,1300.83l-11.21.41c-.11-47.85-.22-95-.33-143.64-13.43,0-26.46-.39-39.46.14-7.54.32-10.33-2-8-10.58,10-.06,20.3-.13,30.57-.18,22.79-.09,45.58.07,68.36-.4,7-.15,9.65,2,7.88,10.36-12.75.2-25.73.84-38.67.43-7.52-.24-9.29,2.49-9.24,9.59C1278.78,1211.16,1278.63,1255.36,1278.63,1300.83Z" transform="translate(-486.24 -662.8)"/></svg>