<svg xmlns="http://www.w3.org/2000/svg" viewBox="0 0 144.13 144.11"><defs><style>.cls-1{fill:#fff;}</style></defs><title>subscribe SVG</title><g id="Layer_2" data-name="Layer 2"><g id="Layer_1-2" data-name="Layer 1"><path d="M71.86,0c39.4-.16,72.2,32,72.27,71,.07,40.57-31.75,73.07-71.61,73.14C32.52,144.19,0,112,0,72.38A72,72,0,0,1,71.86,0Zm36,72.21H26.77a16.54,16.54,0,0,0-4,.14,2.89,2.89,0,0,0-1.56,1.9c-.1.37.83,1.37,1.41,1.49a21.07,21.07,0,0,0,4,.14h81.44V86L128.16,74,107.82,62Z"/><path class="cls-1" d="M107.82,72.21V62l20.33,12L108.07,86V75.88H26.63a21.07,21.07,0,0,1-4-.14c-.58-.11-1.51-1.12-1.41-1.49a2.89,2.89,0,0,1,1.56-1.9,16.54,16.54,0,0,1,4-.14h81.05Z"/></g></g></svg>