<svg id="Layer_1" data-name="Layer 1" xmlns="http://www.w3.org/2000/svg" viewBox="0 0 1549 1501.8"><defs><style>.cls-1{fill:#939393;}.cls-2,.cls-3{fill:none;stroke:#000;stroke-miterlimit:10;}.cls-2{stroke-linecap:round;stroke-dasharray:12 12 12 12 12 12;}</style></defs><path class="cls-1" d="M1612.18,434.87H388.63L361.82,775.42h20.1c12.09-57.64,26.84-108.6,41.56-155.52s32.19-80.44,51-101.91c20.1-22.78,46.91-38.87,77.76-49.6a287.92,287.92,0,0,1,93.85-16.09h81.79V1493.22H548.18v37.53h904.45v-37.54H1274.31V452.3h81.79A288,288,0,0,1,1450,468.39c30.84,10.73,57.66,26.82,77.77,49.61,18.77,21.45,36.2,55,51,101.9s28.15,97.87,40.22,155.53H1639ZM1096,1493.21H906.17V473.83q6.93-2.93,14.18-5.44a290,290,0,0,1,80.73-15.77,290,290,0,0,1,80.73,15.77q7.25,2.52,14.18,5.44Z" transform="translate(-226.5 -274.59)"/><line class="cls-2" x1="135.5" y1="158.41" x2="1413.5" y2="158.41"/><line class="cls-2" x1="136" y1="177.91" x2="1414" y2="177.91"/><line class="cls-2" x1="680" y1="1226.9" x2="680" y2="123.4"/><line class="cls-2" x1="500" y1="1226.9" x2="500" y2="123.4"/><line class="cls-2" x1="1047" y1="1226.9" x2="1047" y2="123.4"/><line class="cls-2" x1="135.5" y1="1218.15" x2="1413.5" y2="1218.15"/><line class="cls-2" x1="136" y1="1255.91" x2="1414" y2="1255.91"/><line class="cls-2" x1="869" y1="1226.9" x2="869" y2="123.4"/><circle class="cls-2" cx="389.5" cy="376.41" r="193.5"/><circle class="cls-2" cx="1156.5" cy="376.41" r="193.5"/><circle class="cls-2" cx="682.5" cy="532.41" r="522.5"/><circle class="cls-2" cx="867.5" cy="532.41" r="522.5"/><circle class="cls-2" cx="775.5" cy="409.41" r="229.5"/><line class="cls-2" x1="137" y1="500.91" x2="165" y2="122.91"/><line class="cls-2" x1="1414" y1="500.91" x2="1381" y2="122.91"/><polygon class="cls-3" points="135 122.91 137 1286.91 1413 1286.91 1414 122.91 135 122.91"/><polygon class="cls-3" points="0.5 0.5 2.92 1409.31 1547.29 1409.31 1548.5 0.5 0.5 0.5"/><polyline class="cls-3" points="136 0.5 135 122.91 0.71 122.91"/><polyline class="cls-3" points="137 1409.31 137 1286.91 2.71 1286.91"/><polyline class="cls-3" points="1412 1409.31 1412 1286.91 1547.4 1286.91"/><polyline class="cls-3" points="1414 0.5 1414 122.91 1548 122.91"/><path class="cls-1" d="M572.17,1707.38H545.51v-15.71h72.58v15.71H591.44V1775H572.17Z" transform="translate(-226.5 -274.59)"/><path class="cls-1" d="M622,1733.32c0-24.75,19.28-43.07,45.58-43.07s45.57,18.2,45.57,43.07-19.4,43.07-45.57,43.07S622,1758.07,622,1733.32Zm71.64,0c0-15.83-11.19-26.65-26.06-26.65s-26.06,10.82-26.06,26.65S652.72,1760,667.6,1760,693.66,1749.14,693.66,1733.32Z" transform="translate(-226.5 -274.59)"/><path class="cls-1" d="M799.92,1721.9c0,18.56-13.93,30.1-36.18,30.1H747v23H727.69v-83.29h36C786,1691.67,799.92,1703.21,799.92,1721.9Zm-19.52,0c0-9.17-5.95-14.52-17.73-14.52H747v28.91h15.7C774.45,1736.29,780.4,1730.94,780.4,1721.9Z" transform="translate(-226.5 -274.59)"/><path class="cls-1" d="M890,1691.67V1775H870.72v-34.14H832.88V1775H813.6v-83.29h19.28v32.84h37.84v-32.84Z" transform="translate(-226.5 -274.59)"/><path class="cls-1" d="M974.24,1759.5V1775H909.75v-83.29h63v15.47H928.91v18.09h38.67v15H928.91v19.28Z" transform="translate(-226.5 -274.59)"/><path class="cls-1" d="M1042.66,1775l-16.06-23.2h-17.73V1775H989.59v-83.29h36.06c22.25,0,36.17,11.54,36.17,30.23,0,12.49-6.31,21.65-17.13,26.29l18.68,26.77Zm-18.08-67.58h-15.71v29h15.71c11.78,0,17.73-5.47,17.73-14.51S1036.36,1707.38,1024.58,1707.38Z" transform="translate(-226.5 -274.59)"/><path class="cls-1" d="M1128,1707.38h-26.65v-15.71h72.58v15.71h-26.65V1775H1128Z" transform="translate(-226.5 -274.59)"/><path class="cls-1" d="M1177.84,1733.32c0-24.75,19.28-43.07,45.57-43.07s45.57,18.2,45.57,43.07-19.39,43.07-45.57,43.07S1177.84,1758.07,1177.84,1733.32Zm71.63,0c0-15.83-11.18-26.65-26.06-26.65s-26.06,10.82-26.06,26.65,11.19,26.65,26.06,26.65S1249.47,1749.14,1249.47,1733.32Z" transform="translate(-226.5 -274.59)"/><path class="cls-1" d="M1359.9,1691.67V1775h-15.83l-41.53-50.57V1775h-19v-83.29h16l41.41,50.57v-50.57Z" transform="translate(-226.5 -274.59)"/><path class="cls-1" d="M1419.63,1745.46V1775h-19.27v-29.74l-32.25-53.55h20.47l22.25,37,22.25-37H1452Z" transform="translate(-226.5 -274.59)"/></svg>