<svg xmlns="http://www.w3.org/2000/svg" viewBox="0 0 452.66 412.27"><defs><style>.cls-1{fill:#f5f5f5;}.cls-2,.cls-6{fill:#e0e0e0;}.cls-3{fill:#ebebeb;}.cls-4{fill:#fafafa;}.cls-5{fill:none;}.cls-6{fill-rule:evenodd;}.cls-7{fill:#263238;}.cls-8{fill:#e8505b;}.cls-9{fill:#fff;}.cls-10{fill:#455a64;}.cls-11{opacity:0.2;}.cls-12{fill:#b78876;}.cls-13{fill:#aa6550;}</style></defs><title>UI SVG</title><g id="Background_Complete" data-name="Background Complete"><rect class="cls-1" x="360.56" y="338.43" width="17.63" height="20.96"/><rect class="cls-2" x="281.48" y="337.06" width="79.68" height="23.65"/><path class="cls-2" d="M402.39,385.94H382.7v-2h19.7a1,1,0,0,1,1,1h0A1,1,0,0,1,402.39,385.94Z" transform="translate(-23.67 -46.9)"/><path class="cls-2" d="M402.39,407.6H382.7v-2h19.7a1,1,0,0,1,1,1h0A1,1,0,0,1,402.39,407.6Z" transform="translate(-23.67 -46.9)"/><rect class="cls-3" x="345.49" y="337.06" width="9.41" height="23.65"/><rect class="cls-3" x="289.06" y="337.32" width="9.41" height="23.65"/><ellipse class="cls-2" cx="369.67" cy="341.89" rx="8.52" ry="0.1"/><ellipse class="cls-2" cx="369.67" cy="345.04" rx="8.52" ry="0.1"/><ellipse class="cls-2" cx="369.67" cy="348.91" rx="8.52" ry="0.1"/><ellipse class="cls-2" cx="369.67" cy="352.78" rx="8.52" ry="0.1"/><ellipse class="cls-2" cx="369.67" cy="356.65" rx="8.52" ry="0.1"/><rect class="cls-3" x="304.58" y="346.78" width="35.85" height="4.26"/><rect class="cls-4" x="360.11" y="361.17" width="17.9" height="12.77"/><rect class="cls-1" x="284.12" y="360.71" width="76.19" height="13.7"/><path class="cls-1" d="M383.42,408.53h19.24a.46.46,0,0,0,.46-.46h0a.46.46,0,0,0-.46-.46H383.42Z" transform="translate(-23.67 -46.9)"/><path class="cls-1" d="M359.76,373.48H379a.42.42,0,0,1,.42.42V374a.42.42,0,0,1-.42.42H359.76a0,0,0,0,1,0,0v-.93A0,0,0,0,1,359.76,373.48Z"/><ellipse class="cls-2" cx="369.16" cy="363.6" rx="8.85" ry="0.1"/><ellipse class="cls-2" cx="369.16" cy="366.01" rx="8.85" ry="0.1"/><ellipse class="cls-2" cx="369.16" cy="368.43" rx="8.85" ry="0.1"/><ellipse class="cls-2" cx="369.16" cy="370.84" rx="8.85" ry="0.1"/><rect class="cls-3" x="362.45" y="375.62" width="18.27" height="34.62"/><rect class="cls-2" x="276.68" y="374.4" width="85.77" height="37.54"/><path class="cls-2" d="M405.83,458.84h-22v-2.43h22a1.22,1.22,0,0,1,1.22,1.22h0A1.22,1.22,0,0,1,405.83,458.84Z" transform="translate(-23.67 -46.9)"/><path class="cls-2" d="M360.11,374.4h22.16a1.1,1.1,0,0,1,1.1,1.1v.23a1.1,1.1,0,0,1-1.1,1.1H360.11a0,0,0,0,1,0,0V374.4A0,0,0,0,1,360.11,374.4Z"/><ellipse class="cls-2" cx="371.59" cy="380.26" rx="9.14" ry="0.1"/><ellipse class="cls-2" cx="371.59" cy="384.7" rx="9.14" ry="0.1"/><ellipse class="cls-2" cx="371.59" cy="389.14" rx="9.14" ry="0.1"/><ellipse class="cls-2" cx="371.59" cy="393.59" rx="9.14" ry="0.1"/><ellipse class="cls-2" cx="371.59" cy="398.03" rx="9.14" ry="0.1"/><ellipse class="cls-2" cx="371.59" cy="402.47" rx="9.14" ry="0.1"/><ellipse class="cls-2" cx="371.59" cy="406.91" rx="9.14" ry="0.1"/><path class="cls-3" d="M329.7,442.13v2.09c0,2.52-1.26,4-3.68,4s-3.68-1.44-3.68-4V436c0-2.52,1.26-4,3.68-4s3.68,1.44,3.68,4v1.53h-2.34v-1.68c0-1.12-.49-1.55-1.28-1.55s-1.28.43-1.28,1.55v8.49c0,1.12.49,1.53,1.28,1.53s1.28-.4,1.28-1.53v-2.25Z" transform="translate(-23.67 -46.9)"/><path class="cls-3" d="M331,436c0-2.52,1.33-4,3.75-4s3.75,1.44,3.75,4v8.18c0,2.52-1.33,4-3.75,4s-3.75-1.44-3.75-4Zm2.47,8.33c0,1.12.49,1.55,1.28,1.55s1.28-.43,1.28-1.55v-8.49c0-1.12-.49-1.55-1.28-1.55s-1.28.43-1.28,1.55Z" transform="translate(-23.67 -46.9)"/><path class="cls-3" d="M340.09,432.27h2.47v13.48h4.07V448h-6.54Z" transform="translate(-23.67 -46.9)"/><path class="cls-3" d="M347.5,436c0-2.52,1.33-4,3.75-4s3.75,1.44,3.75,4v8.18c0,2.52-1.33,4-3.75,4s-3.75-1.44-3.75-4Zm2.47,8.33c0,1.12.49,1.55,1.28,1.55s1.28-.43,1.28-1.55v-8.49c0-1.12-.49-1.55-1.28-1.55s-1.28.43-1.28,1.55Z" transform="translate(-23.67 -46.9)"/><path class="cls-3" d="M359,432.27v12.13c0,1.12.49,1.53,1.28,1.53s1.28-.4,1.28-1.53V432.27h2.34v12c0,2.52-1.26,4-3.68,4s-3.68-1.44-3.68-4v-12Z" transform="translate(-23.67 -46.9)"/><path class="cls-3" d="M370.7,448a4.83,4.83,0,0,1-.22-1.93v-2.47c0-1.46-.49-2-1.62-2H368V448h-2.47V432.27h3.73c2.56,0,3.66,1.19,3.66,3.62v1.24c0,1.62-.52,2.67-1.62,3.19,1.24.52,1.64,1.71,1.64,3.35v2.43a4.63,4.63,0,0,0,.27,1.91ZM368,434.51v4.83h1c.92,0,1.48-.4,1.48-1.66v-1.55c0-1.12-.38-1.62-1.26-1.62Z" transform="translate(-23.67 -46.9)"/><path class="cls-2" d="M329.17,413h-1.8l.09-.47h4.14l-.1.47H329.7l-.93,4.64h-.53Z" transform="translate(-23.67 -46.9)"/><path class="cls-2" d="M335.06,413.8l-2.8,4.33c-.47.73-.83,1-1.39,1a1.24,1.24,0,0,1-.91-.34l.28-.38a.9.9,0,0,0,.68.28c.33,0,.58-.15.88-.62l.27-.41-1-3.82h.52l.79,3.27,2.09-3.27Z" transform="translate(-23.67 -46.9)"/><path class="cls-2" d="M339.33,415.39a2.16,2.16,0,0,1-2.17,2.28,1.44,1.44,0,0,1-1.46-.84l-.44,2.22h-.52l1-5.25h.5l-.12.61a1.94,1.94,0,0,1,1.5-.64A1.55,1.55,0,0,1,339.33,415.39Zm-.52,0a1.12,1.12,0,0,0-1.26-1.2,1.67,1.67,0,0,0-1.66,1.8,1.12,1.12,0,0,0,1.26,1.19A1.67,1.67,0,0,0,338.8,415.42Z" transform="translate(-23.67 -46.9)"/><path class="cls-2" d="M339.93,416a2.18,2.18,0,0,1,2.22-2.28,1.57,1.57,0,0,1,1.74,1.62,2.18,2.18,0,0,1-2.22,2.28A1.58,1.58,0,0,1,339.93,416Zm3.44-.63a1.12,1.12,0,0,0-1.26-1.2,1.68,1.68,0,0,0-1.66,1.8,1.12,1.12,0,0,0,1.26,1.19A1.68,1.68,0,0,0,343.37,415.42Z" transform="translate(-23.67 -46.9)"/><path class="cls-2" d="M348.86,413.8l-.67,3.37a2,2,0,0,1-2.23,1.92,2.43,2.43,0,0,1-1.71-.58l.31-.39a2,2,0,0,0,1.44.51,1.5,1.5,0,0,0,1.66-1.37l.09-.42a2,2,0,0,1-1.53.66,1.52,1.52,0,0,1-1.69-1.55,2.12,2.12,0,0,1,2.19-2.17,1.47,1.47,0,0,1,1.5.88l.16-.85Zm-.87,1.54c0-.7-.47-1.12-1.27-1.12a1.63,1.63,0,0,0-1.67,1.69c0,.7.47,1.12,1.27,1.12A1.63,1.63,0,0,0,348,415.34Z" transform="translate(-23.67 -46.9)"/><path class="cls-2" d="M352.24,413.77l-.09.5H352a1.52,1.52,0,0,0-1.55,1.42l-.39,1.95h-.52l.76-3.84h.5l-.13.7A1.73,1.73,0,0,1,352.24,413.77Z" transform="translate(-23.67 -46.9)"/><path class="cls-2" d="M356.63,413.8l-.77,3.84h-.5l.12-.61a2,2,0,0,1-1.5.64,1.55,1.55,0,0,1-1.67-1.63,2.16,2.16,0,0,1,2.17-2.28,1.44,1.44,0,0,1,1.46.83l.16-.8Zm-.86,1.62a1.12,1.12,0,0,0-1.26-1.2,1.68,1.68,0,0,0-1.66,1.8,1.12,1.12,0,0,0,1.26,1.19A1.68,1.68,0,0,0,355.77,415.42Z" transform="translate(-23.67 -46.9)"/><path class="cls-2" d="M361.61,415.39a2.16,2.16,0,0,1-2.17,2.28,1.44,1.44,0,0,1-1.46-.84l-.44,2.22H357l1-5.25h.5l-.12.61a1.94,1.94,0,0,1,1.5-.64A1.55,1.55,0,0,1,361.61,415.39Zm-.52,0a1.12,1.12,0,0,0-1.26-1.2,1.67,1.67,0,0,0-1.66,1.8,1.12,1.12,0,0,0,1.26,1.19A1.67,1.67,0,0,0,361.09,415.42Z" transform="translate(-23.67 -46.9)"/><path class="cls-2" d="M366.26,415a2.33,2.33,0,0,1,0,.44l-.44,2.18h-.52l.44-2.19a2.07,2.07,0,0,0,0-.35c0-.55-.33-.86-1-.86a1.49,1.49,0,0,0-1.56,1.34l-.41,2.06h-.52l1.08-5.41h.52l-.43,2.15a1.87,1.87,0,0,1,1.47-.6A1.2,1.2,0,0,1,366.26,415Z" transform="translate(-23.67 -46.9)"/><path class="cls-2" d="M371.11,413.8l-2.8,4.33c-.47.73-.83,1-1.39,1a1.24,1.24,0,0,1-.91-.34l.28-.38a.9.9,0,0,0,.68.28c.33,0,.58-.15.88-.62l.27-.41-1-3.82h.52l.79,3.27,2.09-3.27Z" transform="translate(-23.67 -46.9)"/><path class="cls-3" d="M102,116.57s-2.26,3.32-2.41,4.68-4.38,12.22-5.74,14.49-17.81,19-17.81,19l-1.66,9.41H51l5.89-11.82s-1.21-17.78-.45-21.72,3.32-14.68,5.28-16.7,5.58,0,5.58,0,1.36-3.39,4.38-2.93,3.17,2.11,3.17,2.11,1.66-2.2,3.77-2.15,3.77,3,3.77,3l4.23-5.45a8.3,8.3,0,0,1,3-2.4h0a8.3,8.3,0,0,1,3.58-.81h6.57s.75,3.17-1.81,4.23-5.28,2.11-5.28,2.11l-3.32,7.85s-1.36,5.16,1.81,7c0,0,4.53-10.81,6.19-11.86S102.6,113.4,102,116.57Z" transform="translate(-23.67 -46.9)"/><path class="cls-3" d="M108.74,128.24c-.08-.31-2.27-4.47-2.27-4.47l2.27-.39-6.35-3.14-.32,6.19,1.5-1.49,2.2,4.7Z" transform="translate(-23.67 -46.9)"/><path class="cls-3" d="M90,93.79c.08.31,2.27,4.47,2.27,4.47L90,98.66l6.35,3.14.32-6.19-1.5,1.49-2.19-4.7Z" transform="translate(-23.67 -46.9)"/><path class="cls-3" d="M119,178.09,120,178c.31,0,.7-.11,1.16-.18a11.8,11.8,0,0,0,1.55-.46,10.54,10.54,0,0,0,6.65-7.77,18.22,18.22,0,0,0,.2-3.66q0-1.95,0-4.08,0-4.26,0-9.25c0-6.64,0-14.19,0-22.54s0-17.5,0-27.32q0-3.68,0-7.49c0-1.26,0-2.56,0-3.83a10.34,10.34,0,0,0-10-10c-1.35,0-2.73,0-4.11,0l-71.86,0a10.35,10.35,0,0,0-10.08,8A19.22,19.22,0,0,0,33,94q0,9.31,0,18.33c0,12,0,23.61,0,34.66q0,8.28,0,16.14,0,2,0,3.9a11.34,11.34,0,0,0,.54,3.71,10.34,10.34,0,0,0,4.49,5.6,10.57,10.57,0,0,0,3.31,1.3,17.74,17.74,0,0,0,3.53.21h7l13.11,0,39.56.08,10.76,0,2.8,0,1,0-1,0-2.8,0-10.76,0L65,178.27l-13.11,0h-7a18.11,18.11,0,0,1-3.62-.21,11,11,0,0,1-3.45-1.35,10.78,10.78,0,0,1-4.69-5.83,11.8,11.8,0,0,1-.57-3.85v-3.9q0-7.85,0-16.14c0-11,0-22.64,0-34.66q0-9,0-18.33a19.67,19.67,0,0,1,.3-4.71A10.87,10.87,0,0,1,43.4,81l71.86,0c1.38,0,2.75,0,4.12,0a10.79,10.79,0,0,1,10.47,10.41c0,1.31,0,2.57,0,3.84q0,3.81,0,7.49c0,9.82,0,19,0,27.32s0,15.91,0,22.54q0,5,0,9.25,0,2.13,0,4.08a18.34,18.34,0,0,1-.23,3.7,10.63,10.63,0,0,1-6.81,7.83,11.52,11.52,0,0,1-1.57.44c-.46.06-.85.14-1.17.15Z" transform="translate(-23.67 -46.9)"/><path class="cls-5" d="M348.92,55.81a14.27,14.27,0,0,1,2.61-2.75l-.68-3.45,5.32-2.36,2.1,2.82a14.25,14.25,0,0,1,3.79-.1l2-2.92,5.43,2.09-.51,3.48a14.22,14.22,0,0,1,2.75,2.62l3.45-.68,2.36,5.32L374.68,62a14.26,14.26,0,0,1,.09,3.79l2.92,2-2.09,5.43-3.48-.51a14.23,14.23,0,0,1-2.62,2.75l.68,3.45-5.32,2.36-2.1-2.82a14.28,14.28,0,0,1-3.79.1l-2,2.92-5.43-2.09.51-3.48a14.21,14.21,0,0,1-2.75-2.62l-3.45.68-2.36-5.32,2.82-2.1a14.25,14.25,0,0,1-.1-3.79l-2.92-2,2.09-5.43,3.48.51Zm5.87,5.93a6.24,6.24,0,1,0,8.07-3.58A6.24,6.24,0,0,0,354.8,61.74Z" transform="translate(-23.67 -46.9)"/><path class="cls-2" d="M354.8,61.74a4.71,4.71,0,0,1,.67-1.39,6.21,6.21,0,0,1,3.37-2.47,6.29,6.29,0,0,1,2.93-.17,6.39,6.39,0,0,1,3,1.45,6.4,6.4,0,0,1,2,3.15,6.37,6.37,0,0,1-2.73,7.08,6.39,6.39,0,0,1-3.58,1,6.39,6.39,0,0,1-3.23-1,6.29,6.29,0,0,1-2.06-2.09,6.21,6.21,0,0,1-.84-4.1,4.71,4.71,0,0,1,.44-1.48s-.19.52-.3,1.5a6.22,6.22,0,0,0,.92,3.95,6.1,6.1,0,0,0,5.08,2.86,6.1,6.1,0,0,0,3.39-1,6,6,0,0,0,2.58-6.69,6.1,6.1,0,0,0-1.86-3,6.1,6.1,0,0,0-5.69-1.28,6.22,6.22,0,0,0-3.33,2.31C355,61.23,354.84,61.76,354.8,61.74Z" transform="translate(-23.67 -46.9)"/><path class="cls-2" d="M348.92,55.81l-.22,0-.66-.08-2.61-.35.06,0-2.06,5.44,0-.11,2.93,1.94.05,0v.06a14.23,14.23,0,0,0,.11,3.76v.07l-.06,0-2.81,2.11,0-.15L346,73.84l-.16-.08,3.45-.69.09,0,.06.07a14.14,14.14,0,0,0,2.72,2.58l.08.05v.09l-.5,3.48-.1-.17,5.43,2.09-.2.06,2-2.92.06-.09h.1a14.19,14.19,0,0,0,3.75-.1l.1,0,.06.08L365,81.1,364.8,81l5.32-2.36-.1.2-.68-3.45,0-.11.08-.07A14.1,14.1,0,0,0,372,72.55h0l.17-.07h.11l.11,0,.22,0,.44.06.87.13,1.73.25-.19.11,2.09-5.43.07.21-2.92-2-.09-.06v-.11a14.09,14.09,0,0,0-.09-3.74l0-.1.08-.06,2.82-2.1-.05.21L375,54.64l.18.09-3.45.68-.1,0-.06-.08a14.11,14.11,0,0,0-2.71-2.59l-.08-.06v-.09l.51-3.48.09.16L364,47.19l.16-.05-2,2.91,0,.06h-.08a14.19,14.19,0,0,0-3.76.08h-.07l0-.06-2.09-2.83.13,0-5.33,2.34,0-.09.66,3.45v0l0,0a14.77,14.77,0,0,0-2.05,2l-.45.54-.15.18.13-.2c.09-.13.23-.32.43-.56a13.79,13.79,0,0,1,2-2l0,.06-.7-3.44v-.06l.06,0,5.31-2.38.08,0,.05.07L358.37,50l-.11,0a14.38,14.38,0,0,1,3.82-.11l-.12.06L363.91,47l.06-.09.1,0L369.51,49l.11,0,0,.12-.5,3.48-.06-.15a14.4,14.4,0,0,1,2.78,2.64l-.16-.06,3.45-.68.13,0,.05.12,2.36,5.31.06.12-.11.08-2.82,2.1.07-.17a14.41,14.41,0,0,1,.1,3.84l-.08-.16,2.92,2,.12.08-.05.13-2.09,5.43-.05.13-.14,0-1.73-.25L373,73l-.44-.06-.22,0-.11,0h-.11l.17-.07h0a14.44,14.44,0,0,1-2.65,2.78l.06-.17.68,3.45,0,.14-.13.06-5.32,2.36-.13.06-.08-.11-2.1-2.82.17.07a14.51,14.51,0,0,1-3.84.09l.16-.07-2,2.92-.07.11-.12,0-5.43-2.1-.12,0,0-.13.51-3.48L352,76a14.41,14.41,0,0,1-2.77-2.65l.14.05-3.45.67-.11,0,0-.1-2.35-5.32,0-.09.08-.06,2.83-2.09,0,.11a14.39,14.39,0,0,1-.08-3.82l0,.1-2.91-2-.06,0,0-.07,2.12-5.42,0,0h0l2.58.41.67.11Z" transform="translate(-23.67 -46.9)"/><path class="cls-5" d="M447.61,248.42a8.58,8.58,0,0,1,1.57-1.65l-.41-2.07,3.2-1.42,1.26,1.7a8.57,8.57,0,0,1,2.28-.06l1.18-1.76,3.26,1.26-.31,2.09a8.55,8.55,0,0,1,1.65,1.57l2.07-.41,1.42,3.2-1.7,1.26a8.57,8.57,0,0,1,.06,2.28l1.76,1.18-1.26,3.26-2.09-.31a8.56,8.56,0,0,1-1.57,1.65l.41,2.07-3.2,1.42-1.26-1.7a8.59,8.59,0,0,1-2.28.06l-1.18,1.76-3.26-1.26.31-2.09a8.55,8.55,0,0,1-1.65-1.57l-2.07.41-1.42-3.2,1.7-1.26a8.57,8.57,0,0,1-.06-2.28l-1.76-1.18,1.26-3.26,2.09.31Zm3.53,3.57a3.75,3.75,0,1,0,4.85-2.15A3.75,3.75,0,0,0,451.15,252Z" transform="translate(-23.67 -46.9)"/><path class="cls-2" d="M451.15,252a2.83,2.83,0,0,1,.4-.84,3.73,3.73,0,0,1,2-1.49,3.78,3.78,0,0,1,1.76-.1,3.84,3.84,0,0,1,1.83.87,3.85,3.85,0,0,1,1.19,1.89,3.83,3.83,0,0,1-1.64,4.26,3.85,3.85,0,0,1-2.16.6,3.84,3.84,0,0,1-1.94-.58,3.78,3.78,0,0,1-1.24-1.26,3.74,3.74,0,0,1-.51-2.46,2.84,2.84,0,0,1,.26-.89s-.11.31-.18.9a3.74,3.74,0,0,0,.55,2.37,3.67,3.67,0,0,0,3.05,1.72,3.67,3.67,0,0,0,2-.58,3.64,3.64,0,0,0,1.55-4,3.67,3.67,0,0,0-1.12-1.8,3.67,3.67,0,0,0-3.42-.77,3.74,3.74,0,0,0-2,1.39C451.27,251.67,451.17,252,451.15,252Z" transform="translate(-23.67 -46.9)"/><path class="cls-2" d="M447.61,248.42h-.13l-.4,0-1.57-.21,0,0-1.24,3.27,0-.06,1.76,1.17,0,0v0a8.56,8.56,0,0,0,.06,2.26v0l0,0-1.69,1.27,0-.09,1.43,3.19-.09,0,2.07-.41h.05l0,0a8.5,8.5,0,0,0,1.64,1.55l0,0v.06l-.3,2.09-.06-.1,3.27,1.25-.12,0,1.18-1.76,0-.05h.06a8.53,8.53,0,0,0,2.25-.06H456l0,.05,1.26,1.69-.13,0,3.2-1.42-.06.12-.41-2.07v-.06l.05,0a8.48,8.48,0,0,0,1.55-1.63h0l.1,0h.13l.13,0,.26,0,.52.08,1,.15-.12.07,1.26-3.26,0,.13-1.75-1.18-.05,0v-.06a8.48,8.48,0,0,0-.06-2.25v-.06l.05,0,1.7-1.26,0,.12-1.42-3.2.11.06-2.07.41h-.06l0,0a8.48,8.48,0,0,0-1.63-1.56l0,0v-.06l.31-2.09.06.1-3.26-1.26.1,0L455.58,245l0,0h0a8.54,8.54,0,0,0-2.26.05h0l0,0-1.26-1.7.08,0-3.2,1.4,0-.05.4,2.08v0h0A8.89,8.89,0,0,0,448,248l-.27.33-.09.11.08-.12c.05-.08.14-.19.26-.34a8.28,8.28,0,0,1,1.22-1.22v0l-.42-2.07v0l0,0,3.19-1.43,0,0,0,0,1.27,1.69-.07,0a8.65,8.65,0,0,1,2.3-.06l-.07,0,1.17-1.76,0-.05.06,0,3.27,1.25.07,0v.07l-.3,2.09,0-.09a8.66,8.66,0,0,1,1.67,1.59l-.09,0,2.07-.41.08,0,0,.07,1.42,3.2,0,.07-.07,0-1.69,1.26,0-.1a8.67,8.67,0,0,1,.06,2.31l0-.1L465,255.5l.07,0,0,.08-1.26,3.26,0,.08h-.09l-1-.15-.52-.08-.26,0-.13,0h-.13l.1,0h0a8.68,8.68,0,0,1-1.59,1.67l0-.1.41,2.07,0,.08-.08,0-3.2,1.42-.08,0-.05-.07-1.26-1.7.1,0a8.72,8.72,0,0,1-2.31.06l.1,0-1.18,1.75,0,.07-.07,0-3.26-1.26-.07,0v-.08l.31-2.09,0,.09a8.67,8.67,0,0,1-1.67-1.59l.09,0-2.08.41h-.07l0-.06-1.41-3.2,0-.06,0,0,1.7-1.26,0,.07a8.66,8.66,0,0,1-.05-2.3l0,.06-1.75-1.18,0,0,0,0,1.28-3.26v0h0l1.55.24.4.07Z" transform="translate(-23.67 -46.9)"/><path class="cls-6" d="M318,72.36a11.84,11.84,0,0,1,2.17-2.28l-.56-2.86,4.41-2,1.74,2.34a11.82,11.82,0,0,1,3.15-.08l1.62-2.42,4.5,1.74-.42,2.88a11.8,11.8,0,0,1,2.28,2.17l2.86-.56,2,4.41-2.34,1.74a11.83,11.83,0,0,1,.08,3.15l2.42,1.62-1.74,4.5-2.89-.42a11.8,11.8,0,0,1-2.17,2.28l.56,2.86-4.41,2-1.74-2.34a11.86,11.86,0,0,1-3.15.08l-1.62,2.42-4.5-1.74.42-2.88a11.8,11.8,0,0,1-2.28-2.17l-2.86.56-2-4.41,2.34-1.74a11.82,11.82,0,0,1-.08-3.15l-2.42-1.62,1.74-4.5,2.89.42Zm4.87,4.92a5.18,5.18,0,1,0,6.69-3A5.18,5.18,0,0,0,322.87,77.28Z" transform="translate(-23.67 -46.9)"/><path class="cls-6" d="M337,99.25a18.57,18.57,0,0,1,3.4-3.57l-.89-4.49,6.92-3.07,2.73,3.67a18.54,18.54,0,0,1,4.93-.12l2.55-3.8,7.06,2.72L363,95.11a18.51,18.51,0,0,1,3.57,3.4l4.49-.89,3.07,6.92-3.67,2.73a18.55,18.55,0,0,1,.12,4.93l3.8,2.55-2.72,7.06-4.52-.66a18.51,18.51,0,0,1-3.4,3.57l.89,4.49-6.92,3.07L355,128.62a18.58,18.58,0,0,1-4.93.12l-2.55,3.8-7.06-2.72.66-4.52a18.5,18.5,0,0,1-3.57-3.4l-4.49.89L330,115.86l3.67-2.73a18.55,18.55,0,0,1-.12-4.93l-3.8-2.55,2.72-7.06,4.52.66Zm7.64,7.71a8.12,8.12,0,1,0,10.49-4.66A8.12,8.12,0,0,0,344.64,107Z" transform="translate(-23.67 -46.9)"/><path class="cls-6" d="M436.63,273.63a12.58,12.58,0,0,1,2.3-2.42l-.6-3L443,266.1l1.85,2.48a12.56,12.56,0,0,1,3.34-.08l1.72-2.57,4.78,1.84-.45,3.06a12.54,12.54,0,0,1,2.42,2.3l3-.6,2.08,4.69-2.48,1.85a12.56,12.56,0,0,1,.08,3.34l2.57,1.72-1.84,4.78-3.06-.45a12.54,12.54,0,0,1-2.3,2.42l.6,3L450.68,296l-1.85-2.49a12.59,12.59,0,0,1-3.34.08l-1.72,2.57L439,294.34l.45-3.06A12.53,12.53,0,0,1,437,289l-3,.6-2.08-4.69,2.48-1.85a12.56,12.56,0,0,1-.08-3.34L431.72,278l1.84-4.78,3.06.45Zm5.18,5.23a5.5,5.5,0,1,0,7.11-3.15A5.5,5.5,0,0,0,441.8,278.86Z" transform="translate(-23.67 -46.9)"/></g><g id="Floor"><path class="cls-7" d="M476.33,458.91c0,.14-101.34.26-226.32.26S23.67,459,23.67,458.91,125,458.65,250,458.65,476.33,458.76,476.33,458.91Z" transform="translate(-23.67 -46.9)"/></g><g id="Plant"><path class="cls-8" d="M375.82,432c-7.57-4.39-11.61-14.59-11.92-22.94s3.18-17.06,10-21.85c7.21-5,17.49-5,24.9-.21s11.75,13.71,11.42,22.5A29.84,29.84,0,0,1,398,431.95" transform="translate(-23.67 -46.9)"/><path class="cls-9" d="M387.89,432.84a9.94,9.94,0,0,1-.14-1.91l-.15-5.21c-.11-4.4-.29-10.47-.58-17.17s-.66-12.77-.93-17.16l-.31-5.2a9.94,9.94,0,0,1,0-1.92,9.93,9.93,0,0,1,.3,1.89c.15,1.22.33,3,.54,5.19.4,4.38.84,10.45,1.14,17.17s.39,12.8.37,17.2c0,2.2,0,4-.08,5.21A9.91,9.91,0,0,1,387.89,432.84Z" transform="translate(-23.67 -46.9)"/><ellipse class="cls-7" cx="363.47" cy="406.98" rx="0.35" ry="2.67" transform="translate(-95.54 689.06) rotate(-85.31)"/><ellipse class="cls-7" cx="364.37" cy="398.74" rx="0.35" ry="2.39" transform="translate(-171.53 523.24) rotate(-66.08)"/><path class="cls-7" d="M370.41,394.15c-.1.16-1.27-.39-2.49-1.4s-2-2.05-1.84-2.18,1.11.66,2.29,1.64S370.52,394,370.41,394.15Z" transform="translate(-23.67 -46.9)"/><ellipse class="cls-7" cx="373.36" cy="386.8" rx="0.35" ry="2.3" transform="translate(-148.14 137) rotate(-23.84)"/><path class="cls-7" d="M380.37,385.18c-.17.08-.78-.85-1.18-2.14s-.44-2.4-.25-2.43.53,1,.92,2.22S380.55,385.09,380.37,385.18Z" transform="translate(-23.67 -46.9)"/><ellipse class="cls-7" cx="389.94" cy="382.64" rx="1.76" ry="0.35" transform="translate(-124.33 576.1) rotate(-70.56)"/><ellipse class="cls-7" cx="396.73" cy="385.43" rx="1.8" ry="0.35" transform="translate(-179.9 325.06) rotate(-42.78)"/><ellipse class="cls-7" cx="403.17" cy="389.52" rx="1.83" ry="0.35" transform="translate(-172.76 246.28) rotate(-34.12)"/><ellipse class="cls-7" cx="407.17" cy="395.82" rx="2.41" ry="0.35" transform="translate(-146.31 144.58) rotate(-23.1)"/><ellipse class="cls-7" cx="409.09" cy="402.1" rx="2.17" ry="0.35" transform="translate(-70 6.45) rotate(-7.06)"/><ellipse class="cls-7" cx="410.1" cy="409.49" rx="0.35" ry="2.3" transform="translate(-152.62 575.4) rotate(-66.5)"/><path class="cls-7" d="M411.36,417.75c-.06.18-1.33-.12-2.66-1s-2.12-1.91-2-2,1.11.63,2.37,1.45S411.43,417.57,411.36,417.75Z" transform="translate(-23.67 -46.9)"/><path class="cls-7" d="M407.53,424.45c-.12.15-1.13-.44-2.1-1.49s-1.49-2.1-1.33-2.21.92.72,1.85,1.72S407.65,424.29,407.53,424.45Z" transform="translate(-23.67 -46.9)"/><ellipse class="cls-7" cx="368.64" cy="426.56" rx="2.86" ry="0.35" transform="translate(-178.99 171.54) rotate(-27.5)"/><ellipse class="cls-7" cx="365.8" cy="420.11" rx="2.25" ry="0.35" transform="translate(-164.5 141.64) rotate(-24.39)"/><ellipse class="cls-7" cx="363.02" cy="414.16" rx="2.42" ry="0.35" transform="translate(-78.25 8.2) rotate(-8.07)"/><path class="cls-7" d="M373.42,410.86c.06.18-1,.66-2.33.81s-2.47-.08-2.45-.27,1.08-.28,2.37-.43S373.36,410.67,373.42,410.86Z" transform="translate(-23.67 -46.9)"/><path class="cls-7" d="M380.07,404.24c.06.18-.76.6-1.86.7s-2-.14-2-.33.87-.28,1.89-.38S380,404.05,380.07,404.24Z" transform="translate(-23.67 -46.9)"/><ellipse class="cls-7" cx="379.49" cy="398.3" rx="0.35" ry="1.96" transform="translate(-144.6 579.95) rotate(-70.93)"/><path class="cls-7" d="M383.78,393.58c-.14.14-.74-.26-1.17-1s-.48-1.47-.29-1.52.52.51.91,1.17S383.92,393.44,383.78,393.58Z" transform="translate(-23.67 -46.9)"/><path class="cls-7" d="M380.84,415.53c0,.19-.72.54-1.71.78a6.52,6.52,0,0,1-1.43.21l-.14-.41c.26,0,.42,0,.45,0s-.07.2-.28.36l-.14-.41a6.52,6.52,0,0,1,1.37-.47C380,415.38,380.79,415.34,380.84,415.53Z" transform="translate(-23.67 -46.9)"/><ellipse class="cls-7" cx="379.91" cy="425.84" rx="2.48" ry="0.35" transform="translate(-153.1 121.57) rotate(-21.46)"/><ellipse class="cls-7" cx="373.13" cy="421.29" rx="1.65" ry="0.35" transform="translate(-139.49 95.76) rotate(-18.79)"/><path class="cls-7" d="M375.27,401.62c0,.19-1.18.08-2.48-.39s-2.26-1.09-2.17-1.26,1.14.14,2.41.59S375.32,401.43,375.27,401.62Z" transform="translate(-23.67 -46.9)"/><ellipse class="cls-7" cx="391.84" cy="400.61" rx="1.94" ry="0.35" transform="translate(-179.49 235) rotate(-33.4)"/><ellipse class="cls-7" cx="392.88" cy="409.31" rx="1.6" ry="0.35" transform="translate(-98.66 41.5) rotate(-11.73)"/><ellipse class="cls-7" cx="393.59" cy="418.67" rx="0.35" ry="2.21" transform="translate(-175.38 552.99) rotate(-65.15)"/><ellipse class="cls-7" cx="392.04" cy="428.56" rx="0.35" ry="1.77" transform="translate(-206.59 299.36) rotate(-39.4)"/><path class="cls-7" d="M392.66,392.59c.12.15-.29.67-1,1s-1.37.38-1.42.19.47-.5,1.1-.82S392.54,392.44,392.66,392.59Z" transform="translate(-23.67 -46.9)"/><path class="cls-7" d="M401.57,402.11c.06.18-.76.63-1.89.79s-2-.05-2-.24.88-.31,1.93-.46S401.51,401.92,401.57,402.11Z" transform="translate(-23.67 -46.9)"/><path class="cls-7" d="M399.8,393.57c.09.17-.73.76-1.9,1.13s-2.17.37-2.2.18.88-.5,2-.86S399.71,393.39,399.8,393.57Z" transform="translate(-23.67 -46.9)"/><path class="cls-7" d="M403.52,415.35c0,.19-1.4.31-3.09,0s-3-.91-2.89-1.09,1.39.1,3,.39S403.52,415.15,403.52,415.35Z" transform="translate(-23.67 -46.9)"/><path class="cls-7" d="M400.21,427.76c-.12.15-1.15-.45-2.18-1.49s-1.63-2.07-1.48-2.18,1,.68,2,1.68S400.33,427.61,400.21,427.76Z" transform="translate(-23.67 -46.9)"/><path class="cls-9" d="M385.65,383.47a32.12,32.12,0,0,0-6.22,4.91,30.33,30.33,0,0,0-7.74,17.11,38.42,38.42,0,0,0,.47,10.48,80,80,0,0,0,2,8.41c.68,2.37,1.31,4.27,1.72,5.58a13.18,13.18,0,0,1,.6,2.06,11.84,11.84,0,0,1-.86-2c-.5-1.29-1.2-3.17-1.94-5.53a71,71,0,0,1-2.13-8.45,37.61,37.61,0,0,1-.53-10.68A29.83,29.83,0,0,1,379.07,388a22.21,22.21,0,0,1,4.64-3.62,13.89,13.89,0,0,1,1.42-.74A1.67,1.67,0,0,1,385.65,383.47Z" transform="translate(-23.67 -46.9)"/><path class="cls-9" d="M395.32,432.49a77.92,77.92,0,0,0,3.19-7.61,43.1,43.1,0,0,0,1.91-19.58,36.84,36.84,0,0,0-3-10.44,24.64,24.64,0,0,0-5.15-7.17,18.74,18.74,0,0,0-5-3.19c-1.31-.55-2.1-.67-2.09-.73a1.71,1.71,0,0,1,.58,0,10.62,10.62,0,0,1,1.61.43,17.44,17.44,0,0,1,5.28,3.07,24.26,24.26,0,0,1,5.41,7.26,36.26,36.26,0,0,1,3.13,10.62A41.63,41.63,0,0,1,399,425c-.4,1.22-.92,2.27-1.3,3.22s-.83,1.71-1.18,2.34A13.36,13.36,0,0,1,395.32,432.49Z" transform="translate(-23.67 -46.9)"/><polygon class="cls-7" points="344.19 383.92 383.27 383.92 383.51 391.74 344.19 391.74 344.19 383.92"/><polygon class="cls-7" points="347.51 387.83 349.75 411.7 378.32 411.7 380.62 388.09 347.51 387.83"/><ellipse class="cls-10" cx="363.85" cy="391.83" rx="19.65" ry="0.35"/><path class="cls-10" d="M403.2,446a5.9,5.9,0,0,1-.84,1.49,21.61,21.61,0,0,1-3,3.58l-.18.17-.18-.19a56.28,56.28,0,0,0-7.66-6.7l.43,0-3.4,3-4,3.5-.22.19-.22-.19-6.53-5.49.38,0-3.38,4.12a9.62,9.62,0,0,1-1.33,1.45,9.62,9.62,0,0,1,1.09-1.63l3.19-4.26.16-.22.22.18,6.62,5.37h-.44l4-3.51,3.41-3,.21-.18.22.16a50,50,0,0,1,7.62,6.92H399A39.7,39.7,0,0,0,403.2,446Z" transform="translate(-23.67 -46.9)"/></g><g id="Screen"><path class="cls-4" d="M264.26,171.5H261a2.48,2.48,0,0,0-1,.11,1.54,1.54,0,0,0-.78.69,1.65,1.65,0,0,0-.18.52,3.39,3.39,0,0,0,0,.58v.6a2.83,2.83,0,0,1,0,.62,1.65,1.65,0,0,1-.73,1.05,1.54,1.54,0,0,1-.64.23c-.23,0-.46,0-.69,0H245.12a1.79,1.79,0,0,1-.47,0,1.57,1.57,0,0,1-.81-.5,1.68,1.68,0,0,1-.4-.89,3.71,3.71,0,0,1,0-.49v-.49a2.61,2.61,0,0,0-.1-1,1.57,1.57,0,0,0-.58-.76,1.52,1.52,0,0,0-.94-.26h-7.52a5,5,0,0,0-4,1.78,5,5,0,0,0-1,2.08c-.05.19-.07.39-.1.59s0,.33,0,.5v32.66c0,.44,0,.86,0,1.3,0,1.32,0,2.66,0,4v42.45a5.23,5.23,0,0,0,.2,1.58,5,5,0,0,0,1.94,2.67,5.16,5.16,0,0,0,3.19.88h29.64c1.05,0,2.11,0,3.15,0a5,5,0,0,0,2.82-1.09,5.31,5.31,0,0,0,1-1.13,5,5,0,0,0,.63-1.38,5.24,5.24,0,0,0,.19-1.5q0-.76,0-1.52,0-3,0-6c0-15.82,0-30.07,0-42s0-21.65,0-28.34q0-1.25,0-2.37a5.16,5.16,0,0,0-.37-2,5,5,0,0,0-.94-1.49,5,5,0,0,0-3-1.59,4,4,0,0,0-.51,0h-2.86Z" transform="translate(-23.67 -46.9)"/><path class="cls-4" d="M181.72,55.81h-3.26a2.48,2.48,0,0,0-1,.11,1.54,1.54,0,0,0-.78.69,1.65,1.65,0,0,0-.18.52,3.39,3.39,0,0,0,0,.58q0,.3,0,.6a2.83,2.83,0,0,1,0,.62,1.65,1.65,0,0,1-.73,1.05,1.53,1.53,0,0,1-.64.23c-.23,0-.46,0-.69,0H162.58a1.79,1.79,0,0,1-.47,0,1.57,1.57,0,0,1-.81-.5,1.67,1.67,0,0,1-.4-.89,3.71,3.71,0,0,1,0-.49q0-.24,0-.49a2.61,2.61,0,0,0-.1-1,1.57,1.57,0,0,0-.58-.76,1.52,1.52,0,0,0-.94-.26h-7.52a5,5,0,0,0-4,1.78,5,5,0,0,0-1,2.08c-.05.19-.07.39-.1.59s0,.33,0,.5V93.45c0,.44,0,.86,0,1.3,0,1.32,0,2.66,0,4V141.2a5.23,5.23,0,0,0,.2,1.58,5,5,0,0,0,1.94,2.67,5.16,5.16,0,0,0,3.19.88h29.64c1.05,0,2.11,0,3.15,0a5,5,0,0,0,2.82-1.09,5.31,5.31,0,0,0,1-1.13,4.94,4.94,0,0,0,.63-1.38,5.23,5.23,0,0,0,.19-1.5q0-.76,0-1.52,0-3,0-6c0-15.82,0-30.07,0-42s0-21.65,0-28.34q0-1.25,0-2.37a5.16,5.16,0,0,0-.37-2,5,5,0,0,0-.94-1.49,5,5,0,0,0-3-1.59,4,4,0,0,0-.51,0h-2.86Z" transform="translate(-23.67 -46.9)"/><path class="cls-4" d="M181.3,171.6H178a2.48,2.48,0,0,0-1,.11,1.54,1.54,0,0,0-.78.69,1.65,1.65,0,0,0-.18.52,3.38,3.38,0,0,0,0,.58v.6a2.83,2.83,0,0,1,0,.62,1.65,1.65,0,0,1-.73,1.05,1.54,1.54,0,0,1-.64.23c-.23,0-.46,0-.69,0H162.16a1.79,1.79,0,0,1-.47,0,1.57,1.57,0,0,1-.81-.5,1.67,1.67,0,0,1-.4-.89,3.71,3.71,0,0,1,0-.49q0-.24,0-.49a2.61,2.61,0,0,0-.1-1,1.57,1.57,0,0,0-.58-.76,1.52,1.52,0,0,0-.94-.26h-7.52a5,5,0,0,0-4,1.78,5,5,0,0,0-1,2.09c-.05.19-.07.39-.1.59s0,.33,0,.5v32.66c0,.44,0,.86,0,1.3,0,1.32,0,2.66,0,4V257a5.23,5.23,0,0,0,.2,1.58,5,5,0,0,0,1.94,2.67,5.16,5.16,0,0,0,3.19.88h29.64c1.05,0,2.11,0,3.15,0A5,5,0,0,0,187.1,261a5.3,5.3,0,0,0,1-1.13,4.94,4.94,0,0,0,.63-1.38,5.24,5.24,0,0,0,.19-1.5v-1.52q0-3,0-6c0-15.82,0-30.07,0-42s0-21.65,0-28.34q0-1.25,0-2.37a5.16,5.16,0,0,0-.37-2,5,5,0,0,0-.94-1.49,5,5,0,0,0-3-1.59,4,4,0,0,0-.51,0H181.3Z" transform="translate(-23.67 -46.9)"/><rect class="cls-3" x="129.53" y="158.78" width="28.28" height="5.78"/><path class="cls-7" d="M184.09,171.56h.17a3.74,3.74,0,0,1,.51,0,4.73,4.73,0,0,1,1.88.65,4.82,4.82,0,0,1,1.15.93,5,5,0,0,1,1,1.5,5.2,5.2,0,0,1,.38,2q0,1.11,0,2.37c0,6.69,0,16.38,0,28.34s0,26.22,0,42q0,3,0,6V257a5.37,5.37,0,0,1-.19,1.53,5.08,5.08,0,0,1-.64,1.42,5.43,5.43,0,0,1-1,1.16,5.08,5.08,0,0,1-2.9,1.13c-1.05,0-2.1,0-3.16,0H151.58a5.31,5.31,0,0,1-3.27-.9,5.14,5.14,0,0,1-2-2.75,5.53,5.53,0,0,1-.21-1.7q0-.85,0-1.69,0-3.38,0-6.72,0-6.67,0-13.13c0-8.61,0-16.92,0-24.83s0-15.43,0-22.47q0-5.28,0-10.18,0-.61,0-1.22c0-.2,0-.41,0-.61s.05-.4.1-.6a5.14,5.14,0,0,1,1.06-2.13,5.1,5.1,0,0,1,4.1-1.81h7.52a1.61,1.61,0,0,1,1,.28,1.66,1.66,0,0,1,.61.81,2.69,2.69,0,0,1,.1,1v.49a3.65,3.65,0,0,0,0,.48,1.59,1.59,0,0,0,.38.84,1.48,1.48,0,0,0,.77.48,1.7,1.7,0,0,0,.45,0h11.82c.23,0,.47,0,.68,0a1.48,1.48,0,0,0,.61-.22,1.59,1.59,0,0,0,.7-1,2.78,2.78,0,0,0,0-.61q0-.3,0-.6a3.44,3.44,0,0,1,0-.59,1.7,1.7,0,0,1,.19-.54,1.59,1.59,0,0,1,.8-.71,2.52,2.52,0,0,1,1-.11h0a2.48,2.48,0,0,0-1,.11,1.54,1.54,0,0,0-.78.69,1.65,1.65,0,0,0-.18.52,3.38,3.38,0,0,0,0,.58v.6a2.83,2.83,0,0,1,0,.62,1.65,1.65,0,0,1-.73,1.05,1.54,1.54,0,0,1-.64.23c-.23,0-.46,0-.69,0H162.26a1.8,1.8,0,0,1-.47,0,1.57,1.57,0,0,1-.81-.5,1.67,1.67,0,0,1-.4-.89,3.73,3.73,0,0,1,0-.49v-.49a2.61,2.61,0,0,0-.1-1,1.57,1.57,0,0,0-.58-.76,1.51,1.51,0,0,0-.94-.26h-7.52a5,5,0,0,0-4,1.78,5,5,0,0,0-1,2.09c-.05.19-.07.39-.1.59s0,.4,0,.6q0,.61,0,1.22,0,4.9,0,10.18c0,7,0,14.56,0,22.47s0,16.22,0,24.83q0,6.46,0,13.13,0,3.34,0,6.72,0,.85,0,1.69a5.39,5.39,0,0,0,.2,1.66,5,5,0,0,0,1.94,2.67,5.16,5.16,0,0,0,3.19.88h29.64c1.05,0,2.11,0,3.15,0a5,5,0,0,0,2.82-1.09,5.3,5.3,0,0,0,1-1.13,5,5,0,0,0,.63-1.38A5.24,5.24,0,0,0,189,257v-1.52q0-3,0-6c0-15.82,0-30.07,0-42s0-21.65,0-28.34q0-1.25,0-2.37a5.16,5.16,0,0,0-.37-2,5,5,0,0,0-.94-1.49,5,5,0,0,0-3-1.59,4,4,0,0,0-.51,0Z" transform="translate(-23.67 -46.9)"/><ellipse class="cls-7" cx="183.2" cy="179.71" rx="1.85" ry="0.04" transform="translate(-25.15 -45.37) rotate(-0.47)"/><ellipse class="cls-7" cx="183.21" cy="180.66" rx="1.85" ry="0.04" transform="matrix(1, -0.01, 0.01, 1, -25.16, -45.37)"/><ellipse class="cls-7" cx="183.22" cy="181.61" rx="1.85" ry="0.04" transform="matrix(1, -0.01, 0.01, 1, -25.17, -45.37)"/><path class="cls-7" d="M151.32,182.67h.29l.79,0,0,0v-.57c0-.11,0-.21,0-.33a.3.3,0,0,1,.27-.24H153a.31.31,0,0,1,.26.31v.84l0,0h1l0,0v-1.56a.32.32,0,0,0-.14-.24l-.44-.43-.42-.42-.2-.2c-.07-.07-.13-.14-.21-.15a.27.27,0,0,0-.23,0l-.19.18-.36.36c-.23.23-.46.45-.63.65a.71.71,0,0,0-.05.37v1.28a1.27,1.27,0,0,1,0,.13.92.92,0,0,1,0-.12v-1.48a.41.41,0,0,1,.06-.21c.18-.23.41-.43.63-.67l.36-.36.19-.19a.34.34,0,0,1,.29-.06.54.54,0,0,1,.24.17l.2.2.42.41.44.43a.84.84,0,0,1,.11.12.33.33,0,0,1,.05.17v1.6h-1.07v-.87a.24.24,0,0,0-.2-.24h-.36a.24.24,0,0,0-.22.19c0,.1,0,.22,0,.32s0,.4,0,.57v0h-1.11Z" transform="translate(-23.67 -46.9)"/><rect class="cls-3" x="129.59" y="167.39" width="28.28" height="5.78"/><rect class="cls-3" x="129.59" y="175.77" width="28.28" height="5.78"/><path class="cls-8" d="M174.74,239.93H160.55a2.89,2.89,0,0,1-2.89-2.89h0a2.89,2.89,0,0,1,2.89-2.89h14.19a2.89,2.89,0,0,1,2.89,2.89h0A2.89,2.89,0,0,1,174.74,239.93Z" transform="translate(-23.67 -46.9)"/><ellipse class="cls-7" cx="143.9" cy="152.81" rx="8.87" ry="0.26"/><path class="cls-8" d="M165.86,265.74a1.23,1.23,0,0,1,0,.29l0,.86,0,3.3,0,5.22c0,1,0,2.12,0,3.25a5,5,0,0,0,5,4.59h4.36l9.62,0,22,0,22.05,0,9.62,0h4.36a5,5,0,0,0,5-4.59c0-1.13,0-2.24,0-3.25l0-5.22,0-3.3,0-.86a.15.15,0,1,1,.05,0l0,.86,0,3.3,0,5.22c0,1,0,2.09,0,3.27a5.38,5.38,0,0,1-5.27,5l-4.36,0-9.62,0-22.05,0-22,0-9.62,0-4.36,0a5.38,5.38,0,0,1-5.28-5c0-1.18,0-2.25,0-3.27l0-5.22,0-3.3,0-.86A1.23,1.23,0,0,1,165.86,265.74Z" transform="translate(-23.67 -46.9)"/><circle class="cls-8" cx="142.19" cy="218.85" r="1.19"/><path class="cls-7" d="M267,171.56h.17a3.74,3.74,0,0,1,.51,0,4.73,4.73,0,0,1,1.88.65,4.82,4.82,0,0,1,1.15.93,5,5,0,0,1,1,1.5,5.2,5.2,0,0,1,.38,2q0,1.11,0,2.37c0,6.69,0,16.38,0,28.34s0,26.22,0,42q0,3,0,6,0,.76,0,1.52a5.38,5.38,0,0,1-.19,1.53,5.08,5.08,0,0,1-.64,1.42,5.44,5.44,0,0,1-1,1.16,5.08,5.08,0,0,1-2.9,1.13c-1.05,0-2.1,0-3.16,0H234.48a5.31,5.31,0,0,1-3.27-.9,5.14,5.14,0,0,1-2-2.75,5.54,5.54,0,0,1-.21-1.7q0-.85,0-1.69,0-3.38,0-6.72,0-6.67,0-13.13c0-8.61,0-16.92,0-24.83s0-15.43,0-22.47q0-5.28,0-10.18,0-.61,0-1.22c0-.2,0-.41,0-.61s.05-.4.1-.6a5.14,5.14,0,0,1,1.06-2.13,5.1,5.1,0,0,1,4.1-1.81h7.52a1.61,1.61,0,0,1,1,.28,1.66,1.66,0,0,1,.61.81,2.69,2.69,0,0,1,.1,1q0,.25,0,.49a3.67,3.67,0,0,0,0,.48,1.59,1.59,0,0,0,.38.84,1.48,1.48,0,0,0,.77.48,1.7,1.7,0,0,0,.45,0H257c.23,0,.47,0,.68,0a1.48,1.48,0,0,0,.61-.22,1.59,1.59,0,0,0,.7-1,2.78,2.78,0,0,0,0-.61q0-.3,0-.6a3.43,3.43,0,0,1,0-.59,1.7,1.7,0,0,1,.19-.54,1.59,1.59,0,0,1,.8-.71,2.52,2.52,0,0,1,1-.11h0a2.48,2.48,0,0,0-1,.11,1.54,1.54,0,0,0-.78.69,1.65,1.65,0,0,0-.18.52,3.39,3.39,0,0,0,0,.58v.6a2.83,2.83,0,0,1,0,.62,1.65,1.65,0,0,1-.73,1.05,1.54,1.54,0,0,1-.64.23c-.23,0-.46,0-.69,0H245.15a1.8,1.8,0,0,1-.47,0,1.57,1.57,0,0,1-.81-.5,1.67,1.67,0,0,1-.4-.89,3.73,3.73,0,0,1,0-.49v-.49a2.61,2.61,0,0,0-.1-1,1.57,1.57,0,0,0-.58-.76,1.51,1.51,0,0,0-.94-.26h-7.52a5,5,0,0,0-4,1.78,5,5,0,0,0-1,2.09c-.05.19-.07.39-.1.59s0,.4,0,.6v1.22q0,4.9,0,10.18c0,7,0,14.56,0,22.47s0,16.22,0,24.83q0,6.46,0,13.13,0,3.34,0,6.72v1.69a5.39,5.39,0,0,0,.2,1.66,5,5,0,0,0,1.94,2.67,5.16,5.16,0,0,0,3.19.88h29.64c1.05,0,2.11,0,3.15,0a5,5,0,0,0,2.82-1.09,5.3,5.3,0,0,0,1-1.13,5,5,0,0,0,.63-1.38,5.24,5.24,0,0,0,.19-1.5v-1.52q0-3,0-6c0-15.82,0-30.07,0-42s0-21.65,0-28.34q0-1.25,0-2.37a5.16,5.16,0,0,0-.37-2,5,5,0,0,0-.94-1.49,5,5,0,0,0-3-1.59,4,4,0,0,0-.51,0Z" transform="translate(-23.67 -46.9)"/><ellipse class="cls-7" cx="266.1" cy="179.71" rx="1.85" ry="0.04" transform="translate(-25.15 -44.69) rotate(-0.47)"/><ellipse class="cls-7" cx="266.11" cy="180.66" rx="1.85" ry="0.04" transform="translate(-25.15 -44.69) rotate(-0.47)"/><ellipse class="cls-7" cx="266.11" cy="181.61" rx="1.85" ry="0.04" transform="matrix(1, -0.01, 0.01, 1, -25.16, -44.69)"/><path class="cls-7" d="M234.22,182.67h.29l.79,0,0,0v-.57c0-.11,0-.21,0-.33a.3.3,0,0,1,.27-.24h.38a.31.31,0,0,1,.26.31v.84l0,0h1l0,0v-1.56a.32.32,0,0,0-.14-.24l-.44-.43-.42-.42-.2-.2c-.07-.07-.13-.14-.21-.15a.27.27,0,0,0-.23,0l-.19.18-.36.36c-.23.23-.46.45-.63.65a.71.71,0,0,0-.05.37v1.28a1.27,1.27,0,0,1,0,.13.92.92,0,0,1,0-.12v-1.48a.41.41,0,0,1,.06-.21c.18-.23.41-.43.63-.67l.36-.36.19-.19a.34.34,0,0,1,.29-.06.54.54,0,0,1,.24.17l.2.2.42.41.44.43a.83.83,0,0,1,.11.12.33.33,0,0,1,.05.17v1.6h-1.07v-.87a.24.24,0,0,0-.2-.24h-.36a.25.25,0,0,0-.22.19c0,.1,0,.22,0,.32s0,.4,0,.57v0h-1.11Z" transform="translate(-23.67 -46.9)"/><circle class="cls-8" cx="227.44" cy="154.5" r="8.39"/><path class="cls-9" d="M254,204.78h-5.76v-.71a2.88,2.88,0,0,1,2.88-2.88h0a2.88,2.88,0,0,1,2.88,2.88Z" transform="translate(-23.67 -46.9)"/><circle class="cls-9" cx="227.44" cy="152.81" r="1.69"/><rect class="cls-3" x="212.48" y="172.5" width="28.28" height="5.78"/><rect class="cls-3" x="212.48" y="180.88" width="28.28" height="5.78"/><path class="cls-8" d="M257.64,245H243.44a2.89,2.89,0,0,1-2.89-2.89h0a2.89,2.89,0,0,1,2.89-2.89h14.19a2.89,2.89,0,0,1,2.89,2.89h0A2.89,2.89,0,0,1,257.64,245Z" transform="translate(-23.67 -46.9)"/><ellipse class="cls-7" cx="226.86" cy="169.02" rx="8.87" ry="0.26"/><path class="cls-2" d="M240.06,223.55h-1.25a.22.22,0,0,1-.22-.22h0a.83.83,0,0,1,.83-.83h0a.83.83,0,0,1,.83.83h0A.22.22,0,0,1,240.06,223.55Z" transform="translate(-23.67 -46.9)"/><circle class="cls-2" cx="215.77" cy="175.17" r="0.5"/><rect class="cls-2" x="215.02" y="183.86" width="1.49" height="1.05"/><path class="cls-2" d="M240.35,231h-.5v-.32a.42.42,0,0,0-.84,0V231h-.5v-.32a.92.92,0,0,1,1.84,0Z" transform="translate(-23.67 -46.9)"/><path class="cls-7" d="M184.44,55.76h.17a3.74,3.74,0,0,1,.51,0,4.73,4.73,0,0,1,1.88.65,4.82,4.82,0,0,1,1.15.93,5,5,0,0,1,1,1.5,5.2,5.2,0,0,1,.38,2q0,1.11,0,2.37c0,6.69,0,16.38,0,28.34s0,26.22,0,42q0,3,0,6v1.52a5.37,5.37,0,0,1-.19,1.53,5.08,5.08,0,0,1-.64,1.42,5.43,5.43,0,0,1-1,1.16,5.08,5.08,0,0,1-2.9,1.13c-1.05,0-2.1,0-3.16,0H151.94a5.31,5.31,0,0,1-3.27-.9,5.14,5.14,0,0,1-2-2.75,5.53,5.53,0,0,1-.21-1.7q0-.85,0-1.69,0-3.38,0-6.72,0-6.67,0-13.13c0-8.61,0-16.92,0-24.83s0-15.43,0-22.47q0-5.28,0-10.18,0-.61,0-1.22c0-.2,0-.41,0-.61s.05-.4.1-.6a5.14,5.14,0,0,1,1.06-2.13,5.1,5.1,0,0,1,4.1-1.81h7.52a1.61,1.61,0,0,1,1,.28,1.66,1.66,0,0,1,.61.81,2.69,2.69,0,0,1,.1,1v.49a3.63,3.63,0,0,0,0,.48,1.59,1.59,0,0,0,.38.84,1.48,1.48,0,0,0,.77.48,1.7,1.7,0,0,0,.45,0h11.82c.23,0,.47,0,.68,0a1.48,1.48,0,0,0,.61-.22,1.59,1.59,0,0,0,.7-1,2.79,2.79,0,0,0,0-.61q0-.3,0-.6a3.44,3.44,0,0,1,0-.59,1.7,1.7,0,0,1,.19-.54,1.58,1.58,0,0,1,.8-.71,2.52,2.52,0,0,1,1-.11h0a2.48,2.48,0,0,0-1,.11,1.54,1.54,0,0,0-.78.69,1.65,1.65,0,0,0-.18.52,3.38,3.38,0,0,0,0,.58q0,.3,0,.6a2.83,2.83,0,0,1,0,.62,1.65,1.65,0,0,1-.73,1.05,1.54,1.54,0,0,1-.64.23c-.23,0-.46,0-.69,0H162.61a1.79,1.79,0,0,1-.47,0,1.57,1.57,0,0,1-.81-.5,1.67,1.67,0,0,1-.4-.89,3.71,3.71,0,0,1,0-.49q0-.24,0-.49a2.62,2.62,0,0,0-.1-1,1.57,1.57,0,0,0-.58-.76,1.51,1.51,0,0,0-.94-.26h-7.52a5,5,0,0,0-4,1.78,5,5,0,0,0-1,2.09c-.05.19-.07.39-.1.59s0,.4,0,.6q0,.61,0,1.22,0,4.9,0,10.18c0,7,0,14.56,0,22.47s0,16.22,0,24.83q0,6.46,0,13.13,0,3.34,0,6.72,0,.85,0,1.69a5.39,5.39,0,0,0,.2,1.66,5,5,0,0,0,1.94,2.67,5.16,5.16,0,0,0,3.19.88h29.64c1.05,0,2.11,0,3.15,0a5,5,0,0,0,2.82-1.09,5.3,5.3,0,0,0,1-1.13,5,5,0,0,0,.63-1.38,5.24,5.24,0,0,0,.19-1.5v-1.52q0-3,0-6c0-15.82,0-30.07,0-42s0-21.65,0-28.34q0-1.25,0-2.37a5.16,5.16,0,0,0-.37-2,5,5,0,0,0-.94-1.49,5,5,0,0,0-3-1.59,4,4,0,0,0-.51,0Z" transform="translate(-23.67 -46.9)"/><ellipse class="cls-7" cx="183.56" cy="63.92" rx="1.85" ry="0.04" transform="matrix(1, -0.01, 0.01, 1, -24.19, -45.38)"/><ellipse class="cls-7" cx="183.56" cy="64.86" rx="1.85" ry="0.04" transform="matrix(1, -0.01, 0.01, 1, -24.2, -45.38)"/><ellipse class="cls-7" cx="183.57" cy="65.81" rx="1.85" ry="0.04" transform="translate(-24.21 -45.37) rotate(-0.47)"/><path class="cls-7" d="M151.67,66.88H152l.79,0,0,0V66.3c0-.11,0-.21,0-.33a.3.3,0,0,1,.27-.24h.38a.31.31,0,0,1,.26.31v.84l0,0h1l0,0V65.3a.32.32,0,0,0-.14-.24l-.44-.43-.42-.42-.2-.2c-.07-.07-.13-.14-.21-.15a.27.27,0,0,0-.23,0l-.19.18-.36.36c-.23.23-.46.45-.63.65a.71.71,0,0,0-.05.37q0,.19,0,.35,0,.32,0,.57v.36a1.27,1.27,0,0,1,0,.13.92.92,0,0,1,0-.12V65.28a.41.41,0,0,1,.06-.21c.18-.23.41-.43.63-.67l.36-.36.19-.19a.34.34,0,0,1,.29-.06.54.54,0,0,1,.24.17l.2.2.42.41.44.43a.83.83,0,0,1,.11.12.33.33,0,0,1,.05.17v1.6h-1.07v0c0-.29,0-.57,0-.84a.24.24,0,0,0-.2-.24H153a.25.25,0,0,0-.22.19c0,.1,0,.22,0,.32s0,.4,0,.57v0h-1.11Z" transform="translate(-23.67 -46.9)"/><rect class="cls-3" x="131.01" y="52.91" width="28.28" height="5.78"/><rect class="cls-3" x="131.01" y="62.01" width="28.28" height="5.78"/><rect class="cls-3" x="131.01" y="71.1" width="28.28" height="5.78"/><path class="cls-8" d="M175.94,135.43H161.75a2.89,2.89,0,0,1-2.89-2.89h0a2.89,2.89,0,0,1,2.89-2.89h14.19a2.89,2.89,0,0,1,2.89,2.89h0A2.89,2.89,0,0,1,175.94,135.43Z" transform="translate(-23.67 -46.9)"/><rect class="cls-3" x="131.01" y="43.81" width="28.28" height="5.78"/><rect class="cls-3" x="131.01" y="34.71" width="28.28" height="5.78"/><ellipse class="cls-7" cx="145.15" cy="29.35" rx="8.87" ry="0.26"/><circle class="cls-8" cx="229.16" cy="122.53" r="1.19"/><circle class="cls-8" cx="311.5" cy="122.53" r="1.19"/><path class="cls-8" d="M335.17,169.43a1.23,1.23,0,0,1,0-.29l0-.86,0-3.3,0-5.22c0-1,0-2.12,0-3.25a5,5,0,0,0-5-4.59h-4.36l-9.62,0-22,0-22.05,0-9.62,0H258a5,5,0,0,0-5,4.59c0,1.13,0,2.24,0,3.25l0,5.22,0,3.3,0,.86a.15.15,0,1,1-.05,0l0-.86,0-3.3,0-5.22c0-1,0-2.09,0-3.27a5.38,5.38,0,0,1,5.27-5l4.36,0,9.62,0,22.05,0,22,0,9.62,0,4.36,0a5.38,5.38,0,0,1,5.28,5c0,1.18,0,2.25,0,3.27l0,5.22,0,3.3,0,.86A1.24,1.24,0,0,1,335.17,169.43Z" transform="translate(-23.67 -46.9)"/><circle class="cls-8" cx="393.85" cy="217.72" r="1.19"/><circle class="cls-8" cx="311.5" cy="217.72" r="1.19"/><circle class="cls-8" cx="305.59" cy="217.72" r="1.19"/><circle class="cls-8" cx="305.59" cy="251.55" r="1.19"/><circle class="cls-8" cx="328.03" cy="291.52" r="1.19"/><path class="cls-8" d="M335.17,264.61a1.23,1.23,0,0,1,0,.29l0,.86,0,3.3,0,5.22c0,1,0,2.12,0,3.25a5,5,0,0,0,5,4.59h4.36l9.62,0,22,0,22.05,0,9.62,0h4.36a5,5,0,0,0,5-4.59c0-1.13,0-2.24,0-3.25l0-5.22,0-3.3,0-.86a.15.15,0,1,1,.05,0l0,.86,0,3.3,0,5.22c0,1,0,2.09,0,3.27a5.38,5.38,0,0,1-5.27,5l-4.36,0-9.62,0-22.05,0-22,0-9.62,0-4.36,0a5.38,5.38,0,0,1-5.28-5c0-1.18,0-2.25,0-3.27l0-5.22,0-3.3,0-.86A1.23,1.23,0,0,1,335.17,264.61Z" transform="translate(-23.67 -46.9)"/><ellipse class="cls-8" cx="305.59" cy="234.97" rx="0.26" ry="17.25"/><ellipse class="cls-8" cx="344.2" cy="291.52" rx="16.18" ry="0.26"/><path class="cls-7" d="M409.14,333s-.11.24-.4.6a9.44,9.44,0,0,1-1.39,1.36,11.25,11.25,0,0,1-12.21,1.24,9.45,9.45,0,0,1-1.64-1.06c-.36-.29-.53-.48-.51-.51s.84.57,2.31,1.23a11.75,11.75,0,0,0,11.83-1.2C408.43,333.76,409.07,333,409.14,333Z" transform="translate(-23.67 -46.9)"/><path class="cls-7" d="M395.66,334.26a8.25,8.25,0,0,1-2.89.21h0l.26-.26a8.09,8.09,0,0,1-.26,2.85,8.1,8.1,0,0,1-.26-2.85v-.26h.3A8.25,8.25,0,0,1,395.66,334.26Z" transform="translate(-23.67 -46.9)"/><path class="cls-7" d="M390.26,325.59a1.75,1.75,0,0,1,.13-.71,9.45,9.45,0,0,1,.75-1.8,11.25,11.25,0,0,1,10.75-5.92,9.44,9.44,0,0,1,1.92.33c.44.13.67.24.67.27s-1-.2-2.6-.23a11.75,11.75,0,0,0-10.42,5.74C390.63,324.64,390.35,325.62,390.26,325.59Z" transform="translate(-23.67 -46.9)"/><path class="cls-7" d="M402.18,319.18a8.24,8.24,0,0,1,2.58-1.33h0l-.14.34a8.1,8.1,0,0,1-.88-2.72,8.09,8.09,0,0,1,1.36,2.52l.1.24-.25.1h0A8.24,8.24,0,0,1,402.18,319.18Z" transform="translate(-23.67 -46.9)"/><path class="cls-9" d="M427.06,356.64l-1.63-2.43s4-9.44,4-11.37v-9.15s-.67-1.25-1.64-1.16a7.68,7.68,0,0,0-1.73.39s-.39-2.79-1.93-2.89a2.19,2.19,0,0,0-2.12,1.06s-.29-2.6-1.73-2.51a4.29,4.29,0,0,0-2.6,1.64l-1.93-7.61-5.2-7.61a2.45,2.45,0,0,0-1.35,3c.67,2,2,4.85,2,4.85l1.16,8.67-.29,3.76s-1.54,3-2.89,2.89-6.07-5.69-8.87-5.88a2.36,2.36,0,0,0-2.7,2.12,32.39,32.39,0,0,1,6.07,5.11c1.95,2.36,3.18,5.69,4.53,7.42s5.2,7.23,5.2,7.23l1.63,4.41" transform="translate(-23.67 -46.9)"/><path class="cls-7" d="M415,358.52a1.4,1.4,0,0,1-.13-.28l-.34-.84-1.26-3.25v0l-2.68-3.66L409,348.27c-.56-.79-1.23-1.6-1.78-2.55a48.12,48.12,0,0,0-3.62-6,29.24,29.24,0,0,0-6.13-5.16l-.12-.08,0-.13a2.64,2.64,0,0,1,1.2-2,3.09,3.09,0,0,1,2.34-.26,13,13,0,0,1,4,2.47c1.23,1,2.4,2.13,3.71,3,.35.21.61.33.94.19a2.64,2.64,0,0,0,.9-.68,10,10,0,0,0,1.39-2l0,.1.29-3.76v.05l-1.16-8.67,0,.08c-.34-.72-.7-1.5-1-2.3a21.58,21.58,0,0,1-1.12-3,2.38,2.38,0,0,1,.34-1.69,3.2,3.2,0,0,1,1.27-1.12l.19-.1.13.19,5.2,7.62,0,0v0l1.92,7.62-.43-.09a5.56,5.56,0,0,1,1.28-1.18,2.91,2.91,0,0,1,1.67-.54,1.33,1.33,0,0,1,.87.39,2.63,2.63,0,0,1,.5.73,5.56,5.56,0,0,1,.44,1.59l-.43-.08a2.35,2.35,0,0,1,1.38-1.08,2.6,2.6,0,0,1,.85-.1,1.51,1.51,0,0,1,.85.26,2.87,2.87,0,0,1,1,1.32,6.77,6.77,0,0,1,.41,1.5l-.29-.17a6.7,6.7,0,0,1,2-.39,2.31,2.31,0,0,1,1.6,1.27l0,0v.06c0,2.52,0,4.88,0,7.06v1.6a5.54,5.54,0,0,1-.18,1.55c-.25,1-.56,1.87-.86,2.72-1.22,3.39-2.31,5.95-3,7.61v-.07L426.7,356l.28.46a.61.61,0,0,1,.08.16s0,0-.11-.14l-.31-.43-1.27-1.82,0,0,0,0c.66-1.68,1.71-4.26,2.88-7.65.28-.85.59-1.75.82-2.7a13.55,13.55,0,0,0,.15-3.08l0-7.06,0,.1a1.94,1.94,0,0,0-1.28-1,6.58,6.58,0,0,0-1.84.38l-.24.08,0-.26a4,4,0,0,0-1.2-2.51,1.6,1.6,0,0,0-1.33-.1,1.91,1.91,0,0,0-1.1.85l-.34.6-.09-.68a5.13,5.13,0,0,0-.41-1.44c-.21-.44-.54-.84-1-.85a3.64,3.64,0,0,0-2.53,1.54l-.31.38-.12-.47-1.94-7.61,0,.08-5.21-7.61.32.09a2.18,2.18,0,0,0-1.31,2.26,22.07,22.07,0,0,0,1.08,2.92c.34.79.69,1.56,1,2.28l0,0v0l1.15,8.67v.05l-.29,3.76v.05l0,0a10.43,10.43,0,0,1-1.47,2.12,3.09,3.09,0,0,1-1.08.8,1.16,1.16,0,0,1-.75.06,2.26,2.26,0,0,1-.63-.29c-1.4-1-2.53-2.09-3.75-3.07a12.67,12.67,0,0,0-3.8-2.4,2.65,2.65,0,0,0-2,.2,2.2,2.2,0,0,0-1,1.61l-.1-.2a29.39,29.39,0,0,1,6.2,5.29,47.35,47.35,0,0,1,3.6,6.09c.53.93,1.17,1.72,1.73,2.54l1.61,2.26,2.62,3.71h0l1.17,3.29.29.86A1.41,1.41,0,0,1,415,358.52Z" transform="translate(-23.67 -46.9)"/><path class="cls-8" d="M440.32,367.94s.21,0,.6-.07a4.33,4.33,0,0,0,1.65-.59,4.53,4.53,0,0,0,1.84-2.12c.5-1,.31-2.39.33-3.88l-.08-25.23c0-5.33,0-11.16,0-17.42q0-2.35,0-4.78c0-.8,0-1.64,0-2.43a4.27,4.27,0,0,0-.76-2.2,4.35,4.35,0,0,0-1.83-1.5,5.37,5.37,0,0,0-2.41-.35H434.4l-45.81,0a4.29,4.29,0,0,0-4.16,3.28,16.07,16.07,0,0,0-.12,2.93v3q0,5.94,0,11.69c0,7.66,0,15.05,0,22.1q0,5.28,0,10.29v2.48a4.49,4.49,0,0,0,.49,2.26,4.32,4.32,0,0,0,3.67,2.31l17.41,0,25.22.08,6.86,0,1.78,0,.61,0-.61,0-1.78,0-6.86,0-25.22.08-17.43,0a4.76,4.76,0,0,1-4-2.54,5,5,0,0,1-.55-2.47q0-1.23,0-2.48,0-5,0-10.29c0-7,0-14.43,0-22.1q0-5.75,0-11.69,0-1.48,0-3v-1.5a6.12,6.12,0,0,1,.14-1.55,4.8,4.8,0,0,1,4.66-3.68l45.81,0h5.21a5.84,5.84,0,0,1,2.6.4,4.81,4.81,0,0,1,2,1.66,4.73,4.73,0,0,1,.83,2.44c0,.85,0,1.64,0,2.46q0,2.43,0,4.78c0,6.26,0,12.09,0,17.42,0,10.64-.06,19.25-.08,25.23v2.11a4.57,4.57,0,0,1-2.32,4,4.21,4.21,0,0,1-1.7.56A3.31,3.31,0,0,1,440.32,367.94Z" transform="translate(-23.67 -46.9)"/><ellipse class="cls-8" cx="391.54" cy="112.16" rx="0.26" ry="12.43"/><path class="cls-7" d="M400.48,96.89a1.78,1.78,0,0,1,0-.91,3.62,3.62,0,0,1,1.31-2.12,3.8,3.8,0,0,1,3.63-.6,3.86,3.86,0,0,1,0,7.28,3.8,3.8,0,0,1-3.63-.6,3.62,3.62,0,0,1-1.31-2.12,1.78,1.78,0,0,1,0-.91s.05.32.21.86A3.63,3.63,0,0,0,402,99.63a3.46,3.46,0,0,0,3.24.45,3.4,3.4,0,0,0,0-6.37,3.46,3.46,0,0,0-3.24.45A3.63,3.63,0,0,0,400.69,96C400.53,96.57,400.52,96.89,400.48,96.89Z" transform="translate(-23.67 -46.9)"/><path class="cls-9" d="M417.86,139.19l-1.8-4-10.12-7.82-5.81-12.68s-.35-1.85.9-2.46,2.81,1,3.41,1.75,4.76,8.52,4.76,8.52v-2l-6.38-23a1.7,1.7,0,0,1,1.24-2.1h0a1.7,1.7,0,0,1,2,1l5.88,14.23s-.35-3,2.15-3.26a3.46,3.46,0,0,1,3.46,2.05s-.5-2,2.05-2.25,3.41,2.86,3.41,2.86c-.15-1.7,1.8-1.9,1.8-1.9a3.21,3.21,0,0,1,2.85,1.2c4.34,8.24,2.55,22.47,2.55,22.47l2.33,6.69.07.21" transform="translate(-23.67 -46.9)"/><path class="cls-7" d="M432.57,138.8a2.88,2.88,0,0,1-.18-.44L431.9,137l-1.83-5.1v-.05a65.09,65.09,0,0,0,.25-9.68,46.89,46.89,0,0,0-.71-6.13,23.43,23.43,0,0,0-2.15-6.55l0,0a2.91,2.91,0,0,0-2.65-1.12h0a2.35,2.35,0,0,0-1.17.5,1.35,1.35,0,0,0-.43,1.17l.19,2-.62-2a3.59,3.59,0,0,0-2.48-2.65,3,3,0,0,0-1.87.33,1.49,1.49,0,0,0-.66,1.61l.42,2-.87-1.86a3.56,3.56,0,0,0-1.26-1.46,3,3,0,0,0-1.9-.45,2,2,0,0,0-1.61,1,3.64,3.64,0,0,0-.37,2l.12,1.58-.6-1.46-3.78-9.14-2-4.77a1.74,1.74,0,0,0-.64-.94,1.42,1.42,0,0,0-1.06-.24A1.44,1.44,0,0,0,403,97.38l6.39,23.1v.07c0,.66,0,1.31,0,2v1l-.46-.85c-1.42-2.64-2.79-5.2-4.17-7.6-.17-.29-.35-.61-.53-.86a7,7,0,0,0-.66-.74,4.06,4.06,0,0,0-1.58-1,1.24,1.24,0,0,0-1.46.54,2.68,2.68,0,0,0-.24,1.72l0,0,5.77,12.7,0-.06,10.07,7.88h0v0l1.32,3,.32.76a1.26,1.26,0,0,1,.09.26,1.26,1.26,0,0,1-.09-.26l-.36-.74-1.39-3,0,0-10.17-7.75,0,0,0,0-5.85-12.66v0a3.08,3.08,0,0,1,.29-2,1.68,1.68,0,0,1,2-.74,4.47,4.47,0,0,1,1.77,1.14,7.42,7.42,0,0,1,.71.78c.22.31.38.6.57.9,1.4,2.41,2.77,5,4.2,7.6l-.46.11c0-.64,0-1.29,0-2v.07l-6.43-23.15a2,2,0,0,1,3-1.93,2.27,2.27,0,0,1,.82,1.17l2,4.78,3.77,9.14-.48.12a4.11,4.11,0,0,1,.44-2.32,2.45,2.45,0,0,1,2-1.21,3.48,3.48,0,0,1,2.21.53,4,4,0,0,1,1.44,1.68l-.45.15a2.16,2.16,0,0,1,.09-1.21,1.88,1.88,0,0,1,.78-.91,3.39,3.39,0,0,1,2.2-.39,3.11,3.11,0,0,1,1.86,1.14,5.49,5.49,0,0,1,1,1.85l-.44.08a1.81,1.81,0,0,1,.59-1.54,2.76,2.76,0,0,1,1.41-.6h0a2.93,2.93,0,0,1,1.76.26,3.92,3.92,0,0,1,1.3,1h0v0A23.7,23.7,0,0,1,430,116a46.58,46.58,0,0,1,.67,6.18,62.75,62.75,0,0,1-.35,9.72v-.05L432,137l.43,1.33A2.89,2.89,0,0,1,432.57,138.8Z" transform="translate(-23.67 -46.9)"/><path class="cls-8" d="M440.32,146.63s.21,0,.6-.07a4.33,4.33,0,0,0,1.65-.59,4.53,4.53,0,0,0,1.84-2.12c.5-1,.31-2.39.33-3.88l-.08-25.23c0-5.33,0-11.16,0-17.42q0-2.35,0-4.78c0-.8,0-1.64,0-2.43a4.27,4.27,0,0,0-.76-2.2,4.35,4.35,0,0,0-1.83-1.5,5.37,5.37,0,0,0-2.41-.35H434.4l-45.81,0a4.29,4.29,0,0,0-4.16,3.28,16.07,16.07,0,0,0-.12,2.93v3q0,5.94,0,11.69c0,7.66,0,15.05,0,22.1q0,5.28,0,10.29v2.48a4.49,4.49,0,0,0,.49,2.26,4.32,4.32,0,0,0,3.67,2.31l17.41,0,25.22.08,6.86,0,1.78,0,.61,0-.61,0-1.78,0-6.86,0-25.22.08-17.43,0a4.76,4.76,0,0,1-4-2.54,5,5,0,0,1-.55-2.47q0-1.23,0-2.48,0-5,0-10.29c0-7,0-14.43,0-22.1q0-5.75,0-11.69,0-1.48,0-3V90.8a6.12,6.12,0,0,1,.14-1.55,4.8,4.8,0,0,1,4.66-3.68l45.81,0h5.21a5.84,5.84,0,0,1,2.6.4,4.81,4.81,0,0,1,2,1.66,4.73,4.73,0,0,1,.83,2.44c0,.85,0,1.64,0,2.46q0,2.43,0,4.78c0,6.26,0,12.09,0,17.42,0,10.64-.06,19.25-.08,25.23v2.11a4.57,4.57,0,0,1-2.32,4,4.21,4.21,0,0,1-1.7.56A3.3,3.3,0,0,1,440.32,146.63Z" transform="translate(-23.67 -46.9)"/><circle class="cls-8" cx="391.54" cy="124.72" r="1.19"/><path class="cls-4" d="M427.85,170.9h-3.31a2.56,2.56,0,0,0-1,.11,1.56,1.56,0,0,0-.79.69,1.64,1.64,0,0,0-.19.52,3.32,3.32,0,0,0,0,.58v.6a2.79,2.79,0,0,1,0,.62,1.65,1.65,0,0,1-.74,1.05,1.58,1.58,0,0,1-.65.23c-.24,0-.47,0-.7,0h-12a1.85,1.85,0,0,1-.48,0,1.6,1.6,0,0,1-.83-.5,1.66,1.66,0,0,1-.4-.89,3.64,3.64,0,0,1,0-.49v-.49a2.57,2.57,0,0,0-.1-1,1.54,1.54,0,0,0-1.54-1h-7.64a5.33,5.33,0,0,0-2.23.42,5.2,5.2,0,0,0-1.85,1.37,5,5,0,0,0-1,2.08c-.05.19-.07.39-.1.59s0,.33,0,.5v32.66c0,.44,0,.86,0,1.3,0,1.32,0,2.66,0,4v42.45a5.15,5.15,0,0,0,.2,1.58,5,5,0,0,0,2,2.67,5.31,5.31,0,0,0,3.24.88h30.13c1.07,0,2.15,0,3.2,0a5.08,5.08,0,0,0,2.87-1.09,5.34,5.34,0,0,0,1-1.13,4.91,4.91,0,0,0,.64-1.38,5.15,5.15,0,0,0,.19-1.5v-1.52q0-3,0-6c0-15.82,0-30.07,0-42s0-21.65,0-28.34q0-1.25,0-2.37a5.09,5.09,0,0,0-.37-2,5,5,0,0,0-1-1.49,5.12,5.12,0,0,0-3.06-1.59,4.14,4.14,0,0,0-.52,0h-2.91Z" transform="translate(-23.67 -46.9)"/><path class="cls-7" d="M430.63,170.92h.17a3.8,3.8,0,0,1,.52,0,4.79,4.79,0,0,1,1.91.66,4.88,4.88,0,0,1,1.16.94,5.09,5.09,0,0,1,1,1.52,5.27,5.27,0,0,1,.38,2.07q0,1.13,0,2.4c0,6.79,0,16.61,0,28.74s0,26.58,0,42.63q0,3,0,6.09v1.54a5.45,5.45,0,0,1-.2,1.55,5.15,5.15,0,0,1-.65,1.44,5.51,5.51,0,0,1-1.06,1.18,5.15,5.15,0,0,1-2.94,1.14c-1.07,0-2.13,0-3.2,0H397.67a5.38,5.38,0,0,1-3.32-.92,5.21,5.21,0,0,1-2-2.79,5.61,5.61,0,0,1-.21-1.72q0-.86,0-1.72,0-3.43,0-6.81,0-6.76,0-13.32c0-8.73,0-17.15,0-25.18s0-15.65,0-22.78q0-5.35,0-10.32,0-.62,0-1.24c0-.21,0-.41,0-.62s.05-.41.1-.61a5.21,5.21,0,0,1,1.07-2.16,5.17,5.17,0,0,1,4.15-1.84h7.62a1.63,1.63,0,0,1,1,.28,1.69,1.69,0,0,1,.62.82,2.73,2.73,0,0,1,.1,1v.5a3.7,3.7,0,0,0,0,.49,1.61,1.61,0,0,0,.38.85,1.5,1.5,0,0,0,.78.48,1.74,1.74,0,0,0,.46,0h12c.23,0,.47,0,.69,0a1.5,1.5,0,0,0,.62-.22,1.61,1.61,0,0,0,.71-1,2.82,2.82,0,0,0,0-.62q0-.31,0-.61a3.47,3.47,0,0,1,0-.59,1.72,1.72,0,0,1,.19-.55,1.61,1.61,0,0,1,.81-.72,2.55,2.55,0,0,1,1-.11h0a2.52,2.52,0,0,0-1,.11,1.56,1.56,0,0,0-.79.7,1.68,1.68,0,0,0-.19.53,3.44,3.44,0,0,0,0,.59v.61a2.87,2.87,0,0,1,0,.63,1.67,1.67,0,0,1-.74,1.06,1.56,1.56,0,0,1-.65.23c-.24,0-.46,0-.7,0h-12a1.82,1.82,0,0,1-.48,0,1.59,1.59,0,0,1-.82-.51,1.7,1.7,0,0,1-.4-.9,3.78,3.78,0,0,1,0-.5q0-.25,0-.5a2.65,2.65,0,0,0-.1-1,1.59,1.59,0,0,0-.59-.77,1.54,1.54,0,0,0-1-.26h-7.62a5.07,5.07,0,0,0-4.07,1.81,5.1,5.1,0,0,0-1,2.11c-.05.19-.07.4-.1.59s0,.4,0,.61v1.24q0,5,0,10.32c0,7.14,0,14.76,0,22.78s0,16.45,0,25.18q0,6.55,0,13.32,0,3.38,0,6.81v1.72a5.47,5.47,0,0,0,.21,1.68,5.07,5.07,0,0,0,2,2.71,5.24,5.24,0,0,0,3.24.89h30.05c1.07,0,2.14,0,3.19,0a5,5,0,0,0,2.86-1.11,5.38,5.38,0,0,0,1-1.15,5,5,0,0,0,.63-1.4,5.31,5.31,0,0,0,.19-1.52V256q0-3.08,0-6.09c0-16,0-30.49,0-42.63s0-22,0-28.74q0-1.27,0-2.4a5.23,5.23,0,0,0-.37-2.05,5.07,5.07,0,0,0-1-1.51,5.08,5.08,0,0,0-3-1.61,4.09,4.09,0,0,0-.51,0Z" transform="translate(-23.67 -46.9)"/><ellipse class="cls-7" cx="429.73" cy="179.19" rx="1.88" ry="0.04" transform="translate(-25.14 -43.34) rotate(-0.47)"/><ellipse class="cls-7" cx="429.74" cy="180.15" rx="1.88" ry="0.04" transform="translate(-25.14 -43.34) rotate(-0.47)"/><ellipse class="cls-7" cx="429.75" cy="181.11" rx="1.88" ry="0.04" transform="translate(-25.15 -43.34) rotate(-0.47)"/><path class="cls-7" d="M397.41,182.19h.3l.8,0,0,0v-.58c0-.11,0-.21,0-.34a.31.31,0,0,1,.27-.25h.38a.31.31,0,0,1,.26.31v.85l0,0h1l0,0v-1.58a.33.33,0,0,0-.14-.24l-.44-.44-.43-.42-.21-.2c-.07-.07-.13-.14-.21-.16a.27.27,0,0,0-.23,0l-.19.19-.36.37c-.23.24-.47.45-.64.66a.72.72,0,0,0-.05.38v.36q0,.33,0,.57v.37a1.28,1.28,0,0,1,0,.13,1,1,0,0,1,0-.12v-1.5a.42.42,0,0,1,.06-.21c.19-.23.41-.43.64-.68l.36-.37c.06-.06.12-.13.2-.19a.34.34,0,0,1,.29-.06.54.54,0,0,1,.24.17l.21.2.43.42.44.44a.84.84,0,0,1,.11.12.33.33,0,0,1,.05.17v1.62h-1.09v0c0-.29,0-.58,0-.85a.24.24,0,0,0-.2-.25h-.37a.25.25,0,0,0-.22.2c0,.1,0,.22,0,.32s0,.4,0,.58v0h-1.12Z" transform="translate(-23.67 -46.9)"/><rect class="cls-1" x="372.23" y="140.38" width="35.52" height="6.46" rx="2.72" ry="2.72"/><path class="cls-7" d="M428.69,193.74l.2,0a2.93,2.93,0,0,0,.59-.11,2.81,2.81,0,0,0,.85-.45,2.67,2.67,0,0,0,.81-1,2.6,2.6,0,0,0,.21-.75,6.9,6.9,0,0,0,0-.87,5.85,5.85,0,0,0,0-.95,2.69,2.69,0,0,0-2.15-2.19,7.45,7.45,0,0,0-1.23,0h-1.31l-28,0a2.66,2.66,0,0,0-2.65,2.44c0,.32,0,.66,0,1a3.1,3.1,0,0,0,.1,1,2.68,2.68,0,0,0,1.1,1.51,2.56,2.56,0,0,0,.86.37,3.92,3.92,0,0,0,.93.07h18.13l8.5,0h0l-8.5,0H399a4,4,0,0,1-1-.07,2.69,2.69,0,0,1-.9-.38,2.81,2.81,0,0,1-1.16-1.58,3.23,3.23,0,0,1-.11-1c0-.33,0-.66,0-1a2.79,2.79,0,0,1,2.78-2.56l28,0H428a7.49,7.49,0,0,1,1.25.05,2.76,2.76,0,0,1,2.2,2.26,5.87,5.87,0,0,1,0,1,6.91,6.91,0,0,1,0,.88,2.65,2.65,0,0,1-.22.77,2.7,2.7,0,0,1-.83,1,2.8,2.8,0,0,1-.87.44,2.74,2.74,0,0,1-.59.1Z" transform="translate(-23.67 -46.9)"/><path class="cls-7" d="M429.24,190.36s0-.1-.06-.28a1.17,1.17,0,0,0-.43-.61,1.11,1.11,0,1,0,0,1.79,1.17,1.17,0,0,0,.43-.61c.05-.18,0-.28.06-.28s0,0,0,.08a.87.87,0,0,1,0,.22,1.17,1.17,0,0,1-.42.68,1.21,1.21,0,0,1-1.16.19,1.23,1.23,0,0,1,0-2.31,1.21,1.21,0,0,1,1.16.19,1.16,1.16,0,0,1,.42.68.87.87,0,0,1,0,.22S429.25,190.36,429.24,190.36Z" transform="translate(-23.67 -46.9)"/><ellipse class="cls-7" cx="429.36" cy="191.81" rx="0.07" ry="0.77" transform="translate(-39.83 295.41) rotate(-42.74)"/><path class="cls-2" d="M400.69,189.87h-.63v-.16h1.46v.16h-.63v1.64h-.19Z" transform="translate(-23.67 -46.9)"/><path class="cls-2" d="M402.82,190.88h-1.13a.5.5,0,0,0,.53.47.53.53,0,0,0,.41-.18l.1.12a.72.72,0,0,1-1.23-.47.65.65,0,0,1,.66-.69.65.65,0,0,1,.66.69S402.82,190.86,402.82,190.88Zm-1.13-.14h1a.48.48,0,0,0-1,0Z" transform="translate(-23.67 -46.9)"/><path class="cls-2" d="M404,191.5l-.43-.57-.43.57H403l.54-.7-.51-.66h.21l.41.53.41-.53h.2l-.51.66.54.7Z" transform="translate(-23.67 -46.9)"/><path class="cls-2" d="M405.25,191.42a.44.44,0,0,1-.29.1.36.36,0,0,1-.4-.39v-.82h-.24v-.15h.24v-.3h.18v.3h.41v.15h-.41v.81a.22.22,0,0,0,.23.25.3.3,0,0,0,.2-.07Z" transform="translate(-23.67 -46.9)"/><ellipse class="cls-8" cx="390.65" cy="153" rx="5.81" ry="0.07"/><ellipse class="cls-7" cx="395.28" cy="155.38" rx="10.44" ry="0.07"/><ellipse class="cls-7" cx="395.16" cy="157.08" rx="10.31" ry="0.07"/><ellipse class="cls-7" cx="390.93" cy="158.71" rx="6.09" ry="0.07"/><ellipse class="cls-8" cx="390.65" cy="165.95" rx="5.81" ry="0.07"/><ellipse class="cls-7" cx="395.28" cy="168.34" rx="10.44" ry="0.07"/><ellipse class="cls-7" cx="395.16" cy="170.04" rx="10.31" ry="0.07"/><ellipse class="cls-7" cx="390.93" cy="171.66" rx="6.09" ry="0.07"/><ellipse class="cls-8" cx="390.65" cy="178.91" rx="5.81" ry="0.07"/><ellipse class="cls-7" cx="395.28" cy="181.29" rx="10.44" ry="0.07"/><ellipse class="cls-7" cx="395.16" cy="182.99" rx="10.31" ry="0.07"/><ellipse class="cls-7" cx="390.93" cy="184.62" rx="6.09" ry="0.07"/><ellipse class="cls-8" cx="390.65" cy="191.86" rx="5.81" ry="0.07"/><ellipse class="cls-7" cx="395.28" cy="194.24" rx="10.44" ry="0.07"/><ellipse class="cls-7" cx="395.16" cy="195.95" rx="10.31" ry="0.07"/><ellipse class="cls-7" cx="390.93" cy="197.57" rx="6.09" ry="0.07"/><ellipse class="cls-8" cx="390.65" cy="204.72" rx="5.81" ry="0.07"/><ellipse class="cls-7" cx="395.28" cy="207.11" rx="10.44" ry="0.07"/><ellipse class="cls-7" cx="395.16" cy="208.81" rx="10.31" ry="0.07"/><ellipse class="cls-7" cx="390.93" cy="210.43" rx="6.09" ry="0.07"/><rect class="cls-8" x="397.23" y="198.65" width="7.11" height="9.46" transform="translate(171.51 556.13) rotate(-89.68)"/><polygon class="cls-8" points="372.37 160.01 375.7 155.61 377.73 158.39 379.13 156.92 381.83 160.06 372.37 160.01"/><circle class="cls-8" cx="401.54" cy="201.98" r="0.74" transform="translate(173.66 555.49) rotate(-89.68)"/><g class="cls-11"><polygon points="372.37 160.01 375.7 155.61 377.73 158.39 379.13 156.92 381.83 160.06 372.37 160.01"/></g><g class="cls-11"><circle cx="401.54" cy="201.98" r="0.74" transform="translate(173.66 555.49) rotate(-89.68)"/></g><rect class="cls-8" x="397.23" y="211.44" width="7.11" height="9.46" transform="translate(158.72 568.85) rotate(-89.68)"/><polygon class="cls-8" points="372.37 172.8 375.7 168.4 377.73 171.18 379.13 169.71 381.83 172.85 372.37 172.8"/><circle class="cls-8" cx="401.54" cy="214.77" r="0.74" transform="translate(160.87 568.21) rotate(-89.68)"/><g class="cls-11"><polygon points="372.37 172.8 375.7 168.4 377.73 171.18 379.13 169.71 381.83 172.85 372.37 172.8"/></g><g class="cls-11"><circle cx="401.54" cy="214.77" r="0.74" transform="translate(160.87 568.21) rotate(-89.68)"/></g><rect class="cls-8" x="397.23" y="224.23" width="7.11" height="9.46" transform="translate(145.93 581.57) rotate(-89.68)"/><polygon class="cls-8" points="372.37 185.59 375.7 181.19 377.73 183.97 379.13 182.5 381.83 185.64 372.37 185.59"/><circle class="cls-8" cx="401.54" cy="227.56" r="0.74" transform="translate(148.08 580.93) rotate(-89.68)"/><g class="cls-11"><polygon points="372.37 185.59 375.7 181.19 377.73 183.97 379.13 182.5 381.83 185.64 372.37 185.59"/></g><g class="cls-11"><circle cx="401.54" cy="227.56" r="0.74" transform="translate(148.08 580.93) rotate(-89.68)"/></g><rect class="cls-8" x="397.23" y="237.02" width="7.11" height="9.46" transform="translate(133.14 594.29) rotate(-89.68)"/><polygon class="cls-8" points="372.37 198.38 375.7 193.98 377.73 196.76 379.13 195.28 381.83 198.43 372.37 198.38"/><circle class="cls-8" cx="401.54" cy="240.35" r="0.74" transform="translate(135.29 593.64) rotate(-89.68)"/><g class="cls-11"><polygon points="372.37 198.38 375.7 193.98 377.73 196.76 379.13 195.28 381.83 198.43 372.37 198.38"/></g><g class="cls-11"><circle cx="401.54" cy="240.35" r="0.74" transform="translate(135.29 593.64) rotate(-89.68)"/></g><rect class="cls-8" x="397.23" y="249.75" width="7.11" height="9.46" transform="translate(120.41 606.94) rotate(-89.68)"/><polygon class="cls-8" points="372.37 211.11 375.7 206.71 377.73 209.48 379.13 208.01 381.83 211.16 372.37 211.11"/><circle class="cls-8" cx="401.54" cy="253.07" r="0.74" transform="translate(122.56 606.3) rotate(-89.68)"/><g class="cls-11"><polygon points="372.37 211.11 375.7 206.71 377.73 209.48 379.13 208.01 381.83 211.16 372.37 211.11"/></g><g class="cls-11"><circle cx="401.54" cy="253.07" r="0.74" transform="translate(122.56 606.3) rotate(-89.68)"/></g><path class="cls-4" d="M347.18,171.6h-3.26a2.48,2.48,0,0,0-1,.11,1.54,1.54,0,0,0-.78.69,1.65,1.65,0,0,0-.18.52,3.38,3.38,0,0,0,0,.58v.6a2.83,2.83,0,0,1,0,.62,1.65,1.65,0,0,1-.73,1.05,1.54,1.54,0,0,1-.64.23c-.23,0-.46,0-.69,0H328a1.79,1.79,0,0,1-.47,0,1.56,1.56,0,0,1-.81-.5,1.67,1.67,0,0,1-.4-.89,3.71,3.71,0,0,1,0-.49q0-.24,0-.49a2.61,2.61,0,0,0-.1-1,1.57,1.57,0,0,0-.58-.76,1.52,1.52,0,0,0-.94-.26H317.2a5,5,0,0,0-4,1.78,5,5,0,0,0-1,2.09c-.05.19-.07.39-.1.59s0,.33,0,.5v32.66c0,.44,0,.86,0,1.3,0,1.32,0,2.66,0,4V257a5.23,5.23,0,0,0,.2,1.58,5,5,0,0,0,1.94,2.67,5.16,5.16,0,0,0,3.19.88H347c1.05,0,2.11,0,3.15,0A5,5,0,0,0,353,261a5.31,5.31,0,0,0,1-1.13,5,5,0,0,0,.62-1.38,5.24,5.24,0,0,0,.19-1.5v-1.52q0-3,0-6c0-15.82,0-30.07,0-42s0-21.65,0-28.34q0-1.25,0-2.37a5.16,5.16,0,0,0-.37-2,5,5,0,0,0-.94-1.49,5,5,0,0,0-3-1.59,4,4,0,0,0-.51,0h-2.86Z" transform="translate(-23.67 -46.9)"/><path class="cls-7" d="M349.9,171.56h.17a3.74,3.74,0,0,1,.51,0,4.73,4.73,0,0,1,1.88.65,4.82,4.82,0,0,1,1.15.93,5,5,0,0,1,1,1.5,5.2,5.2,0,0,1,.38,2q0,1.11,0,2.37c0,6.69,0,16.38,0,28.34s0,26.22,0,42q0,3,0,6V257a5.38,5.38,0,0,1-.19,1.53,5.08,5.08,0,0,1-.64,1.42,5.43,5.43,0,0,1-1,1.16,5.08,5.08,0,0,1-2.9,1.13c-1.05,0-2.1,0-3.16,0H317.39a5.31,5.31,0,0,1-3.27-.9,5.14,5.14,0,0,1-2-2.75,5.54,5.54,0,0,1-.21-1.7q0-.85,0-1.69,0-3.38,0-6.72,0-6.67,0-13.13c0-8.61,0-16.92,0-24.83s0-15.43,0-22.47q0-5.28,0-10.18,0-.61,0-1.22c0-.2,0-.41,0-.61s.05-.4.1-.6a5.14,5.14,0,0,1,1.06-2.13,5.1,5.1,0,0,1,4.1-1.81h7.52a1.61,1.61,0,0,1,1,.28,1.66,1.66,0,0,1,.61.81,2.69,2.69,0,0,1,.1,1v.49a3.65,3.65,0,0,0,0,.48,1.59,1.59,0,0,0,.38.84,1.48,1.48,0,0,0,.77.48,1.7,1.7,0,0,0,.45,0h11.82c.23,0,.47,0,.68,0a1.48,1.48,0,0,0,.61-.22,1.59,1.59,0,0,0,.7-1,2.78,2.78,0,0,0,0-.61q0-.3,0-.6a3.42,3.42,0,0,1,0-.59,1.7,1.7,0,0,1,.19-.54,1.58,1.58,0,0,1,.8-.71,2.52,2.52,0,0,1,1-.11h0a2.48,2.48,0,0,0-1,.11,1.54,1.54,0,0,0-.78.69,1.65,1.65,0,0,0-.18.52,3.38,3.38,0,0,0,0,.58q0,.3,0,.6a2.83,2.83,0,0,1,0,.62,1.65,1.65,0,0,1-.73,1.05,1.54,1.54,0,0,1-.64.23c-.23,0-.46,0-.69,0H328.07a1.8,1.8,0,0,1-.47,0,1.57,1.57,0,0,1-.81-.5,1.67,1.67,0,0,1-.4-.89,3.73,3.73,0,0,1,0-.49q0-.24,0-.49a2.61,2.61,0,0,0-.1-1,1.57,1.57,0,0,0-.58-.76,1.51,1.51,0,0,0-.94-.26h-7.52a5,5,0,0,0-4,1.78,5,5,0,0,0-1,2.09c-.05.19-.07.39-.1.59s0,.4,0,.6v1.22q0,4.9,0,10.18c0,7,0,14.56,0,22.47s0,16.22,0,24.83q0,6.46,0,13.13,0,3.34,0,6.72v1.69a5.39,5.39,0,0,0,.2,1.66,5,5,0,0,0,1.94,2.67,5.16,5.16,0,0,0,3.19.88H347c1.05,0,2.11,0,3.15,0A5,5,0,0,0,353,261a5.3,5.3,0,0,0,1-1.13,5,5,0,0,0,.63-1.38,5.24,5.24,0,0,0,.19-1.5v-1.52q0-3,0-6c0-15.82,0-30.07,0-42s0-21.65,0-28.34q0-1.25,0-2.37a5.16,5.16,0,0,0-.37-2,5,5,0,0,0-.94-1.49,5,5,0,0,0-3-1.59,4,4,0,0,0-.51,0Z" transform="translate(-23.67 -46.9)"/><ellipse class="cls-7" cx="349.02" cy="179.71" rx="1.85" ry="0.04" transform="translate(-25.14 -44) rotate(-0.47)"/><ellipse class="cls-7" cx="349.02" cy="180.66" rx="1.85" ry="0.04" transform="matrix(1, -0.01, 0.01, 1, -25.15, -44)"/><ellipse class="cls-7" cx="349.03" cy="181.61" rx="1.85" ry="0.04" transform="matrix(1, -0.01, 0.01, 1, -25.16, -44)"/><path class="cls-7" d="M317.13,182.67h.29l.79,0,0,0v-.57c0-.11,0-.21,0-.33a.3.3,0,0,1,.27-.24h.38a.31.31,0,0,1,.26.31v.84l0,0h1l0,0v-1.56a.32.32,0,0,0-.14-.24l-.44-.43L319,180l-.2-.2c-.07-.07-.13-.14-.21-.15a.27.27,0,0,0-.23,0l-.19.18-.36.36c-.23.23-.46.45-.63.65a.71.71,0,0,0-.05.37v1.28a1.24,1.24,0,0,1,0,.13.92.92,0,0,1,0-.12v-1.48a.41.41,0,0,1,.06-.21c.18-.23.41-.43.63-.67l.36-.36c.06-.06.12-.13.19-.19a.34.34,0,0,1,.29-.06.54.54,0,0,1,.24.17l.2.2.42.41.44.43a.83.83,0,0,1,.11.12.33.33,0,0,1,.05.17v1.6H319v-.87a.24.24,0,0,0-.2-.24h-.36a.24.24,0,0,0-.22.19c0,.1,0,.22,0,.32s0,.4,0,.57v0h-1.11Z" transform="translate(-23.67 -46.9)"/><circle class="cls-8" cx="310.31" cy="140.97" r="3.35"/><path class="cls-9" d="M335.13,189.22h-2.3v-.28a1.15,1.15,0,0,1,1.15-1.15h0a1.15,1.15,0,0,1,1.15,1.15Z" transform="translate(-23.67 -46.9)"/><circle class="cls-9" cx="310.31" cy="140.3" r="0.68"/><ellipse class="cls-7" cx="309.78" cy="149.82" rx="8.87" ry="0.26"/><rect class="cls-8" x="317.21" y="203.68" width="11.52" height="15.32" transform="translate(86.17 486.23) rotate(-89.68)"/><polygon class="cls-8" points="291.61 170.16 297 163.03 300.29 167.53 302.55 165.15 306.93 170.24 291.61 170.16"/><circle class="cls-8" cx="324.19" cy="209.07" r="1.21" transform="translate(89.66 485.2) rotate(-89.68)"/><g class="cls-11"><polygon points="291.61 170.16 297 163.03 300.29 167.53 302.55 165.15 306.93 170.24 291.61 170.16"/></g><g class="cls-11"><circle cx="324.19" cy="209.07" r="1.21" transform="translate(89.66 485.2) rotate(-89.68)"/></g><rect class="cls-8" x="319.61" y="216.31" width="26.62" height="35.42" transform="translate(73.39 518.74) rotate(-89.68)"/><polygon class="cls-8" points="291.47 200.33 303.94 183.85 311.54 194.25 316.77 188.75 326.89 200.53 291.47 200.33"/><circle class="cls-8" cx="335.74" cy="228.77" r="2.79" transform="translate(81.44 516.33) rotate(-89.68)"/><g class="cls-11"><polygon points="291.47 200.33 303.94 183.85 311.54 194.25 316.77 188.75 326.89 200.53 291.47 200.33"/></g><g class="cls-11"><circle cx="335.74" cy="228.77" r="2.79" transform="translate(81.44 516.33) rotate(-89.68)"/></g><rect class="cls-8" x="337.44" y="203.68" width="11.52" height="15.32" transform="translate(106.28 506.46) rotate(-89.68)"/><polygon class="cls-8" points="311.84 170.16 317.23 163.03 320.52 167.53 322.78 165.15 327.16 170.24 311.84 170.16"/><circle class="cls-8" cx="344.42" cy="209.07" r="1.21" transform="translate(109.77 505.43) rotate(-89.68)"/><g class="cls-11"><polygon points="311.84 170.16 317.23 163.03 320.52 167.53 322.78 165.15 327.16 170.24 311.84 170.16"/></g><g class="cls-11"><circle cx="344.42" cy="209.07" r="1.21" transform="translate(109.77 505.43) rotate(-89.68)"/></g><path class="cls-4" d="M341.77,297.94H338.5a2.5,2.5,0,0,0-1,.11,1.54,1.54,0,0,0-.78.69,1.65,1.65,0,0,0-.18.52,3.37,3.37,0,0,0,0,.58v.6a2.82,2.82,0,0,1,0,.62,1.65,1.65,0,0,1-.73,1.05,1.54,1.54,0,0,1-.64.23c-.23,0-.46,0-.69,0H322.56a1.8,1.8,0,0,1-.47,0,1.57,1.57,0,0,1-.81-.5,1.67,1.67,0,0,1-.4-.89,3.69,3.69,0,0,1,0-.49v-.49a2.61,2.61,0,0,0-.1-1,1.57,1.57,0,0,0-.58-.76,1.53,1.53,0,0,0-.94-.26h-7.55a5.2,5.2,0,0,0-2.2.42,5.14,5.14,0,0,0-1.83,1.37,5,5,0,0,0-1,2.08c-.05.19-.07.39-.1.59s0,.33,0,.5v32.66c0,.44,0,.86,0,1.3,0,1.32,0,2.66,0,4v42.45a5.21,5.21,0,0,0,.2,1.58,5,5,0,0,0,1.94,2.67,5.2,5.2,0,0,0,3.2.88h29.74c1.06,0,2.12,0,3.16,0a5,5,0,0,0,2.83-1.09,5.31,5.31,0,0,0,1-1.13,4.94,4.94,0,0,0,.63-1.38,5.22,5.22,0,0,0,.19-1.5v-1.52q0-3,0-6c0-15.82,0-30.07,0-42s0-21.65,0-28.34q0-1.25,0-2.37a5.15,5.15,0,0,0-.37-2,5,5,0,0,0-.95-1.49,5,5,0,0,0-3-1.59,4,4,0,0,0-.51,0h-2.87Z" transform="translate(-23.67 -46.9)"/><path class="cls-7" d="M344.53,298h.17a3.74,3.74,0,0,1,.51,0,4.73,4.73,0,0,1,1.88.65,4.82,4.82,0,0,1,1.15.93,5,5,0,0,1,1,1.5,5.2,5.2,0,0,1,.38,2q0,1.11,0,2.37c0,6.69,0,16.38,0,28.34s0,26.22,0,42q0,3,0,6v1.52a5.37,5.37,0,0,1-.19,1.53,5.08,5.08,0,0,1-.64,1.42,5.43,5.43,0,0,1-1,1.16,5.08,5.08,0,0,1-2.9,1.13c-1.05,0-2.1,0-3.16,0H312a5.31,5.31,0,0,1-3.27-.9,5.14,5.14,0,0,1-2-2.75,5.53,5.53,0,0,1-.21-1.7q0-.85,0-1.69,0-3.38,0-6.72,0-6.67,0-13.13c0-8.61,0-16.92,0-24.83s0-15.43,0-22.47q0-5.28,0-10.18,0-.61,0-1.22c0-.2,0-.41,0-.61s.05-.4.1-.6a5.14,5.14,0,0,1,1.06-2.13,5.1,5.1,0,0,1,4.1-1.81h7.52a1.61,1.61,0,0,1,1,.28,1.66,1.66,0,0,1,.61.81,2.69,2.69,0,0,1,.1,1v.49a3.63,3.63,0,0,0,0,.48,1.59,1.59,0,0,0,.38.84,1.48,1.48,0,0,0,.77.48,1.7,1.7,0,0,0,.45,0h11.82c.23,0,.47,0,.68,0a1.48,1.48,0,0,0,.61-.22,1.59,1.59,0,0,0,.7-1,2.79,2.79,0,0,0,0-.61q0-.3,0-.6a3.44,3.44,0,0,1,0-.59,1.7,1.7,0,0,1,.19-.54,1.59,1.59,0,0,1,.8-.71,2.52,2.52,0,0,1,1-.11h0a2.48,2.48,0,0,0-1,.11,1.54,1.54,0,0,0-.78.69,1.65,1.65,0,0,0-.18.52,3.38,3.38,0,0,0,0,.58q0,.3,0,.6a2.83,2.83,0,0,1,0,.62,1.65,1.65,0,0,1-.73,1.05,1.54,1.54,0,0,1-.64.23c-.23,0-.46,0-.69,0H322.7a1.79,1.79,0,0,1-.47,0,1.57,1.57,0,0,1-.81-.5,1.67,1.67,0,0,1-.4-.89,3.71,3.71,0,0,1,0-.49q0-.24,0-.49a2.62,2.62,0,0,0-.1-1,1.57,1.57,0,0,0-.58-.76,1.51,1.51,0,0,0-.94-.26h-7.52a5,5,0,0,0-4,1.78,5,5,0,0,0-1,2.09c-.05.19-.07.39-.1.59s0,.4,0,.6q0,.61,0,1.22,0,4.9,0,10.18c0,7,0,14.56,0,22.47s0,16.22,0,24.83q0,6.46,0,13.13,0,3.34,0,6.72,0,.85,0,1.69a5.39,5.39,0,0,0,.2,1.66,5,5,0,0,0,1.94,2.67,5.16,5.16,0,0,0,3.19.88h29.64c1.05,0,2.11,0,3.15,0a5,5,0,0,0,2.82-1.09,5.31,5.31,0,0,0,1-1.13,5,5,0,0,0,.63-1.38,5.24,5.24,0,0,0,.19-1.5v-1.52q0-3,0-6c0-15.82,0-30.07,0-42s0-21.65,0-28.34q0-1.25,0-2.37a5.16,5.16,0,0,0-.37-2,5,5,0,0,0-.94-1.49,5,5,0,0,0-3-1.59,4,4,0,0,0-.51,0Z" transform="translate(-23.67 -46.9)"/><ellipse class="cls-7" cx="343.64" cy="306.15" rx="1.85" ry="0.04" transform="translate(-26.19 -44.04) rotate(-0.47)"/><ellipse class="cls-7" cx="343.65" cy="307.1" rx="1.85" ry="0.04" transform="translate(-26.2 -44.04) rotate(-0.47)"/><ellipse class="cls-7" cx="343.66" cy="308.05" rx="1.85" ry="0.04" transform="translate(-26.21 -44.04) rotate(-0.47)"/><path class="cls-7" d="M311.76,309.12h.29l.79,0,0,0v-.57c0-.11,0-.21,0-.33a.3.3,0,0,1,.27-.24h.38a.31.31,0,0,1,.26.31v.84l0,0h1l0,0v-1.56a.32.32,0,0,0-.14-.24l-.44-.43-.42-.42-.2-.2c-.07-.07-.13-.14-.21-.15a.27.27,0,0,0-.23,0l-.19.18-.36.36c-.23.23-.46.45-.63.65a.71.71,0,0,0-.05.37q0,.19,0,.35,0,.32,0,.57V309a1.27,1.27,0,0,1,0,.13.92.92,0,0,1,0-.12v-1.48a.41.41,0,0,1,.06-.21c.18-.23.41-.43.63-.67l.36-.36.19-.19a.34.34,0,0,1,.29-.06.54.54,0,0,1,.24.17l.21.2.42.41.44.43a.83.83,0,0,1,.11.12.33.33,0,0,1,.05.17v1.6h-1.07v0c0-.29,0-.57,0-.84a.24.24,0,0,0-.2-.24h-.36a.24.24,0,0,0-.22.19c0,.1,0,.22,0,.32s0,.4,0,.57v0h-1.11Z" transform="translate(-23.67 -46.9)"/><ellipse class="cls-7" cx="304.4" cy="295.46" rx="8.87" ry="0.26"/><rect class="cls-8" x="319.49" y="316.33" width="17.23" height="22.92" transform="translate(-25.18 607.16) rotate(-89.68)"/><polygon class="cls-8" points="292.92 289.44 300.99 278.78 305.91 285.51 309.29 281.94 315.85 289.57 292.92 289.44"/><circle class="cls-8" cx="329.92" cy="324.39" r="1.8" transform="translate(-19.97 605.61) rotate(-89.68)"/><g class="cls-11"><polygon points="292.92 289.44 300.99 278.78 305.91 285.51 309.29 281.94 315.85 289.57 292.92 289.44"/></g><g class="cls-11"><circle cx="329.92" cy="324.39" r="1.8" transform="translate(-19.97 605.61) rotate(-89.68)"/></g><ellipse class="cls-7" cx="304.45" cy="301.8" rx="15.73" ry="0.26"/><ellipse class="cls-7" cx="304.45" cy="306.19" rx="15.73" ry="0.26"/><ellipse class="cls-7" cx="304.45" cy="310.57" rx="15.73" ry="0.26"/><ellipse class="cls-7" cx="304.45" cy="314.96" rx="15.73" ry="0.26"/><ellipse class="cls-7" cx="304.45" cy="319.35" rx="15.73" ry="0.26"/><path class="cls-7" d="M337.09,370.25a13.41,13.41,0,0,1-2.65.18c-1.63,0-3.89.08-6.39.08s-4.75,0-6.39-.08a13.4,13.4,0,0,1-2.65-.18,13.4,13.4,0,0,1,2.65-.18c1.63,0,3.89-.08,6.39-.08s4.75,0,6.39.08A13.41,13.41,0,0,1,337.09,370.25Z" transform="translate(-23.67 -46.9)"/><ellipse class="cls-8" cx="143.96" cy="114.62" rx="0.26" ry="12.21"/><circle class="cls-8" cx="143.96" cy="102.41" r="1.19"/><circle class="cls-8" cx="143.96" cy="126.49" r="1.19"/><circle class="cls-8" cx="169.53" cy="55.8" r="1.19"/><path class="cls-8" d="M248,169.43a1.33,1.33,0,0,1,0-.3l0-.89,0-3.42-.08-12.59c0-10.66,0-25.33-.08-41.54a11.4,11.4,0,0,0-.2-2.94,6.29,6.29,0,0,0-1.3-2.53,6.4,6.4,0,0,0-4.94-2.26l-11,0-18.68-.06L199,102.79l-3.42,0-.89,0-.3,0,.3,0,.89,0,3.42,0,12.59-.08,18.68-.06,11,0a6.91,6.91,0,0,1,5.33,2.44,6.81,6.81,0,0,1,1.41,2.73,11.84,11.84,0,0,1,.22,3.07c0,16.21-.06,30.88-.08,41.54,0,5.29-.06,9.58-.08,12.59l0,3.42,0,.89A1.32,1.32,0,0,1,248,169.43Z" transform="translate(-23.67 -46.9)"/><circle class="cls-8" cx="224.33" cy="122.53" r="1.19"/></g><g id="Character"><polyline class="cls-4" points="122.71 253.76 141.41 334.52 134.47 412.01 70.37 412.01 68.2 371.2 68.2 253.39 81.4 247.99 112.82 250.69"/><path class="cls-12" d="M230.32,350.06,244,285.12l.71-10.73s3-24.08,3-26.43c0-2.72,1.3-3.37,2.31-3.3,1.56.1,2.67,2,2.74,4.36,0,.81-.07,13.53-.07,13.53a30,30,0,0,1,2.46-3.44c1.88-2.38,6.3-3.74,10.84-3.6s5.79.59,5.82,2.35a2.25,2.25,0,0,1-.89,1.71,4.44,4.44,0,0,1-3,1c-7.27-.13-9.22,3.75-9.22,3.75l-.09,1.4s4.42-3.15,7.93-1.82a4.27,4.27,0,0,1,1.4.87,5.68,5.68,0,0,1,4.93,8.48,2.36,2.36,0,0,1-2.28,1.43,3,3,0,0,1-1.29-.78,4.57,4.57,0,0,0-.65-.48l-.81,3.9S265.56,286,265,289.88l-3.14,64.24a16,16,0,0,1-17,15.13h0A16,16,0,0,1,230.32,350.06Z" transform="translate(-23.67 -46.9)"/><path class="cls-12" d="M246.08,284.25c1.33.36,2.7-.61,3.42-1.79s1-2.57,1.65-3.8c1.89-3.68,6.47-5.43,8.18-9.19.24-.52.37-1.25-.09-1.59s-1-.07-1.5.19l-12,6.63" transform="translate(-23.67 -46.9)"/><path class="cls-13" d="M245.76,274.7a5.49,5.49,0,0,1,1.22-.85c.81-.5,2-1.21,3.47-2.06l5.2-3,1.51-.85a2.71,2.71,0,0,1,2-.56,1.15,1.15,0,0,1,.79,1,2.37,2.37,0,0,1-.2,1.1,9,9,0,0,1-1,1.73c-1.66,2.16-3.8,3.51-5.35,5.08a10.32,10.32,0,0,0-1.9,2.43c-.45.85-.74,1.74-1.09,2.53a4.82,4.82,0,0,1-2.78,3,1.73,1.73,0,0,1-1.51-.06,4,4,0,0,0,1.4-.23,4.67,4.67,0,0,0,2.37-2.91c.31-.78.56-1.69,1-2.62a10.64,10.64,0,0,1,2-2.64c1.59-1.66,3.71-3,5.23-5a8.41,8.41,0,0,0,.94-1.56c.23-.52.2-1.05-.1-1.1s-.87.2-1.38.48l-1.52.83-5.28,2.83c-1.51.8-2.74,1.43-3.59,1.85A5.47,5.47,0,0,1,245.76,274.7Z" transform="translate(-23.67 -46.9)"/><path class="cls-13" d="M258.45,265.82a5.65,5.65,0,0,1,.83-2.45,4.36,4.36,0,0,1,2.21-1.6,11.17,11.17,0,0,1,3.44-.5,17.81,17.81,0,0,0,3.59-.31,5.74,5.74,0,0,0,2.67-1.33,2.24,2.24,0,0,0,.72-1.88,1.32,1.32,0,0,0-.24-.7s0,.26,0,.71a2.11,2.11,0,0,1-.77,1.61,5.69,5.69,0,0,1-2.53,1.14,19.69,19.69,0,0,1-3.51.26,10.85,10.85,0,0,0-3.58.56,4.57,4.57,0,0,0-2.35,1.85,4.07,4.07,0,0,0-.61,1.91A1.41,1.41,0,0,0,258.45,265.82Z" transform="translate(-23.67 -46.9)"/><path class="cls-13" d="M252.73,248.11a14.25,14.25,0,0,0,0,2.53c0,1.74,0,3.8.07,6.09s0,4.35,0,6.09a14.25,14.25,0,0,0,.05,2.53,11.33,11.33,0,0,0,.3-2.52c.11-1.56.18-3.72.17-6.11s-.1-4.54-.21-6.1A11.35,11.35,0,0,0,252.73,248.11Z" transform="translate(-23.67 -46.9)"/><path class="cls-13" d="M261.32,268.69a3.08,3.08,0,0,0,.74-.29,2.35,2.35,0,0,1,2-.09,1.26,1.26,0,0,1,.66,1.06,6.7,6.7,0,0,1-.12,1.64,2.84,2.84,0,0,0,.3,2,2.41,2.41,0,0,0,1.94,1,2.74,2.74,0,0,0,2-.86,3.43,3.43,0,0,0,.94-1.77,11.12,11.12,0,0,0-.05-3.26A6.54,6.54,0,0,0,269,266c-.26-.46-.5-.64-.52-.62s.15.25.34.7a7.75,7.75,0,0,1,.47,2.06,11.92,11.92,0,0,1-.05,3.12,2.71,2.71,0,0,1-2.46,2.21,1.94,1.94,0,0,1-1.54-.78,2.42,2.42,0,0,1-.25-1.66,6.68,6.68,0,0,0,.07-1.76,1.63,1.63,0,0,0-.92-1.32,2.45,2.45,0,0,0-2.2.24C261.53,268.48,261.31,268.66,261.32,268.69Z" transform="translate(-23.67 -46.9)"/><path class="cls-13" d="M268.58,272.76s-.09.27.07.72a2.2,2.2,0,0,0,1.48,1.31,2.94,2.94,0,0,0,2.79-.86,4.8,4.8,0,0,0,1.24-3.35,5.81,5.81,0,0,0-1.09-3.4,5.55,5.55,0,0,0-2.27-1.82,5.25,5.25,0,0,0-1.9-.45,1.51,1.51,0,0,0-.71.07,9.15,9.15,0,0,1,2.46.7,5.48,5.48,0,0,1,2,1.77,5.54,5.54,0,0,1,1,3.13,4.46,4.46,0,0,1-1.07,3,2.61,2.61,0,0,1-2.37.84,2.09,2.09,0,0,1-1.38-1C268.63,273,268.62,272.76,268.58,272.76Z" transform="translate(-23.67 -46.9)"/><path class="cls-13" d="M259.82,281.27a2.06,2.06,0,0,0-1.22,0,4.77,4.77,0,0,0-2.65,1.6l.43.12a14.15,14.15,0,0,0-.28-1.7,10.87,10.87,0,0,0-2.62-5.31,27.49,27.49,0,0,1,2.13,5.42c.13.57.23,1.12.29,1.64l.07.57.35-.44a5,5,0,0,1,2.35-1.61C259.37,281.35,259.82,281.33,259.82,281.27Z" transform="translate(-23.67 -46.9)"/><path class="cls-13" d="M260.05,259.61c-.12.06.37,1,1.49,1.45s2.12.22,2.08.09-.91-.13-1.88-.56S260.17,259.52,260.05,259.61Z" transform="translate(-23.67 -46.9)"/><path class="cls-7" d="M84.55,253.72a13,13,0,0,0-6.84-6A8.76,8.76,0,0,0,69,249.31a6.66,6.66,0,0,0-1,8.46,9.18,9.18,0,1,0,4.3,16.18,6.85,6.85,0,0,0,11.07,3.68c4.51-3.78,3.16-12.17,8.22-15.18" transform="translate(-23.67 -46.9)"/><path class="cls-7" d="M131.41,304.7a23.8,23.8,0,0,0,21.33,2.75,13.27,13.27,0,0,0,5.16-3,12.81,12.81,0,0,0,1.38-14.81c-1.77-2.91-4.73-5.1-5.87-8.32-1.23-3.5,0-7.32.13-11a19.09,19.09,0,0,0-10.3-17.36l-16.5,17.5L130,303.78Z" transform="translate(-23.67 -46.9)"/><path class="cls-7" d="M86.82,259.34c2.31,4.38,4.65,8.86,5.4,13.75s-.41,10.36-4.14,13.61c-3.08,2.68-7.4,3.48-10.7,5.89-4.86,3.54-6.71,9.91-7.33,15.89s-.36,12.15-2.33,17.83c-2.55,7.33-8.62,13.17-10.46,20.71a19.73,19.73,0,0,0,28.94,21.81c9.56-5.45,12.79-17.44,15.15-28.19,6.55-29.85,13.11-60.78,6.85-90.7" transform="translate(-23.67 -46.9)"/><path class="cls-7" d="M92.11,214.23c1.74-5.39,10.7-10.26,15.61-13.08,7.34-4.22,14.15-3.37,18.34.38,7.58-6.36,17.56-12.47,27.13-10s17.34,12.3,15.6,22c-1,5.74-5,10.89-4.77,16.71.16,4,2.26,7.56,3.94,11.16s3,7.8,1.47,11.49c-1.39,3.43-4.86,5.57-6.73,8.76-1.52,2.6-1.87,5.7-2.85,8.55-3.61,10.56-16.08,16.48-27.09,14.63s-20.17-10.14-25.37-20-6.92-21.22-7.52-32.36" transform="translate(-23.67 -46.9)"/><path class="cls-12" d="M100.33,221.87l2.2,88.07c.79,10.1,12.72,25,23.52,24.08h0c10.91-.94,16.61-17.51,16-27.72-.66-10.72-1.16-22-1.16-22s13.66-3.18,15.35-21.38c.87-9.32-.64-24.6-2.22-36.74a18.07,18.07,0,0,0-21-15.47" transform="translate(-23.67 -46.9)"/><path class="cls-13" d="M140.77,284.05a45.91,45.91,0,0,1-24.54-4.88s6.82,12.12,24.74,9.27Z" transform="translate(-23.67 -46.9)"/><path class="cls-7" d="M127.74,228.89c-.2.69-2.7.53-5.6,1.07s-5.2,1.49-5.63.91c-.19-.28.18-.94,1.09-1.66a9.9,9.9,0,0,1,8.55-1.51C127.26,228.06,127.83,228.56,127.74,228.89Z" transform="translate(-23.67 -46.9)"/><path class="cls-7" d="M150.75,229.5c-.4.59-2.15.12-4.21.22s-3.78.62-4.22.06c-.19-.28,0-.86.77-1.44a6.11,6.11,0,0,1,6.79-.23C150.65,228.64,150.93,229.21,150.75,229.5Z" transform="translate(-23.67 -46.9)"/><circle class="cls-13" cx="104.74" cy="202.29" r="0.66"/><circle class="cls-13" cx="123.4" cy="199.06" r="0.66"/><circle class="cls-13" cx="127.05" cy="200.78" r="0.66"/><circle class="cls-13" cx="128.16" cy="198.02" r="0.66"/><circle class="cls-13" cx="101.72" cy="205.21" r="0.66"/><circle class="cls-13" cx="99.25" cy="202.55" r="0.66"/><path class="cls-7" d="M132.1,207.89a38.51,38.51,0,0,1-26,31.62c4.44,6.4,1.64,18.58,1.76,28.75.11,9.45.1,12.15-6,17-5.06,1.22-8-12.64-11.74-16.52s-7.36-8.65-7.08-14c.13-2.52,1.11-4.94,1.25-7.45.15-2.8-.74-5.53-1.24-8.28-2.19-12.19,4.13-25.3,14.75-31.68s24.8-5.94,35.33.58" transform="translate(-23.67 -46.9)"/><path class="cls-10" d="M84.66,245.87a4.11,4.11,0,0,1-.45-.51,5.21,5.21,0,0,1-.83-1.76,10.43,10.43,0,0,1,1-7,13.79,13.79,0,0,1,2.87-4,27.45,27.45,0,0,1,4.32-3.68,23,23,0,0,1,5.61-2.81c2.06-.7,4.24-1.25,6.47-1.81s4.4-1.11,6.43-1.82a40,40,0,0,0,5.69-2.47,42.26,42.26,0,0,0,8.59-6,42.92,42.92,0,0,0,4.83-5.2c.53-.65.91-1.19,1.17-1.54a4.15,4.15,0,0,1,.42-.53,4.12,4.12,0,0,1-.35.58c-.24.37-.6.92-1.11,1.59a39.43,39.43,0,0,1-4.76,5.32,41.43,41.43,0,0,1-8.61,6.16,39.65,39.65,0,0,1-5.74,2.52c-2.05.73-4.24,1.28-6.46,1.84s-4.4,1.1-6.44,1.79a22.77,22.77,0,0,0-5.53,2.74,27.5,27.5,0,0,0-4.29,3.6,13.6,13.6,0,0,0-2.85,3.92,10.44,10.44,0,0,0-1.15,6.82A6.26,6.26,0,0,0,84.66,245.87Z" transform="translate(-23.67 -46.9)"/><path class="cls-10" d="M130.83,206.68a3.13,3.13,0,0,1-.37.46c-.25.29-.64.71-1.14,1.24a49.67,49.67,0,0,1-4.58,4.18,31.93,31.93,0,0,1-7.87,4.75,30.45,30.45,0,0,1-5.26,1.42c-1.85.37-3.78.66-5.75,1a64.31,64.31,0,0,0-11,2.3A24.08,24.08,0,0,0,87,226.37a15.64,15.64,0,0,0-3.83,4.75,14.47,14.47,0,0,0-.66,1.54,3.19,3.19,0,0,1-.23.54,3.12,3.12,0,0,1,.15-.57,11.36,11.36,0,0,1,.6-1.58,15.18,15.18,0,0,1,3.78-4.9,23.91,23.91,0,0,1,8-4.53,62.53,62.53,0,0,1,11-2.35c2-.3,3.89-.58,5.73-.95a30.6,30.6,0,0,0,5.2-1.38,32.51,32.51,0,0,0,7.83-4.63,57.82,57.82,0,0,0,4.65-4.06l1.2-1.18A3.13,3.13,0,0,1,130.83,206.68Z" transform="translate(-23.67 -46.9)"/><path class="cls-10" d="M151,191c0,.09-1.55.14-4,.78a17.77,17.77,0,0,0-1.93.62c-.69.23-1.4.57-2.14.9a24.11,24.11,0,0,0-8.28,6.58c-.49.65-1,1.26-1.36,1.88a17.75,17.75,0,0,0-1,1.74c-1.17,2.19-1.57,3.7-1.66,3.67a5.44,5.44,0,0,1,.27-1.05,8.94,8.94,0,0,1,.43-1.2,14.82,14.82,0,0,1,.69-1.55,16.63,16.63,0,0,1,1-1.79,22,22,0,0,1,1.35-1.94,23.26,23.26,0,0,1,8.41-6.69,22,22,0,0,1,2.19-.88,16.66,16.66,0,0,1,2-.58,14.84,14.84,0,0,1,1.66-.33,8.94,8.94,0,0,1,1.27-.15A5.45,5.45,0,0,1,151,191Z" transform="translate(-23.67 -46.9)"/><path class="cls-10" d="M163.78,259.55a.72.72,0,0,1,.12-.16l.38-.44c.33-.39.83-1,1.4-1.73a9.79,9.79,0,0,0,1.6-3.09,5.48,5.48,0,0,0,.17-2.14,6,6,0,0,0-.82-2.26,40.29,40.29,0,0,0-3.56-4.38,25.62,25.62,0,0,1-5.36-12.55,52.91,52.91,0,0,1-.19-7.75,27,27,0,0,0-.7-7.61,15.25,15.25,0,0,0-3.44-6.14,15.42,15.42,0,0,0-5.17-3.76,14.64,14.64,0,0,0-5.44-1.25,16,16,0,0,0-7.88,1.73,17.06,17.06,0,0,0-1.9,1.15l-.47.34-.17.1a11.38,11.38,0,0,1,2.47-1.73,15.82,15.82,0,0,1,8-1.88,14.82,14.82,0,0,1,5.56,1.23,15.94,15.94,0,0,1,8.86,10.1,27.16,27.16,0,0,1,.72,7.73,53.41,53.41,0,0,0,.18,7.69,25.48,25.48,0,0,0,5.22,12.39,39.23,39.23,0,0,1,3.54,4.45,6.25,6.25,0,0,1,.82,2.37,5.68,5.68,0,0,1-.2,2.23,9.73,9.73,0,0,1-1.69,3.12,20.35,20.35,0,0,1-1.47,1.69l-.41.41Z" transform="translate(-23.67 -46.9)"/><path class="cls-7" d="M85.6,246.88l-.19-.09-.55-.29a14.61,14.61,0,0,1-2-1.36,16.65,16.65,0,0,1-5.1-7.11,16.54,16.54,0,0,1,5.58-18.78,23.18,23.18,0,0,1,7.45-3.65A41.93,41.93,0,0,1,99,214.12c2.67-.25,5.24-.37,7.69-.54a66.44,66.44,0,0,0,6.91-.77,31.12,31.12,0,0,0,5.82-1.58,20.75,20.75,0,0,0,7.35-4.62,18,18,0,0,0,1.54-1.82l.36-.5a.83.83,0,0,1,.14-.16,12.32,12.32,0,0,1-1.92,2.6,20.37,20.37,0,0,1-7.36,4.79,30.92,30.92,0,0,1-5.87,1.64,65.2,65.2,0,0,1-6.94.82c-4.89.39-10.34.43-15.76,2a22.9,22.9,0,0,0-7.33,3.57,16,16,0,0,0-4.8,5.81,16.15,16.15,0,0,0-.75,12.54,17,17,0,0,0,6.85,8.5l.53.33Z" transform="translate(-23.67 -46.9)"/><path class="cls-10" d="M82.25,311.43a7.74,7.74,0,0,1,.53-1.25l1.64-3.51c1.37-3.06,3.51-7.49,5.63-13.05a13.92,13.92,0,0,0-.35-9.4,20.22,20.22,0,0,0-4.43-6.8,20.14,20.14,0,0,1-2-2.27,21.57,21.57,0,0,1-4.23-11.84,20.67,20.67,0,0,1,3.81-12.92,21.48,21.48,0,0,1,10.81-8c4.15-1.45,8.3-2.1,12-3.56a40.29,40.29,0,0,0,16.75-12.17,41.85,41.85,0,0,0,7-12.22c1.11-3.16,1.43-5,1.54-5a7.07,7.07,0,0,1-.21,1.34,33.18,33.18,0,0,1-1,3.77A41.23,41.23,0,0,1,106,239.61c-3.75,1.53-7.93,2.19-12,3.62a20.6,20.6,0,0,0-10.34,7.71A19.79,19.79,0,0,0,80,263.26a20.76,20.76,0,0,0,4,11.35,19.23,19.23,0,0,0,1.88,2.18,20.92,20.92,0,0,1,4.56,7.14,14.58,14.58,0,0,1,.25,9.89c-2.25,5.65-4.46,10-5.94,13-.76,1.5-1.37,2.66-1.8,3.44A6.54,6.54,0,0,1,82.25,311.43Z" transform="translate(-23.67 -46.9)"/><path class="cls-7" d="M150.33,239.49a2.31,2.31,0,0,1-2.1,2.44,2.21,2.21,0,0,1-2.48-2,2.31,2.31,0,0,1,2.09-2.44A2.21,2.21,0,0,1,150.33,239.49Z" transform="translate(-23.67 -46.9)"/><path class="cls-7" d="M150,236.81c-.27.32-2.08-.88-4.56-.74s-4.23,1.47-4.51,1.18c-.14-.13.12-.68.88-1.3a6.33,6.33,0,0,1,3.59-1.32,6.07,6.07,0,0,1,3.65,1C149.86,236.14,150.15,236.67,150,236.81Z" transform="translate(-23.67 -46.9)"/><path class="cls-7" d="M125.68,241.2a2.31,2.31,0,0,1-2.1,2.44,2.21,2.21,0,0,1-2.48-2,2.31,2.31,0,0,1,2.09-2.44A2.21,2.21,0,0,1,125.68,241.2Z" transform="translate(-23.67 -46.9)"/><path class="cls-7" d="M125.68,238.56c-.27.32-2.09-.88-4.56-.74s-4.23,1.47-4.51,1.18c-.14-.13.12-.68.88-1.3a6.32,6.32,0,0,1,3.59-1.32,6.08,6.08,0,0,1,3.65,1C125.53,237.89,125.82,238.42,125.68,238.56Z" transform="translate(-23.67 -46.9)"/><path class="cls-7" d="M135.65,256.46c0-.14,1.51-.49,4-.94.63-.1,1.22-.26,1.31-.69a3.23,3.23,0,0,0-.52-1.85l-2.13-4.72c-3-6.72-5.14-12.26-4.87-12.38s2.89,5.24,5.86,12l2,4.75a3.67,3.67,0,0,1,.46,2.47,1.59,1.59,0,0,1-1,1,4.3,4.3,0,0,1-1.07.21C137.23,256.51,135.67,256.61,135.65,256.46Z" transform="translate(-23.67 -46.9)"/><path class="cls-13" d="M134.92,262.49a4.47,4.47,0,0,0-4.09-1.45,4.08,4.08,0,0,0-2.73,1.66,2.59,2.59,0,0,0,0,3,3,3,0,0,0,3.29.65,9.4,9.4,0,0,0,3.07-2.06,2.75,2.75,0,0,0,.67-.77.83.83,0,0,0-.05-.92" transform="translate(-23.67 -46.9)"/><path class="cls-7" d="M128.45,258.57c.4,0,.55,2.64,3,4.43s5.25,1.34,5.29,1.71c0,.17-.61.56-1.82.65a6.71,6.71,0,0,1-4.41-1.28,5.84,5.84,0,0,1-2.3-3.73C128,259.24,128.27,258.56,128.45,258.57Z" transform="translate(-23.67 -46.9)"/><path class="cls-8" d="M174.39,360.64l62.78,29.48a19.56,19.56,0,0,0,7.48,1.24h0q.57,0,1.12-.07c10.16-.89,17.65-10,17.27-20.14l3.52-77H240.22l-10.93,54.26L168.08,307a26.38,26.38,0,0,0-9.9-4.08l-11.81-2.23" transform="translate(-23.67 -46.9)"/><path class="cls-8" d="M146.38,300.66s14.55,57.18,12.21,80S154,458.91,154,458.91H170.8s6.43.48,4.89-10.13c-2-14.08-1.46-30.89-1.46-30.89s0-16.32,1-31.49c.4-6.29-.2-22-.2-22l-3.07-18.52,3-28Z" transform="translate(-23.67 -46.9)"/><path class="cls-7" d="M157.58,424.68a1.46,1.46,0,0,1,.08-.31l.28-.89,1.13-3.42c1-3,2.42-7.26,3.7-12.7a70.23,70.23,0,0,0,1.52-9,83.42,83.42,0,0,0,.33-10.46c-.1-3.69-.36-7.56-.71-11.56s-.77-8.15-1.27-12.38a349.8,349.8,0,0,0-8-42.91c-1.35-5.43-2.6-9.77-3.44-12.78l-1-3.46-.25-.9a1.46,1.46,0,0,1-.07-.31,1.47,1.47,0,0,1,.12.3l.3.89,1.1,3.43c.9,3,2.21,7.33,3.61,12.75a329.33,329.33,0,0,1,8.14,42.94c.5,4.24.94,8.39,1.26,12.4s.6,7.89.69,11.59a82.47,82.47,0,0,1-.38,10.51,69.19,69.19,0,0,1-1.59,9c-1.33,5.45-2.84,9.72-3.87,12.68L158,423.51l-.33.88A1.46,1.46,0,0,1,157.58,424.68Z" transform="translate(-23.67 -46.9)"/><path class="cls-7" d="M168.27,332a2.35,2.35,0,0,1,.23.52l.55,1.54c.48,1.33,1.1,3.29,1.8,5.73a131.89,131.89,0,0,1,5,39.19c-.07,2.53-.17,4.58-.3,6l-.15,1.63a2.35,2.35,0,0,1-.09.56,2.37,2.37,0,0,1,0-.57l.05-1.63c.07-1.41.12-3.46.14-6a146.43,146.43,0,0,0-5-39.08c-.65-2.44-1.22-4.41-1.64-5.76l-.46-1.56A2.37,2.37,0,0,1,168.27,332Z" transform="translate(-23.67 -46.9)"/><path class="cls-7" d="M232.87,364.54a8.23,8.23,0,0,1-1.42-2.08,21.48,21.48,0,0,1-2.56-11.75,8.23,8.23,0,0,1,.43-2.48,27.8,27.8,0,0,0,3.55,16.31Z" transform="translate(-23.67 -46.9)"/><g class="cls-11"><path d="M162.53,426.14c1.32-1,2.13-3.77,2.46-5.4,3.19-15.63,3.71-33.38-1.19-48.56,2.88,20.71.4,36.35-6.17,52.35" transform="translate(-23.67 -46.9)"/></g><g class="cls-11"><path d="M228.47,348.08c-3.28.64-5.3,4.32-5,7.65s2.24,6.29,4.5,8.74c.64.69,1.67,1.41,2.43.85a1.89,1.89,0,0,0,.53-1.69c-.14-2.65-1.13-5.18-1.85-7.73s-1.17-5.34-.24-7.83" transform="translate(-23.67 -46.9)"/></g><polygon class="cls-4" points="78.43 245.94 109.73 283.68 117.82 249.82 122.71 253.76 127.61 275.01 108.74 291.77 95.59 294.35 83 289.8 73.96 251.03 78.43 245.94"/><path class="cls-7" d="M158.26,387.09a3.21,3.21,0,0,1-.16-.65l-.36-1.87c-.14-.81-.34-1.8-.61-2.95s-.52-2.45-.91-3.88l-.57-2.25-.7-2.41c-.46-1.68-1.07-3.43-1.66-5.29-1.28-3.69-2.82-7.69-4.65-11.81s-3.83-7.92-5.74-11.32c-1-1.68-1.9-3.3-2.85-4.75l-1.34-2.12-1.3-1.92c-.81-1.23-1.61-2.31-2.3-3.26s-1.29-1.77-1.8-2.41l-1.15-1.51a3.22,3.22,0,0,1-.38-.55,3.17,3.17,0,0,1,.46.48l1.23,1.45c.54.63,1.17,1.42,1.88,2.36s1.53,2,2.37,3.22l1.33,1.91,1.37,2.12c1,1.45,1.89,3.07,2.9,4.75,1.94,3.41,3.93,7.23,5.8,11.35s3.37,8.16,4.63,11.87c.58,1.87,1.18,3.63,1.62,5.32l.67,2.43.54,2.26c.36,1.44.61,2.75.84,3.91s.41,2.15.52,3l.27,1.89A3.19,3.19,0,0,1,158.26,387.09Z" transform="translate(-23.67 -46.9)"/><ellipse class="cls-7" cx="141.85" cy="340.11" rx="6.28" ry="0.26" transform="translate(-206.46 118.84) rotate(-39.12)"/><path class="cls-7" d="M147.37,341.06c.07.14-1.91,1.19-4,3s-3.46,3.55-3.59,3.46a15.21,15.21,0,0,1,7.59-6.43Z" transform="translate(-23.67 -46.9)"/><path class="cls-8" d="M59.46,353.13s26.7,55,24.94,71.36l-6.56,34.41h24.72l10.18-.06c.28-14.64-1.43-54.45-2.33-82s-11.75-80.48-11.75-80.48l-9.11,4C76.5,301,59,308.84,55.48,328.14Z" transform="translate(-23.67 -46.9)"/><path class="cls-8" d="M55.9,326,44.11,387.49l-1.36,14.35a28,28,0,0,0,24.05,30.4l75.31,13.29,15.35-24.05L81.21,396.16l10-44.88Z" transform="translate(-23.67 -46.9)"/><path class="cls-7" d="M68.27,432.5l.36,0,1,.16,4.06.68L89,436l53.17,9.29-.25.11,15.34-24.06.14.38-11.8-3.92L81.15,396.36,81,396.3l0-.18,5.28-34.58L87.78,352l.41-2.5c.1-.56.16-.85.16-.85s0,.29-.1.86L87.91,352l-1.38,9.58-5.11,34.61-.14-.23,64.46,21.36,11.8,3.92.32.1-.18.28-15.36,24-.09.14-.16,0L88.93,436.3,73.7,433.54l-4-.75-1-.2Z" transform="translate(-23.67 -46.9)"/><path class="cls-7" d="M82.31,396.35c0,.09-.81,0-2.08.19a13.46,13.46,0,0,0-8.57,4.6c-.83,1-1.23,1.67-1.31,1.63a5.24,5.24,0,0,1,1-1.86,12,12,0,0,1,8.82-4.74A5.24,5.24,0,0,1,82.31,396.35Z" transform="translate(-23.67 -46.9)"/><path class="cls-7" d="M88.15,329.16c-.1,0-.3-1.49-1.21-3.73a19.13,19.13,0,0,0-13.83-11.6c-2.36-.51-3.88-.44-3.88-.54a3.7,3.7,0,0,1,1.06-.08,16.13,16.13,0,0,1,2.89.26,18.44,18.44,0,0,1,14.11,11.83,16.12,16.12,0,0,1,.76,2.8A3.7,3.7,0,0,1,88.15,329.16Z" transform="translate(-23.67 -46.9)"/><path class="cls-7" d="M108.69,405.14a1.08,1.08,0,0,1-.13-.24l-.32-.74-1.19-2.85c-1-2.49-2.46-6.1-3.92-10.68A61.61,61.61,0,0,1,100.07,374c-.24-6.39.91-13.32,1.43-20.6a89,89,0,0,0-1.12-20.51,164.62,164.62,0,0,0-3.67-16.42c-1.26-4.63-2.38-8.34-3.15-10.92l-.87-3-.21-.77a1.09,1.09,0,0,1-.06-.27,1.08,1.08,0,0,1,.11.25l.26.76,1,2.94c.82,2.55,2,6.26,3.31,10.88a156.6,156.6,0,0,1,3.79,16.44A88,88,0,0,1,102,353.48c-.52,7.32-1.68,14.22-1.47,20.55a62.45,62.45,0,0,0,2.94,16.49c1.41,4.58,2.82,8.2,3.76,10.71l1.1,2.89.27.76A1.08,1.08,0,0,1,108.69,405.14Z" transform="translate(-23.67 -46.9)"/><g class="cls-11"><path d="M100.73,402.76c-1.8-6.74-3.62-13.53-4.06-20.49s.57-14.19,4.1-20.2c-2.25,14.82,1.69,30.35,8.84,43.52" transform="translate(-23.67 -46.9)"/></g><g class="cls-11"><polygon points="57.15 396.39 89.1 395.45 89.19 393.48 58.79 388.2 57.15 396.39"/></g><g class="cls-11"><polygon points="63.52 309.49 61.34 350.52 57.55 349.26 63.52 309.49"/></g><polygon class="cls-12" points="132.48 377.25 150.21 383.07 156.45 377.76 179.88 386.43 177.3 404.01 174.16 404.04 170.74 394.87 154.69 401.06 147.98 402.92 120.66 395.95 132.48 377.25"/><path class="cls-7" d="M112.94,458.91v-2a4,4,0,0,1,3.95-3.95h53.22l23-67.08a6.46,6.46,0,0,1,6.11-4.36H300.13a.67.67,0,0,1,.63.89l-27,76.46Z" transform="translate(-23.67 -46.9)"/><circle class="cls-9" cx="216.01" cy="373.33" r="6.08"/></g></svg>