<svg id="Layer_1" data-name="Layer 1" xmlns="http://www.w3.org/2000/svg" viewBox="0 0 999 244.38"><defs><style>.cls-1{fill:#fff;}</style></defs><title>View Project White</title><path class="cls-1" d="M999,244.38H0V0H999ZM8.06,236.32H990.95V8.06H8.06Z"/><rect class="cls-1" x="691.51" y="118.3" width="214.84" height="6.58"/><polygon class="cls-1" points="903.66 102.05 903.66 139.65 946.63 120.85 903.66 102.05"/><path class="cls-1" d="M106.29,87.13h7.41l-26.55,70h-8l-26.55-70h7.61l22.94,62.41Z"/><path class="cls-1" d="M122.62,86.93a5.11,5.11,0,1,1,10.22,0,5.11,5.11,0,1,1-10.22,0Zm1.6,15.53h7v54.69h-7Z"/><path class="cls-1" d="M170.8,158C155.27,158,144,147.13,144,129.8s11.12-28.15,26.85-28.15c16,0,25.85,11.42,25.85,25.34a47.87,47.87,0,0,1-.2,5.51H151.07c.6,12.82,9.52,19.53,19.73,19.53,9.32,0,15.63-4.91,17.63-12.22h7.41C193.34,150.14,184.52,158,170.8,158ZM151.07,126.8h38.47c.3-12.72-8.92-19.13-19-19.13C160.58,107.66,151.87,114.07,151.07,126.8Z"/><path class="cls-1" d="M203,102.45h7.11L223.69,150,239,102.45h7l15.13,47.68,13.52-47.68h6.91l-17.13,54.69h-7l-15.13-45.88L227.2,157.15h-7.11Z"/><path class="cls-1" d="M339.69,127.3H325.57v29.85h-7v-70h21.14c16.23,0,23.64,8.61,23.64,20.13C363.33,118.58,356.12,127.3,339.69,127.3Zm0-6c11.82,0,16.43-5.41,16.43-14,0-9-4.61-14.22-16.43-14.22H325.57v28.25Z"/><path class="cls-1" d="M382.07,157.15h-7V102.45h7v9.72c3-6.71,9.32-10.72,18.73-10.72v7.31h-1.9c-9.12,0-16.83,4.11-16.83,17.83Z"/><path class="cls-1" d="M435.26,158c-15.43,0-27.15-10.82-27.15-28.15s12-28.15,27.35-28.15,27.35,10.72,27.35,28.15S450.69,158,435.26,158Zm0-6.11c10.32,0,20.34-7,20.34-22s-9.82-22-20.24-22-20.13,7-20.13,22S424.84,151.84,435.26,151.84Z"/><path class="cls-1" d="M483,102.45v67.62c0,8.81-4.41,12.92-13.22,12.92h-4.91v-6h3.81c5.21,0,7.31-1.9,7.31-7.21V102.45Zm-8.51-15.53a5,5,0,0,1,5.11-5.11,4.92,4.92,0,0,1,5,5.11,5,5,0,0,1-5,5.21A5.09,5.09,0,0,1,474.53,86.93Z"/><path class="cls-1" d="M522.71,158c-15.53,0-26.85-10.82-26.85-28.15s11.12-28.15,26.85-28.15c16,0,25.84,11.42,25.84,25.34a48,48,0,0,1-.2,5.51H503c.6,12.82,9.52,19.53,19.73,19.53,9.32,0,15.63-4.91,17.63-12.22h7.41C545.25,150.14,536.44,158,522.71,158ZM503,126.8h38.47c.3-12.72-8.92-19.13-19-19.13C512.49,107.66,503.78,114.07,503,126.8Z"/><path class="cls-1" d="M584.72,101.65c13.72,0,22.64,7.31,25.14,18.63h-7.51c-1.8-7.81-8.42-12.62-17.63-12.62-10.72,0-19.43,7.31-19.43,22.14S574,152,584.72,152c9.22,0,15.73-4.71,17.63-12.72h7.51c-2.5,10.92-11.42,18.63-25.14,18.63-15.43,0-26.55-10.82-26.55-28.15S569.29,101.65,584.72,101.65Z"/><path class="cls-1" d="M624.79,108.36h-7.61v-5.91h7.61V88.73h7.11v13.72h15v5.91h-15v34c0,6.71,2.3,8.82,8.62,8.82h6.41v6h-7.51c-9.52,0-14.62-3.91-14.62-14.83Z"/></svg>