<?xml version="1.0" encoding="utf-8"?>
<!-- Generator: Adobe Illustrator 21.0.2, SVG Export Plug-In . SVG Version: 6.00 Build 0)  -->
<svg version="1.1" id="Layer_1" xmlns="http://www.w3.org/2000/svg" xmlns:xlink="http://www.w3.org/1999/xlink" x="0px" y="0px"
	 viewBox="0 0 999 244.4" style="enable-background:new 0 0 999 244.4;" xml:space="preserve">
<title>View Project</title>
<path d="M999,244.4H0V0h999V244.4z M8.1,236.3h982.9V8.1H8.1V236.3z"/>
<rect x="691.5" y="118.3" width="214.8" height="6.6"/>
<polygon points="903.7,102.1 903.7,139.6 946.6,120.8 "/>
<g>
	<path d="M106.3,87.1h7.4l-26.5,70h-8l-26.5-70h7.6l22.9,62.4L106.3,87.1z"/>
	<path d="M122.6,86.9c0-3,2.3-5.1,5.1-5.1s5.1,2.1,5.1,5.1c0,3-2.3,5.2-5.1,5.2S122.6,89.9,122.6,86.9z M124.2,102.5h7v54.7h-7
		V102.5z"/>
	<path d="M170.8,158c-15.5,0-26.8-10.8-26.8-28.1c0-17.4,11.1-28.1,26.8-28.1c16,0,25.8,11.4,25.8,25.3c0,2.2,0,3.6-0.2,5.5h-45.4
		c0.6,12.8,9.5,19.5,19.7,19.5c9.3,0,15.6-4.9,17.6-12.2h7.4C193.3,150.1,184.5,158,170.8,158z M151.1,126.8h38.5
		c0.3-12.7-8.9-19.1-19-19.1C160.6,107.7,151.9,114.1,151.1,126.8z"/>
	<path d="M203,102.5h7.1l13.6,47.6l15.3-47.6h7l15.1,47.7l13.5-47.7h6.9l-17.1,54.7h-7l-15.1-45.9l-15.1,45.9h-7.1L203,102.5z"/>
	<path d="M339.7,127.3h-14.1v29.9h-7v-70h21.1c16.2,0,23.6,8.6,23.6,20.1C363.3,118.6,356.1,127.3,339.7,127.3z M339.7,121.3
		c11.8,0,16.4-5.4,16.4-14c0-9-4.6-14.2-16.4-14.2h-14.1v28.2H339.7z"/>
	<path d="M382.1,157.1h-7v-54.7h7v9.7c3-6.7,9.3-10.7,18.7-10.7v7.3h-1.9c-9.1,0-16.8,4.1-16.8,17.8V157.1z"/>
	<path d="M435.3,158c-15.4,0-27.1-10.8-27.1-28.1c0-17.4,12-28.1,27.3-28.1c15.4,0,27.3,10.7,27.3,28.1
		C462.8,147.1,450.7,158,435.3,158z M435.3,151.8c10.3,0,20.3-7,20.3-22c0-15-9.8-22-20.2-22s-20.1,7-20.1,22
		C415.2,144.8,424.8,151.8,435.3,151.8z"/>
	<path d="M483,102.5v67.6c0,8.8-4.4,12.9-13.2,12.9h-4.9v-6h3.8c5.2,0,7.3-1.9,7.3-7.2v-67.3H483z M474.5,86.9c0-3,2.3-5.1,5.1-5.1
		c2.8,0,5,2.1,5,5.1c0,3-2.2,5.2-5,5.2C476.8,92.1,474.5,89.9,474.5,86.9z"/>
	<path d="M522.7,158c-15.5,0-26.8-10.8-26.8-28.1c0-17.4,11.1-28.1,26.8-28.1c16,0,25.8,11.4,25.8,25.3c0,2.2,0,3.6-0.2,5.5H503
		c0.6,12.8,9.5,19.5,19.7,19.5c9.3,0,15.6-4.9,17.6-12.2h7.4C545.3,150.1,536.4,158,522.7,158z M503,126.8h38.5
		c0.3-12.7-8.9-19.1-19-19.1C512.5,107.7,503.8,114.1,503,126.8z"/>
	<path d="M584.7,101.7c13.7,0,22.6,7.3,25.1,18.6h-7.5c-1.8-7.8-8.4-12.6-17.6-12.6c-10.7,0-19.4,7.3-19.4,22.1
		c0,14.8,8.7,22.2,19.4,22.2c9.2,0,15.7-4.7,17.6-12.7h7.5c-2.5,10.9-11.4,18.6-25.1,18.6c-15.4,0-26.5-10.8-26.5-28.1
		S569.3,101.7,584.7,101.7z"/>
	<path d="M624.8,108.4h-7.6v-5.9h7.6V88.7h7.1v13.7h15v5.9h-15v34c0,6.7,2.3,8.8,8.6,8.8h6.4v6h-7.5c-9.5,0-14.6-3.9-14.6-14.8
		V108.4z"/>
</g>
</svg>
