<svg id="OBJECTS" xmlns="http://www.w3.org/2000/svg" xmlns:xlink="http://www.w3.org/1999/xlink" viewBox="0 0 419.04 256.38"><defs><style>.cls-1{fill:#fe9764;}.cls-14,.cls-17,.cls-18,.cls-2,.cls-21,.cls-9{fill:none;}.cls-2{stroke:#b0d5f7;stroke-width:1.89px;}.cls-17,.cls-18,.cls-2,.cls-9{stroke-linecap:round;stroke-linejoin:round;}.cls-3{fill:#fbfbfd;}.cls-4{fill:#2d61bb;}.cls-5{fill:#61abfd;}.cls-6{fill:#daeaff;}.cls-7{fill:#f5dd45;}.cls-8{fill:#447fd3;}.cls-9{stroke:#daeaff;stroke-width:4.46px;}.cls-10{fill:#2f282f;}.cls-11{fill:#681c18;}.cls-12{fill:#1c181c;}.cls-13{fill:#2346ae;}.cls-14{stroke:#545054;stroke-width:0.63px;}.cls-14,.cls-21{stroke-miterlimit:10;}.cls-15{fill:#fff;}.cls-16{fill:#545054;}.cls-17,.cls-18{stroke:#2d61bb;}.cls-17{stroke-width:2.73px;}.cls-18{stroke-width:4.1px;}.cls-19{fill:#e9f1c2;}.cls-20{clip-path:url(#clip-path);}.cls-21{stroke:#fff;stroke-width:3.58px;}.cls-22{clip-path:url(#clip-path-2);}</style><clipPath id="clip-path" transform="translate(-37.87 -160.83)"><polygon class="cls-1" points="83.91 401.34 93.38 375.68 97.33 375.68 107.19 401.34 83.91 401.34"/></clipPath><clipPath id="clip-path-2" transform="translate(-37.87 -160.83)"><polygon class="cls-1" points="125.46 401.34 134.94 375.68 138.88 375.68 148.75 401.34 125.46 401.34"/></clipPath></defs><title>Web Development SVG</title><line class="cls-2" x1="52.56" y1="203.12" x2="388.81" y2="203.12"/><rect class="cls-3" x="66.94" y="17.8" width="296.02" height="184.37"/><rect class="cls-4" x="66.94" y="17.8" width="75.31" height="184.37"/><path class="cls-5" d="M73.95,0H356a7,7,0,0,1,7,7V17.8a0,0,0,0,1,0,0h-296a0,0,0,0,1,0,0V7A7,7,0,0,1,73.95,0Z"/><circle class="cls-6" cx="86.84" cy="8.9" r="3.59"/><circle class="cls-7" cx="97.48" cy="8.9" r="3.59"/><circle class="cls-6" cx="108.13" cy="8.9" r="3.59"/><circle class="cls-5" cx="104.59" cy="61.71" r="23.47"/><circle class="cls-4" cx="104.68" cy="55.66" r="6.27"/><path class="cls-4" d="M128.81,233.07l2.25-4.19a7.4,7.4,0,0,1,6.52-3.9h9.12a7.4,7.4,0,0,1,6.14,3.26l3.25,4.82Z" transform="translate(-37.87 -160.83)"/><rect class="cls-6" x="278.58" y="38.24" width="71.36" height="70.27"/><rect class="cls-6" x="278.58" y="121.45" width="71.36" height="62.65"/><rect class="cls-8" x="316.35" y="38.24" width="13.36" height="21.06"/><circle class="cls-6" cx="166.4" cy="55.07" r="12.88"/><line class="cls-9" x1="188.94" y1="45.76" x2="237.25" y2="45.76"/><line class="cls-9" x1="188.94" y1="55.58" x2="213.09" y2="55.58"/><line class="cls-9" x1="188.94" y1="65.4" x2="237.25" y2="65.4"/><circle class="cls-6" cx="166.4" cy="105.86" r="12.88"/><line class="cls-9" x1="188.94" y1="96.55" x2="237.25" y2="96.55"/><line class="cls-9" x1="188.94" y1="106.37" x2="213.09" y2="106.37"/><line class="cls-9" x1="188.94" y1="116.19" x2="237.25" y2="116.19"/><circle class="cls-6" cx="166.4" cy="156.66" r="12.88"/><line class="cls-9" x1="188.94" y1="147.35" x2="237.25" y2="147.35"/><line class="cls-9" x1="188.94" y1="157.16" x2="213.09" y2="157.16"/><line class="cls-9" x1="188.94" y1="166.98" x2="237.25" y2="166.98"/><path class="cls-5" d="M165.93,322.78H119a2.23,2.23,0,0,1,0-4.46h46.94a2.23,2.23,0,0,1,0,4.46Z" transform="translate(-37.87 -160.83)"/><path class="cls-5" d="M165.93,334.17H119a2.23,2.23,0,0,1,0-4.46h46.94a2.23,2.23,0,0,1,0,4.46Z" transform="translate(-37.87 -160.83)"/><rect class="cls-4" x="387.25" y="281.31" width="2.11" height="118.22" transform="translate(-96.56 -79) rotate(-11.19)"/><rect class="cls-4" x="355.58" y="281.31" width="2.11" height="118.22" transform="translate(-97.16 -85.14) rotate(-11.19)"/><rect class="cls-4" x="327.78" y="225.59" width="31.67" height="2.1"/><rect class="cls-4" x="325.5" y="213.73" width="31.67" height="2.1"/><rect class="cls-4" x="322.88" y="201.87" width="31.67" height="2.1"/><rect class="cls-4" x="321.3" y="190" width="31.67" height="2.1"/><rect class="cls-4" x="318.1" y="178.14" width="31.67" height="2.1"/><rect class="cls-4" x="315.71" y="166.28" width="31.67" height="2.1"/><rect class="cls-4" x="313.9" y="154.42" width="31.67" height="2.1"/><rect class="cls-4" x="311.86" y="142.56" width="31.67" height="2.1"/><rect class="cls-4" x="309.47" y="130.69" width="31.67" height="2.1"/><path class="cls-5" d="M418.18,280h0a8.43,8.43,0,0,0,1.37-10h0c-.14-.27-.24-.42-.24-.42h0a16.47,16.47,0,0,1,3-19.12c2.75-3.63.67-8.46.67-8.46h0a11.67,11.67,0,1,1,22,0h0s-2.08,4.83.67,8.46a16.47,16.47,0,0,1,3,19.12h0l-.05.08c-.09.18-.19.36-.29.54a8.41,8.41,0,0,0,1.08,9.35l.3.35.08.1h0a20.32,20.32,0,1,1-31.7,0Z" transform="translate(-37.87 -160.83)"/><path class="cls-4" d="M428.06,291l5,4.92V278.6l-6.11-6a.81.81,0,0,1,1.14-1.15l5,4.92V252.46a.81.81,0,1,1,1.61,0v14.39l4.84-4.81a.81.81,0,1,1,1.14,1.14l-6,5.95V286.5l5.35-5.4a.81.81,0,0,1,1.15,1.14l-6.5,6.56v46.11a.81.81,0,1,1-1.61,0V298.18l-6.11-6a.81.81,0,0,1,1.14-1.15Z" transform="translate(-37.87 -160.83)"/><line class="cls-2" x1="385.31" y1="174.88" x2="418.09" y2="174.88"/><path class="cls-3" d="M361.34,237.52l-.06-7.32c0-.63-.73-1.16-1.58-1.15l-7.76.06a2.92,2.92,0,0,1-3.14-2.63l0-2.51a2.92,2.92,0,0,1,3.1-2.68l4.6,0v1.22l-4.6,0A1.72,1.72,0,0,0,350,224l0,2.51a1.72,1.72,0,0,0,1.91,1.42l7.76-.06a2.61,2.61,0,0,1,2.8,2.36l.06,7.32Z" transform="translate(-37.87 -160.83)"/><path class="cls-4" d="M366.81,225.3l-11.59.09a3.29,3.29,0,0,1-3.31-3.26h0a3.29,3.29,0,0,1,3.26-3.31l11.59-.09a3.29,3.29,0,0,1,3.31,3.26h0A3.29,3.29,0,0,1,366.81,225.3Z" transform="translate(-37.87 -160.83)"/><path class="cls-10" d="M363.06,251.67l-2.21,0a1.18,1.18,0,0,1-1.19-1.17L360,237a1.18,1.18,0,0,1,1.17-1.19h1.29a1.18,1.18,0,0,1,1.19,1.17l.56,13.51A1.18,1.18,0,0,1,363.06,251.67Z" transform="translate(-37.87 -160.83)"/><circle class="cls-11" cx="363.11" cy="244.78" r="4.19" transform="translate(-111.57 52.94) rotate(-29.92)"/><rect class="cls-11" x="273.64" y="92.73" width="7.87" height="10.57"/><rect class="cls-11" x="304.93" y="398.6" width="5.25" height="5.29" transform="translate(577.24 641.65) rotate(180)"/><rect class="cls-12" x="301.64" y="396.43" width="10.96" height="4.02" transform="translate(576.36 636.04) rotate(180)"/><rect class="cls-11" x="283.59" y="237.77" width="5.25" height="5.29"/><polygon class="cls-10" points="278.7 143.52 277.2 143.52 262.81 143.52 265.43 235.6 273.73 235.6 275.01 159.62 280.89 159.62 282.18 235.6 290.47 235.6 293.09 143.52 278.7 143.52"/><rect class="cls-12" x="281.18" y="235.6" width="10.96" height="4.02"/><circle class="cls-11" cx="267.13" cy="86.37" r="2.62"/><circle class="cls-11" cx="288.16" cy="86.37" r="2.62"/><circle class="cls-10" cx="315.5" cy="244.94" r="10.76" transform="translate(-26.11 343.5) rotate(-78.32)"/><path class="cls-4" d="M331,304.35H300.68l-1.17-33.41c0-5.6,3.71-10.14,9.31-10.14h14c5.6,0,9.31,4.54,9.31,10.14Z" transform="translate(-37.87 -160.83)"/><path class="cls-4" d="M308.38,271.64l-18.56,21.64.85-1.61a2.17,2.17,0,0,0-.06-1.35,1.69,1.69,0,0,0-.57-.77,1,1,0,0,0-.89-.17l.71-.16,15.58-2.18a4.58,4.58,0,0,1,1.27,9.07l-15.58,2.18.71-.16a8.19,8.19,0,0,1-7.16-1.15,7.47,7.47,0,0,1-2.59-3.3,7.06,7.06,0,0,1-.21-4.57,4.93,4.93,0,0,1,.8-1.55l0-.06,18.32-23c1.79-2.32,4.23-2.27,6.55-.48a5.3,5.3,0,0,1,1,7.44Z" transform="translate(-37.87 -160.83)"/><path class="cls-13" d="M346.55,269.38v0a.58.58,0,0,0,0,.13s0,0,0,0v-.17Z" transform="translate(-37.87 -160.83)"/><path class="cls-13" d="M348.11,268.2h0Z" transform="translate(-37.87 -160.83)"/><path class="cls-4" d="M351.17,276.94a8.3,8.3,0,0,0,3.13-2,8.69,8.69,0,0,0,1.14-1.49c.16-.26.29-.54.43-.82l.09-.19,0-.09.08-.18,1.25-2.91,2.5-5.83c1.43-3.25,3.93-8.82,5.75-12.78a1.28,1.28,0,0,0-.7-1.73l-6.36-2.54a1.28,1.28,0,0,0-1.66.68c-1.72,4-4.16,9.41-5.57,12.61l-2.61,5.78L346,271.16c.55,3.53,3.46,2.56,4.28,6.06A7.85,7.85,0,0,0,351.17,276.94ZM349.23,268l0,0,0,0Z" transform="translate(-37.87 -160.83)"/><path class="cls-4" d="M348.89,268.45l-2.36-.7-1-.28-6.09-1.78c-4.06-1.19-12.92-4.1-13-4.13-3.18-.72-5.81,1.83-6.19,5.16a5.62,5.62,0,0,0,4.45,6c4.06.92,8.12,1.85,12.16,2.83L343,277l1.54.38.77.19.51.12c.31.06.61.13.92.16a8.38,8.38,0,0,0,6.18-1.76C350.72,273.28,350.88,271.41,348.89,268.45Zm-2.35,1.09a.58.58,0,0,1,0-.13v.15S346.54,269.53,346.54,269.53Z" transform="translate(-37.87 -160.83)"/><polygon class="cls-14" points="281.41 148.02 289.58 148.02 289.58 153.42 285.5 156.35 281.41 153.52 281.41 148.02"/><polygon class="cls-14" points="266.32 148.02 274.49 148.02 274.49 153.42 270.41 156.35 266.32 153.52 266.32 148.02"/><path class="cls-15" d="M328.39,402.18l.14,5.62s13.56,3.84,13.73,3.84,2.11.63,2.11,1.88c0,0-24.65.09-24.56,0s-.19-5.87-.19-5.87S318.93,401,328.39,402.18Z" transform="translate(-37.87 -160.83)"/><path class="cls-15" d="M330.46,411a.63.63,0,0,0,.62-.57v-2.2a.63.63,0,0,0-.57-.68.62.62,0,0,0-.68.57v2.2a.63.63,0,0,0,.57.68Z" transform="translate(-37.87 -160.83)"/><path class="cls-15" d="M333,411.52a.63.63,0,0,0,.62-.57v-2.2a.63.63,0,0,0-1.25-.11v2.2a.63.63,0,0,0,.57.68Z" transform="translate(-37.87 -160.83)"/><path class="cls-15" d="M335.58,412.23a.63.63,0,0,0,.62-.57v-2.2a.63.63,0,0,0-.57-.68.64.64,0,0,0-.68.57v2.2a.63.63,0,0,0,.57.68Z" transform="translate(-37.87 -160.83)"/><path class="cls-10" d="M319.8,413.53l1,1a2.65,2.65,0,0,0,1.88.78h19a2.65,2.65,0,0,0,2-1l.67-.81Z" transform="translate(-37.87 -160.83)"/><path class="cls-15" d="M302.85,402.18l-.14,5.62s-13.56,3.84-13.73,3.84-2.11.63-2.11,1.88c0,0,24.65.09,24.56,0s.19-5.87.19-5.87S312.31,401,302.85,402.18Z" transform="translate(-37.87 -160.83)"/><path class="cls-15" d="M300.78,411a.63.63,0,0,1-.62-.57v-2.2a.63.63,0,0,1,.57-.68.62.62,0,0,1,.68.57v2.2a.63.63,0,0,1-.57.68Z" transform="translate(-37.87 -160.83)"/><path class="cls-15" d="M298.2,411.52a.63.63,0,0,1-.62-.57v-2.2a.63.63,0,0,1,1.25-.11v2.2a.63.63,0,0,1-.57.68Z" transform="translate(-37.87 -160.83)"/><path class="cls-15" d="M295.66,412.23a.63.63,0,0,1-.62-.57v-2.2a.63.63,0,0,1,.57-.68.64.64,0,0,1,.68.57v2.2a.63.63,0,0,1-.57.68Z" transform="translate(-37.87 -160.83)"/><path class="cls-10" d="M311.44,413.53l-1,1a2.65,2.65,0,0,1-1.88.78h-19a2.65,2.65,0,0,1-2-1l-.67-.81Z" transform="translate(-37.87 -160.83)"/><path class="cls-15" d="M214,225.86h23.64a1.33,1.33,0,0,1,1.33,1.33V253a1.6,1.6,0,0,1-1.6,1.6H214.3a1.6,1.6,0,0,1-1.6-1.6V227.19A1.33,1.33,0,0,1,214,225.86Z"/><path class="cls-4" d="M214,225.86h23.64a1.33,1.33,0,0,1,1.33,1.33v2.34a0,0,0,0,1,0,0H212.7a0,0,0,0,1,0,0v-2.34A1.33,1.33,0,0,1,214,225.86Z"/><path class="cls-16" d="M269.68,402.08H257.34a4.17,4.17,0,0,1-3.89-2.63L250.61,391a.51.51,0,0,1,1-.33l2.83,8.39a3.15,3.15,0,0,0,2.93,2h12.34a3.17,3.17,0,0,0,2.89-1.87l3.28-8.5a.51.51,0,1,1,1,.37l-3.29,8.53A4.21,4.21,0,0,1,269.68,402.08Z" transform="translate(-37.87 -160.83)"/><line class="cls-17" x1="227.64" y1="227.7" x2="227.64" y2="235.34"/><line class="cls-18" x1="230.17" y1="229.07" x2="230.17" y2="230.3"/><line class="cls-2" x1="202.11" y1="255.43" x2="321.71" y2="255.43"/><polygon class="cls-19" points="46.03 240.5 55.51 214.85 59.45 214.85 69.32 240.5 46.03 240.5"/><rect class="cls-1" x="42.04" y="240.5" width="30.58" height="4.25"/><polygon class="cls-1" points="46.03 240.5 55.51 214.85 59.45 214.85 69.32 240.5 46.03 240.5"/><g class="cls-20"><line class="cls-21" x1="46.03" y1="227.68" x2="70.36" y2="221.44"/><line class="cls-21" x1="44.84" y1="237.74" x2="69.17" y2="231.5"/></g><polygon class="cls-19" points="87.59 240.5 97.07 214.85 101.01 214.85 110.88 240.5 87.59 240.5"/><rect class="cls-1" x="83.59" y="240.5" width="30.58" height="4.25"/><polygon class="cls-1" points="87.59 240.5 97.07 214.85 101.01 214.85 110.88 240.5 87.59 240.5"/><g class="cls-22"><line class="cls-21" x1="87.59" y1="227.68" x2="111.92" y2="221.44"/><line class="cls-21" x1="86.4" y1="237.74" x2="110.73" y2="231.5"/></g><line class="cls-2" x1="37.35" y1="245.49" x2="128.04" y2="245.49"/><path class="cls-5" d="M43.69,291.93h0a11,11,0,0,0,1.78-13h0c-.18-.35-.31-.55-.31-.55h0a21.43,21.43,0,0,1,4-24.88c3.57-4.73.87-11,.87-11h0a15.19,15.19,0,1,1,28.63,0h0s-2.7,6.29.87,11a21.43,21.43,0,0,1,4,24.88h0l-.07.11c-.12.24-.24.47-.37.71a11,11,0,0,0,1.41,12.17l.39.46.11.13h0a26.44,26.44,0,1,1-41.25,0Z" transform="translate(-37.87 -160.83)"/><path class="cls-4" d="M56.54,306.2,63,312.61V290.09l-8-7.87a1.05,1.05,0,0,1,1.48-1.49L63,287.13V256.07a1.05,1.05,0,1,1,2.1,0v18.72l6.3-6.26A1.05,1.05,0,0,1,72.9,270l-7.78,7.74v22.62l7-7a1.05,1.05,0,0,1,1.49,1.48l-8.46,8.54v60a1.05,1.05,0,0,1-2.1,0V315.56l-8-7.87a1.05,1.05,0,0,1,1.48-1.49Z" transform="translate(-37.87 -160.83)"/><line class="cls-2" x1="10.17" y1="203.12" x2="33.39" y2="203.12"/></svg>